<svg width="60" height="60" viewBox="0 0 60 60" fill="none" xmlns="http://www.w3.org/2000/svg">
<rect width="60" height="60" rx="10" fill="#3643BD"/>
<path d="M36.75 23.75H38.25C38.4489 23.75 38.6397 23.671 38.7803 23.5303C38.921 23.3897 39 23.1989 39 23C39 22.8011 38.921 22.6103 38.7803 22.4697C38.6397 22.329 38.4489 22.25 38.25 22.25H36.75C36.5511 22.25 36.3603 22.329 36.2197 22.4697C36.079 22.6103 36 22.8011 36 23C36 23.1989 36.079 23.3897 36.2197 23.5303C36.3603 23.671 36.5511 23.75 36.75 23.75ZM30 17C30 16.8011 30.079 16.6103 30.2197 16.4697C30.3603 16.329 30.5511 16.25 30.75 16.25H38.25C38.4489 16.25 38.6397 16.329 38.7803 16.4697C38.921 16.6103 39 16.8011 39 17C39 17.1989 38.921 17.3897 38.7803 17.5303C38.6397 17.671 38.4489 17.75 38.25 17.75H30.75C30.5511 17.75 30.3603 17.671 30.2197 17.5303C30.079 17.3897 30 17.1989 30 17ZM30 29C30 28.8011 30.079 28.6103 30.2197 28.4697C30.3603 28.329 30.5511 28.25 30.75 28.25H38.25C38.4489 28.25 38.6397 28.329 38.7803 28.4697C38.921 28.6103 39 28.8011 39 29C39 29.1989 38.921 29.3897 38.7803 29.5303C38.6397 29.671 38.4489 29.75 38.25 29.75H30.75C30.5511 29.75 30.3603 29.671 30.2197 29.5303C30.079 29.3897 30 29.1989 30 29ZM21.75 17.75H23.25C23.4489 17.75 23.6397 17.671 23.7803 17.5303C23.921 17.3897 24 17.1989 24 17C24 16.8011 23.921 16.6103 23.7803 16.4697C23.6397 16.329 23.4489 16.25 23.25 16.25H21.75C21.5511 16.25 21.3603 16.329 21.2197 16.4697C21.079 16.6103 21 16.8011 21 17C21 17.1989 21.079 17.3897 21.2197 17.5303C21.3603 17.671 21.5511 17.75 21.75 17.75ZM23.25 29.75H21.75C21.5511 29.75 21.3603 29.671 21.2197 29.5303C21.079 29.3897 21 29.1989 21 29C21 28.8011 21.079 28.6103 21.2197 28.4697C21.3603 28.329 21.5511 28.25 21.75 28.25H23.25C23.4489 28.25 23.6397 28.329 23.7803 28.4697C23.921 28.6103 24 28.8011 24 29C24 29.1989 23.921 29.3897 23.7803 29.5303C23.6397 29.671 23.4489 29.75 23.25 29.75ZM21 23C21 22.8011 21.079 22.6103 21.2197 22.4697C21.3603 22.329 21.5511 22.25 21.75 22.25H29.25C29.4489 22.25 29.6397 22.329 29.7803 22.4697C29.921 22.6103 30 22.8011 30 23C30 23.1989 29.921 23.3897 29.7803 23.5303C29.6397 23.671 29.4489 23.75 29.25 23.75H21.75C21.5511 23.75 21.3603 23.671 21.2197 23.5303C21.079 23.3897 21 23.1989 21 23ZM27 14.75C26.4033 14.75 25.831 14.9871 25.409 15.409C24.9871 15.831 24.75 16.4033 24.75 17C24.75 17.5967 24.9871 18.169 25.409 18.591C25.831 19.0129 26.4033 19.25 27 19.25C27.5967 19.25 28.169 19.0129 28.591 18.591C29.0129 18.169 29.25 17.5967 29.25 17C29.25 16.4033 29.0129 15.831 28.591 15.409C28.169 14.9871 27.5967 14.75 27 14.75ZM30.75 23C30.75 22.4033 30.9871 21.831 31.409 21.409C31.831 20.9871 32.4033 20.75 33 20.75C33.5967 20.75 34.169 20.9871 34.591 21.409C35.0129 21.831 35.25 22.4033 35.25 23C35.25 23.5967 35.0129 24.169 34.591 24.591C34.169 25.0129 33.5967 25.25 33 25.25C32.4033 25.25 31.831 25.0129 31.409 24.591C30.9871 24.169 30.75 23.5967 30.75 23ZM27 26.75C26.4033 26.75 25.831 26.9871 25.409 27.409C24.9871 27.831 24.75 28.4033 24.75 29C24.75 29.5967 24.9871 30.169 25.409 30.591C25.831 31.0129 26.4033 31.25 27 31.25C27.5967 31.25 28.169 31.0129 28.591 30.591C29.0129 30.169 29.25 29.5967 29.25 29C29.25 28.4033 29.0129 27.831 28.591 27.409C28.169 26.9871 27.5967 26.75 27 26.75Z" fill="#F2F2F2"/>
<path d="M14.7557 47L17.4357 40H18.3757L21.0557 47H20.0357L19.3657 45.26H16.4057L15.7357 47H14.7557ZM16.7157 44.44H19.0557L17.8857 41.2L16.7157 44.44ZM23.9049 47.1C23.4715 47.1 23.0882 47 22.7549 46.8C22.4215 46.6 22.1615 46.3 21.9749 45.9C21.7949 45.5 21.7049 45 21.7049 44.4V44.2C21.7049 43.64 21.7982 43.1667 21.9849 42.78C22.1782 42.3933 22.4382 42.1 22.7649 41.9C23.0982 41.7 23.4782 41.6 23.9049 41.6C24.3315 41.6 24.7015 41.6933 25.0149 41.88C25.3349 42.0667 25.5715 42.3233 25.7249 42.65V40H26.6049V47H25.7849V46C25.6515 46.3267 25.4182 46.5933 25.0849 46.8C24.7515 47 24.3582 47.1 23.9049 47.1ZM24.1049 46.32C24.4249 46.32 24.7049 46.2533 24.9449 46.12C25.1915 45.98 25.3815 45.79 25.5149 45.55C25.6549 45.3033 25.7249 45.02 25.7249 44.7V43.9C25.7249 43.6133 25.6549 43.3567 25.5149 43.13C25.3815 42.8967 25.1915 42.7133 24.9449 42.58C24.7049 42.4467 24.4249 42.38 24.1049 42.38C23.6782 42.38 23.3182 42.54 23.0249 42.86C22.7315 43.1733 22.5849 43.62 22.5849 44.2V44.4C22.5849 45.0267 22.7315 45.5033 23.0249 45.83C23.3182 46.1567 23.6782 46.32 24.1049 46.32ZM27.5872 49.1C27.5139 49.1 27.4306 49.0967 27.3372 49.09C27.2439 49.09 27.1606 49.0833 27.0872 49.07V48.27C27.1406 48.2833 27.2006 48.29 27.2672 48.29C27.3272 48.2967 27.3839 48.3 27.4372 48.3C27.6639 48.3 27.8406 48.2633 27.9672 48.19C28.0939 48.1233 28.1806 47.9967 28.2272 47.81C28.2806 47.6233 28.3072 47.3533 28.3072 47V41.7H29.1872V47C29.1872 47.5467 29.1339 47.9733 29.0272 48.28C28.9272 48.5867 28.7606 48.8 28.5272 48.92C28.2939 49.04 27.9806 49.1 27.5872 49.1ZM28.7472 41C28.5739 41 28.4306 40.9433 28.3172 40.83C28.2039 40.7167 28.1472 40.5733 28.1472 40.4C28.1472 40.2267 28.2039 40.0833 28.3172 39.97C28.4306 39.8567 28.5739 39.8 28.7472 39.8C28.9206 39.8 29.0639 39.8567 29.1772 39.97C29.2906 40.0833 29.3472 40.2267 29.3472 40.4C29.3472 40.5733 29.2906 40.7167 29.1772 40.83C29.0639 40.9433 28.9206 41 28.7472 41ZM32.753 47.1C32.113 47.1 31.633 46.9167 31.313 46.55C30.993 46.1833 30.833 45.6167 30.833 44.85V41.7H31.713V44.8C31.713 45.2933 31.813 45.6667 32.013 45.92C32.2197 46.1733 32.553 46.3 33.013 46.3C33.3463 46.3 33.6197 46.2267 33.833 46.08C34.0463 45.9333 34.203 45.7467 34.303 45.52C34.403 45.2867 34.453 45.0467 34.453 44.8V41.7H35.333V47H34.513V46C34.393 46.2933 34.183 46.55 33.883 46.77C33.583 46.99 33.2063 47.1 32.753 47.1ZM38.7877 47.1C38.4344 47.1 38.1277 47.06 37.8677 46.98C37.6077 46.8933 37.391 46.78 37.2177 46.64C37.0444 46.5 36.9044 46.3367 36.7977 46.15C36.6977 45.9567 36.6277 45.7567 36.5877 45.55H37.4677C37.5144 45.7633 37.6377 45.95 37.8377 46.11C38.0444 46.2633 38.361 46.34 38.7877 46.34C39.281 46.34 39.6244 46.2633 39.8177 46.11C40.011 45.95 40.1077 45.7633 40.1077 45.55C40.1077 45.4033 40.0644 45.2767 39.9777 45.17C39.8977 45.0567 39.751 44.96 39.5377 44.88C39.331 44.8 39.0344 44.7333 38.6477 44.68C38.3544 44.64 38.091 44.5833 37.8577 44.51C37.6244 44.43 37.4244 44.3267 37.2577 44.2C37.091 44.0733 36.961 43.92 36.8677 43.74C36.781 43.56 36.7377 43.3467 36.7377 43.1C36.7377 42.8333 36.8144 42.5867 36.9677 42.36C37.121 42.1333 37.351 41.95 37.6577 41.81C37.9644 41.67 38.341 41.6 38.7877 41.6C39.2077 41.6 39.5544 41.6733 39.8277 41.82C40.1077 41.96 40.3244 42.1467 40.4777 42.38C40.631 42.6133 40.7344 42.87 40.7877 43.15H39.9077C39.8544 42.9167 39.741 42.7267 39.5677 42.58C39.3944 42.4333 39.1344 42.36 38.7877 42.36C38.3544 42.36 38.051 42.4333 37.8777 42.58C37.7044 42.72 37.6177 42.8933 37.6177 43.1C37.6177 43.34 37.711 43.52 37.8977 43.64C38.091 43.76 38.441 43.8533 38.9477 43.92C39.2744 43.96 39.5644 44.02 39.8177 44.1C40.071 44.1733 40.2844 44.2767 40.4577 44.41C40.631 44.5367 40.761 44.6933 40.8477 44.88C40.941 45.0667 40.9877 45.29 40.9877 45.55C40.9877 45.83 40.9077 46.0867 40.7477 46.32C40.5877 46.5533 40.3444 46.7433 40.0177 46.89C39.6977 47.03 39.2877 47.1 38.7877 47.1ZM44.1904 47.05C43.8171 47.05 43.5104 46.9933 43.2704 46.88C43.0371 46.7667 42.8638 46.5967 42.7504 46.37C42.6438 46.1367 42.5904 45.8467 42.5904 45.5V42.48H41.7904V41.7H42.5904V40.5H43.4704V41.7H44.8904V42.48H43.4704V45.4C43.4704 45.7 43.5338 45.9167 43.6604 46.05C43.7871 46.1833 44.0304 46.25 44.3904 46.25C44.5904 46.25 44.7904 46.24 44.9904 46.22V47C44.8638 47.0133 44.7371 47.0233 44.6104 47.03C44.4838 47.0433 44.3438 47.05 44.1904 47.05Z" fill="#F2F2F2"/>
</svg>
