<svg width="60" height="60" viewBox="0 0 60 60" fill="none" xmlns="http://www.w3.org/2000/svg">
<path d="M27.53 27.122C27.2684 26.4771 26.7906 25.9431 26.1786 25.6117C25.5667 25.2802 24.8585 25.1719 24.1753 25.3052C23.4922 25.4385 22.8768 25.8052 22.4343 26.3424C21.9918 26.8797 21.7499 27.554 21.75 28.25C21.75 28.5581 21.6867 28.863 21.5641 29.1456C21.4414 29.4283 21.262 29.6827 21.037 29.8932C20.812 30.1037 20.5462 30.2657 20.256 30.3692C19.9658 30.4727 19.6574 30.5156 19.35 30.495C19.8444 31.354 20.6086 32.0257 21.5239 32.4058C22.4392 32.786 23.4544 32.8533 24.4119 32.5974C25.3694 32.3415 26.2156 31.7767 26.8192 30.9906C27.4228 30.2045 27.75 29.2411 27.75 28.25C27.75 27.851 27.672 27.47 27.53 27.122ZM27.53 27.122C28.719 26.7169 29.8562 26.1732 30.918 25.502M25.875 25.477C26.2802 24.2855 26.8246 23.1459 27.497 22.082M30.917 25.502C32.8133 24.3039 34.4365 22.7203 35.681 20.854L39.557 15.04C39.7055 14.8186 39.7725 14.5525 39.7465 14.2871C39.7206 14.0218 39.6034 13.7736 39.4149 13.5851C39.2264 13.3966 38.9782 13.2794 38.7129 13.2534C38.4475 13.2275 38.1814 13.2945 37.96 13.443L32.146 17.32C30.2795 18.5642 28.6955 20.1869 27.497 22.083C29.0189 22.7635 30.2365 23.9811 30.917 25.503" stroke="#3643BD" stroke-linecap="round" stroke-linejoin="round"/>
<path d="M11.3955 47V40H13.8955C14.7288 40 15.3355 40.1767 15.7155 40.53C16.1022 40.8767 16.2955 41.3233 16.2955 41.87C16.2955 42.23 16.1955 42.54 15.9955 42.8C15.7955 43.0533 15.5488 43.2367 15.2555 43.35C15.6688 43.4433 15.9955 43.6333 16.2355 43.92C16.4755 44.2 16.5955 44.5667 16.5955 45.02C16.5955 45.4 16.5122 45.74 16.3455 46.04C16.1788 46.3333 15.9122 46.5667 15.5455 46.74C15.1788 46.9133 14.6955 47 14.0955 47H11.3955ZM12.3355 46.18H14.0955C14.6955 46.18 15.1055 46.0733 15.3255 45.86C15.5455 45.64 15.6555 45.35 15.6555 44.99C15.6555 44.6233 15.5455 44.3333 15.3255 44.12C15.1055 43.9 14.6922 43.79 14.0855 43.79H12.3355V46.18ZM12.3355 43.01H13.8955C14.4555 43.01 14.8388 42.9067 15.0455 42.7C15.2522 42.4933 15.3555 42.23 15.3555 41.91C15.3555 41.5833 15.2522 41.32 15.0455 41.12C14.8388 40.92 14.4555 40.82 13.8955 40.82H12.3355V43.01ZM17.8947 47V41.7H18.7147V42.7C18.7947 42.4867 18.9047 42.3 19.0447 42.14C19.1847 41.9733 19.3547 41.8433 19.5547 41.75C19.7614 41.65 19.9914 41.6 20.2447 41.6C20.3781 41.6 20.4847 41.6067 20.5647 41.62C20.6514 41.6333 20.7281 41.65 20.7947 41.67V42.49C20.7081 42.4567 20.6214 42.4333 20.5347 42.42C20.4547 42.4067 20.3414 42.4 20.1947 42.4C19.9281 42.4 19.6881 42.4633 19.4747 42.59C19.2614 42.7167 19.0914 42.8933 18.9647 43.12C18.8381 43.34 18.7747 43.6 18.7747 43.9V47H17.8947ZM23.6612 47.1C23.0212 47.1 22.5412 46.9167 22.2212 46.55C21.9012 46.1833 21.7412 45.6167 21.7412 44.85V41.7H22.6212V44.8C22.6212 45.2933 22.7212 45.6667 22.9212 45.92C23.1279 46.1733 23.4612 46.3 23.9212 46.3C24.2545 46.3 24.5279 46.2267 24.7412 46.08C24.9545 45.9333 25.1112 45.7467 25.2112 45.52C25.3112 45.2867 25.3612 45.0467 25.3612 44.8V41.7H26.2412V47H25.4212V46C25.3012 46.2933 25.0912 46.55 24.7912 46.77C24.4912 46.99 24.1145 47.1 23.6612 47.1ZM29.6959 47.1C29.3426 47.1 29.0359 47.06 28.7759 46.98C28.5159 46.8933 28.2992 46.78 28.1259 46.64C27.9526 46.5 27.8126 46.3367 27.7059 46.15C27.6059 45.9567 27.5359 45.7567 27.4959 45.55H28.3759C28.4226 45.7633 28.5459 45.95 28.7459 46.11C28.9526 46.2633 29.2692 46.34 29.6959 46.34C30.1892 46.34 30.5326 46.2633 30.7259 46.11C30.9192 45.95 31.0159 45.7633 31.0159 45.55C31.0159 45.4033 30.9726 45.2767 30.8859 45.17C30.8059 45.0567 30.6592 44.96 30.4459 44.88C30.2392 44.8 29.9426 44.7333 29.5559 44.68C29.2626 44.64 28.9992 44.5833 28.7659 44.51C28.5326 44.43 28.3326 44.3267 28.1659 44.2C27.9992 44.0733 27.8692 43.92 27.7759 43.74C27.6892 43.56 27.6459 43.3467 27.6459 43.1C27.6459 42.8333 27.7226 42.5867 27.8759 42.36C28.0292 42.1333 28.2592 41.95 28.5659 41.81C28.8726 41.67 29.2492 41.6 29.6959 41.6C30.1159 41.6 30.4626 41.6733 30.7359 41.82C31.0159 41.96 31.2326 42.1467 31.3859 42.38C31.5392 42.6133 31.6426 42.87 31.6959 43.15H30.8159C30.7626 42.9167 30.6492 42.7267 30.4759 42.58C30.3026 42.4333 30.0426 42.36 29.6959 42.36C29.2626 42.36 28.9592 42.4333 28.7859 42.58C28.6126 42.72 28.5259 42.8933 28.5259 43.1C28.5259 43.34 28.6192 43.52 28.8059 43.64C28.9992 43.76 29.3492 43.8533 29.8559 43.92C30.1826 43.96 30.4726 44.02 30.7259 44.1C30.9792 44.1733 31.1926 44.2767 31.3659 44.41C31.5392 44.5367 31.6692 44.6933 31.7559 44.88C31.8492 45.0667 31.8959 45.29 31.8959 45.55C31.8959 45.83 31.8159 46.0867 31.6559 46.32C31.4959 46.5533 31.2526 46.7433 30.9259 46.89C30.6059 47.03 30.1959 47.1 29.6959 47.1ZM33.1486 47V40H34.0286V42.65C34.122 42.4633 34.2486 42.29 34.4086 42.13C34.5686 41.97 34.762 41.8433 34.9886 41.75C35.222 41.65 35.4853 41.6 35.7786 41.6C36.4453 41.6 36.9386 41.78 37.2586 42.14C37.5853 42.4933 37.7486 43.0133 37.7486 43.7V47H36.8686V43.9C36.8686 43.4067 36.7653 43.0333 36.5586 42.78C36.352 42.5267 36.0053 42.4 35.5186 42.4C35.172 42.4 34.8886 42.4733 34.6686 42.62C34.4486 42.7667 34.2853 42.9533 34.1786 43.18C34.0786 43.4067 34.0286 43.6467 34.0286 43.9V47H33.1486ZM41.501 47.1C41.0543 47.1 40.6343 47.0033 40.241 46.81C39.8543 46.6167 39.541 46.32 39.301 45.92C39.0676 45.52 38.951 45.0133 38.951 44.4V44.2C38.951 43.6133 39.0643 43.13 39.291 42.75C39.5176 42.3633 39.8176 42.0767 40.191 41.89C40.5643 41.6967 40.9676 41.6 41.401 41.6C42.181 41.6 42.7843 41.8133 43.211 42.24C43.6376 42.6667 43.851 43.27 43.851 44.05V44.61H39.831C39.831 45.0233 39.9143 45.3533 40.081 45.6C40.2543 45.8467 40.4676 46.0267 40.721 46.14C40.981 46.2467 41.241 46.3 41.501 46.3C41.901 46.3 42.2076 46.2333 42.421 46.1C42.641 45.9667 42.7976 45.7833 42.891 45.55H43.751C43.6443 46.0567 43.381 46.4433 42.961 46.71C42.5476 46.97 42.061 47.1 41.501 47.1ZM41.451 42.4C41.1776 42.4 40.9176 42.4533 40.671 42.56C40.4243 42.66 40.221 42.82 40.061 43.04C39.9076 43.26 39.831 43.5433 39.831 43.89H43.021C43.0143 43.5233 42.9376 43.2333 42.791 43.02C42.651 42.8 42.4643 42.6433 42.231 42.55C41.9976 42.45 41.7376 42.4 41.451 42.4ZM46.9518 47.1C46.5984 47.1 46.2918 47.06 46.0318 46.98C45.7718 46.8933 45.5551 46.78 45.3818 46.64C45.2084 46.5 45.0684 46.3367 44.9618 46.15C44.8618 45.9567 44.7918 45.7567 44.7518 45.55H45.6318C45.6784 45.7633 45.8018 45.95 46.0018 46.11C46.2084 46.2633 46.5251 46.34 46.9518 46.34C47.4451 46.34 47.7884 46.2633 47.9818 46.11C48.1751 45.95 48.2718 45.7633 48.2718 45.55C48.2718 45.4033 48.2284 45.2767 48.1418 45.17C48.0618 45.0567 47.9151 44.96 47.7018 44.88C47.4951 44.8 47.1984 44.7333 46.8118 44.68C46.5184 44.64 46.2551 44.5833 46.0218 44.51C45.7884 44.43 45.5884 44.3267 45.4218 44.2C45.2551 44.0733 45.1251 43.92 45.0318 43.74C44.9451 43.56 44.9018 43.3467 44.9018 43.1C44.9018 42.8333 44.9784 42.5867 45.1318 42.36C45.2851 42.1333 45.5151 41.95 45.8218 41.81C46.1284 41.67 46.5051 41.6 46.9518 41.6C47.3718 41.6 47.7184 41.6733 47.9918 41.82C48.2718 41.96 48.4884 42.1467 48.6418 42.38C48.7951 42.6133 48.8984 42.87 48.9518 43.15H48.0718C48.0184 42.9167 47.9051 42.7267 47.7318 42.58C47.5584 42.4333 47.2984 42.36 46.9518 42.36C46.5184 42.36 46.2151 42.4333 46.0418 42.58C45.8684 42.72 45.7818 42.8933 45.7818 43.1C45.7818 43.34 45.8751 43.52 46.0618 43.64C46.2551 43.76 46.6051 43.8533 47.1118 43.92C47.4384 43.96 47.7284 44.02 47.9818 44.1C48.2351 44.1733 48.4484 44.2767 48.6218 44.41C48.7951 44.5367 48.9251 44.6933 49.0118 44.88C49.1051 45.0667 49.1518 45.29 49.1518 45.55C49.1518 45.83 49.0718 46.0867 48.9118 46.32C48.7518 46.5533 48.5084 46.7433 48.1818 46.89C47.8618 47.03 47.4518 47.1 46.9518 47.1Z" fill="#20276D"/>
</svg>
