<svg width="60" height="60" viewBox="0 0 60 60" fill="none" xmlns="http://www.w3.org/2000/svg">
<rect width="60" height="60" rx="10" fill="#3643BD"/>
<path fill-rule="evenodd" clip-rule="evenodd" d="M38.599 11C38.223 11 37.856 11.111 37.544 11.32L32.464 14.705C31.1893 15.5551 30.0236 16.5582 28.993 17.692C31.1099 18.6871 32.8129 20.3901 33.808 22.507C34.9418 21.4761 35.945 20.3101 36.795 19.035L40.181 13.956C40.3717 13.6696 40.4811 13.3369 40.4976 12.9932C40.5141 12.6496 40.437 12.3079 40.2747 12.0045C40.1123 11.7012 39.8708 11.4476 39.5757 11.2707C39.2806 11.0938 38.943 11.0002 38.599 11ZM30.299 25.025C30.9545 24.6609 31.5877 24.2579 32.195 23.818C31.7914 22.7971 31.1826 21.8699 30.4064 21.0936C29.6301 20.3174 28.7029 19.7086 27.682 19.305C27.2421 19.912 26.8391 20.5448 26.475 21.2L26.197 21.7C27.0531 21.9463 27.8327 22.4061 28.4625 23.0361C29.0924 23.6661 29.5519 24.4458 29.798 25.302L30.3 25.024L30.299 25.025ZM24.75 23C23.7554 23 22.8016 23.3951 22.0983 24.0983C21.3951 24.8016 21 25.7554 21 26.75C21.0001 26.9555 20.9579 27.1589 20.8761 27.3474C20.7943 27.536 20.6746 27.7057 20.5245 27.8461C20.3743 27.9864 20.197 28.0944 20.0034 28.1634C19.8098 28.2324 19.6041 28.2608 19.399 28.247C19.2634 28.2379 19.1279 28.2658 19.0069 28.3277C18.886 28.3896 18.7841 28.4833 18.7122 28.5986C18.6403 28.7139 18.6011 28.8466 18.5988 28.9825C18.5965 29.1183 18.6311 29.2523 18.699 29.37C19.2759 30.3722 20.1675 31.1558 21.2354 31.5994C22.3034 32.0429 23.4878 32.1214 24.6049 31.8227C25.7221 31.5241 26.7093 30.8649 27.4135 29.9477C28.1176 29.0304 28.4992 27.9064 28.499 26.75C28.499 26.2575 28.402 25.7699 28.2135 25.3149C28.0251 24.86 27.7489 24.4466 27.4006 24.0983C27.0524 23.7501 26.639 23.4739 26.1841 23.2855C25.7291 23.097 25.2425 23 24.75 23Z" fill="#F2F2F2"/>
<path d="M11.3955 48.5V41.5H13.8955C14.7288 41.5 15.3355 41.6767 15.7155 42.03C16.1022 42.3767 16.2955 42.8233 16.2955 43.37C16.2955 43.73 16.1955 44.04 15.9955 44.3C15.7955 44.5533 15.5488 44.7367 15.2555 44.85C15.6688 44.9433 15.9955 45.1333 16.2355 45.42C16.4755 45.7 16.5955 46.0667 16.5955 46.52C16.5955 46.9 16.5122 47.24 16.3455 47.54C16.1788 47.8333 15.9122 48.0667 15.5455 48.24C15.1788 48.4133 14.6955 48.5 14.0955 48.5H11.3955ZM12.3355 47.68H14.0955C14.6955 47.68 15.1055 47.5733 15.3255 47.36C15.5455 47.14 15.6555 46.85 15.6555 46.49C15.6555 46.1233 15.5455 45.8333 15.3255 45.62C15.1055 45.4 14.6922 45.29 14.0855 45.29H12.3355V47.68ZM12.3355 44.51H13.8955C14.4555 44.51 14.8388 44.4067 15.0455 44.2C15.2522 43.9933 15.3555 43.73 15.3555 43.41C15.3555 43.0833 15.2522 42.82 15.0455 42.62C14.8388 42.42 14.4555 42.32 13.8955 42.32H12.3355V44.51ZM17.8947 48.5V43.2H18.7147V44.2C18.7947 43.9867 18.9047 43.8 19.0447 43.64C19.1847 43.4733 19.3547 43.3433 19.5547 43.25C19.7614 43.15 19.9914 43.1 20.2447 43.1C20.3781 43.1 20.4847 43.1067 20.5647 43.12C20.6514 43.1333 20.7281 43.15 20.7947 43.17V43.99C20.7081 43.9567 20.6214 43.9333 20.5347 43.92C20.4547 43.9067 20.3414 43.9 20.1947 43.9C19.9281 43.9 19.6881 43.9633 19.4747 44.09C19.2614 44.2167 19.0914 44.3933 18.9647 44.62C18.8381 44.84 18.7747 45.1 18.7747 45.4V48.5H17.8947ZM23.6612 48.6C23.0212 48.6 22.5412 48.4167 22.2212 48.05C21.9012 47.6833 21.7412 47.1167 21.7412 46.35V43.2H22.6212V46.3C22.6212 46.7933 22.7212 47.1667 22.9212 47.42C23.1279 47.6733 23.4612 47.8 23.9212 47.8C24.2545 47.8 24.5279 47.7267 24.7412 47.58C24.9545 47.4333 25.1112 47.2467 25.2112 47.02C25.3112 46.7867 25.3612 46.5467 25.3612 46.3V43.2H26.2412V48.5H25.4212V47.5C25.3012 47.7933 25.0912 48.05 24.7912 48.27C24.4912 48.49 24.1145 48.6 23.6612 48.6ZM29.6959 48.6C29.3426 48.6 29.0359 48.56 28.7759 48.48C28.5159 48.3933 28.2992 48.28 28.1259 48.14C27.9526 48 27.8126 47.8367 27.7059 47.65C27.6059 47.4567 27.5359 47.2567 27.4959 47.05H28.3759C28.4226 47.2633 28.5459 47.45 28.7459 47.61C28.9526 47.7633 29.2692 47.84 29.6959 47.84C30.1892 47.84 30.5326 47.7633 30.7259 47.61C30.9192 47.45 31.0159 47.2633 31.0159 47.05C31.0159 46.9033 30.9726 46.7767 30.8859 46.67C30.8059 46.5567 30.6592 46.46 30.4459 46.38C30.2392 46.3 29.9426 46.2333 29.5559 46.18C29.2626 46.14 28.9992 46.0833 28.7659 46.01C28.5326 45.93 28.3326 45.8267 28.1659 45.7C27.9992 45.5733 27.8692 45.42 27.7759 45.24C27.6892 45.06 27.6459 44.8467 27.6459 44.6C27.6459 44.3333 27.7226 44.0867 27.8759 43.86C28.0292 43.6333 28.2592 43.45 28.5659 43.31C28.8726 43.17 29.2492 43.1 29.6959 43.1C30.1159 43.1 30.4626 43.1733 30.7359 43.32C31.0159 43.46 31.2326 43.6467 31.3859 43.88C31.5392 44.1133 31.6426 44.37 31.6959 44.65H30.8159C30.7626 44.4167 30.6492 44.2267 30.4759 44.08C30.3026 43.9333 30.0426 43.86 29.6959 43.86C29.2626 43.86 28.9592 43.9333 28.7859 44.08C28.6126 44.22 28.5259 44.3933 28.5259 44.6C28.5259 44.84 28.6192 45.02 28.8059 45.14C28.9992 45.26 29.3492 45.3533 29.8559 45.42C30.1826 45.46 30.4726 45.52 30.7259 45.6C30.9792 45.6733 31.1926 45.7767 31.3659 45.91C31.5392 46.0367 31.6692 46.1933 31.7559 46.38C31.8492 46.5667 31.8959 46.79 31.8959 47.05C31.8959 47.33 31.8159 47.5867 31.6559 47.82C31.4959 48.0533 31.2526 48.2433 30.9259 48.39C30.6059 48.53 30.1959 48.6 29.6959 48.6ZM33.1486 48.5V41.5H34.0286V44.15C34.122 43.9633 34.2486 43.79 34.4086 43.63C34.5686 43.47 34.762 43.3433 34.9886 43.25C35.222 43.15 35.4853 43.1 35.7786 43.1C36.4453 43.1 36.9386 43.28 37.2586 43.64C37.5853 43.9933 37.7486 44.5133 37.7486 45.2V48.5H36.8686V45.4C36.8686 44.9067 36.7653 44.5333 36.5586 44.28C36.352 44.0267 36.0053 43.9 35.5186 43.9C35.172 43.9 34.8886 43.9733 34.6686 44.12C34.4486 44.2667 34.2853 44.4533 34.1786 44.68C34.0786 44.9067 34.0286 45.1467 34.0286 45.4V48.5H33.1486ZM41.501 48.6C41.0543 48.6 40.6343 48.5033 40.241 48.31C39.8543 48.1167 39.541 47.82 39.301 47.42C39.0676 47.02 38.951 46.5133 38.951 45.9V45.7C38.951 45.1133 39.0643 44.63 39.291 44.25C39.5176 43.8633 39.8176 43.5767 40.191 43.39C40.5643 43.1967 40.9676 43.1 41.401 43.1C42.181 43.1 42.7843 43.3133 43.211 43.74C43.6376 44.1667 43.851 44.77 43.851 45.55V46.11H39.831C39.831 46.5233 39.9143 46.8533 40.081 47.1C40.2543 47.3467 40.4676 47.5267 40.721 47.64C40.981 47.7467 41.241 47.8 41.501 47.8C41.901 47.8 42.2076 47.7333 42.421 47.6C42.641 47.4667 42.7976 47.2833 42.891 47.05H43.751C43.6443 47.5567 43.381 47.9433 42.961 48.21C42.5476 48.47 42.061 48.6 41.501 48.6ZM41.451 43.9C41.1776 43.9 40.9176 43.9533 40.671 44.06C40.4243 44.16 40.221 44.32 40.061 44.54C39.9076 44.76 39.831 45.0433 39.831 45.39H43.021C43.0143 45.0233 42.9376 44.7333 42.791 44.52C42.651 44.3 42.4643 44.1433 42.231 44.05C41.9976 43.95 41.7376 43.9 41.451 43.9ZM46.9518 48.6C46.5984 48.6 46.2918 48.56 46.0318 48.48C45.7718 48.3933 45.5551 48.28 45.3818 48.14C45.2084 48 45.0684 47.8367 44.9618 47.65C44.8618 47.4567 44.7918 47.2567 44.7518 47.05H45.6318C45.6784 47.2633 45.8018 47.45 46.0018 47.61C46.2084 47.7633 46.5251 47.84 46.9518 47.84C47.4451 47.84 47.7884 47.7633 47.9818 47.61C48.1751 47.45 48.2718 47.2633 48.2718 47.05C48.2718 46.9033 48.2284 46.7767 48.1418 46.67C48.0618 46.5567 47.9151 46.46 47.7018 46.38C47.4951 46.3 47.1984 46.2333 46.8118 46.18C46.5184 46.14 46.2551 46.0833 46.0218 46.01C45.7884 45.93 45.5884 45.8267 45.4218 45.7C45.2551 45.5733 45.1251 45.42 45.0318 45.24C44.9451 45.06 44.9018 44.8467 44.9018 44.6C44.9018 44.3333 44.9784 44.0867 45.1318 43.86C45.2851 43.6333 45.5151 43.45 45.8218 43.31C46.1284 43.17 46.5051 43.1 46.9518 43.1C47.3718 43.1 47.7184 43.1733 47.9918 43.32C48.2718 43.46 48.4884 43.6467 48.6418 43.88C48.7951 44.1133 48.8984 44.37 48.9518 44.65H48.0718C48.0184 44.4167 47.9051 44.2267 47.7318 44.08C47.5584 43.9333 47.2984 43.86 46.9518 43.86C46.5184 43.86 46.2151 43.9333 46.0418 44.08C45.8684 44.22 45.7818 44.3933 45.7818 44.6C45.7818 44.84 45.8751 45.02 46.0618 45.14C46.2551 45.26 46.6051 45.3533 47.1118 45.42C47.4384 45.46 47.7284 45.52 47.9818 45.6C48.2351 45.6733 48.4484 45.7767 48.6218 45.91C48.7951 46.0367 48.9251 46.1933 49.0118 46.38C49.1051 46.5667 49.1518 46.79 49.1518 47.05C49.1518 47.33 49.0718 47.5867 48.9118 47.82C48.7518 48.0533 48.5084 48.2433 48.1818 48.39C47.8618 48.53 47.4518 48.6 46.9518 48.6Z" fill="#F2F2F2"/>
</svg>
