<svg width="60" height="60" viewBox="0 0 60 60" fill="none" xmlns="http://www.w3.org/2000/svg">
<path d="M29.48 14.499C29.5223 14.3958 29.5943 14.3076 29.6869 14.2455C29.7795 14.1833 29.8885 14.1502 30 14.1502C30.1115 14.1502 30.2205 14.1833 30.3131 14.2455C30.4057 14.3076 30.4777 14.3958 30.52 14.499L32.645 19.61C32.6848 19.7056 32.7501 19.7884 32.834 19.8493C32.9178 19.9102 33.0167 19.9468 33.12 19.955L38.638 20.397C39.137 20.437 39.339 21.06 38.959 21.385L34.755 24.987C34.6764 25.0542 34.6179 25.1417 34.5858 25.24C34.5537 25.3382 34.5493 25.4434 34.573 25.544L35.858 30.929C35.8838 31.037 35.877 31.1503 35.8385 31.2545C35.8 31.3587 35.7315 31.4491 35.6416 31.5144C35.5517 31.5797 35.4445 31.6169 35.3335 31.6212C35.2225 31.6256 35.1127 31.597 35.018 31.539L30.293 28.654C30.2048 28.6001 30.1034 28.5716 30 28.5716C29.8966 28.5716 29.7952 28.6001 29.707 28.654L24.982 31.54C24.8872 31.598 24.7774 31.6266 24.6664 31.6222C24.5554 31.6179 24.4482 31.5807 24.3583 31.5154C24.2685 31.4501 24.1999 31.3597 24.1614 31.2555C24.1229 31.1513 24.1162 31.038 24.142 30.93L25.427 25.544C25.4508 25.4434 25.4464 25.3382 25.4143 25.2399C25.3822 25.1416 25.3236 25.0541 25.245 24.987L21.041 21.385C20.9563 21.3128 20.895 21.2172 20.8647 21.1101C20.8345 21.0031 20.8367 20.8894 20.8711 20.7837C20.9054 20.6779 20.9704 20.5846 21.0578 20.5158C21.1452 20.447 21.2511 20.4056 21.362 20.397L26.88 19.955C26.9832 19.9468 27.0822 19.9102 27.166 19.8493C27.2498 19.7884 27.3152 19.7056 27.355 19.61L29.48 14.499Z" stroke="#3643BD" stroke-linecap="round" stroke-linejoin="round"/>
<path d="M8.39258 47V40H12.8926V40.82H9.33258V42.99H12.5926V43.81H9.33258V46.18H12.8926V47H8.39258ZM15.8961 47.05C15.5294 47.05 15.2294 46.9933 14.9961 46.88C14.7694 46.76 14.6028 46.5767 14.4961 46.33C14.3961 46.0767 14.3461 45.75 14.3461 45.35V40H15.2261V45.35C15.2261 45.6967 15.2828 45.9333 15.3961 46.06C15.5094 46.1867 15.7094 46.25 15.9961 46.25C16.0694 46.25 16.1328 46.25 16.1861 46.25C16.2394 46.2433 16.2928 46.2367 16.3461 46.23V47.01C16.3128 47.0167 16.2661 47.0233 16.2061 47.03C16.1528 47.0367 16.0961 47.04 16.0361 47.04C15.9828 47.0467 15.9361 47.05 15.8961 47.05ZM19.6992 47.1C19.2526 47.1 18.8326 47.0033 18.4392 46.81C18.0526 46.6167 17.7392 46.32 17.4992 45.92C17.2659 45.52 17.1492 45.0133 17.1492 44.4V44.2C17.1492 43.6133 17.2626 43.13 17.4892 42.75C17.7159 42.3633 18.0159 42.0767 18.3892 41.89C18.7626 41.6967 19.1659 41.6 19.5992 41.6C20.3792 41.6 20.9826 41.8133 21.4092 42.24C21.8359 42.6667 22.0492 43.27 22.0492 44.05V44.61H18.0292C18.0292 45.0233 18.1126 45.3533 18.2792 45.6C18.4526 45.8467 18.6659 46.0267 18.9192 46.14C19.1792 46.2467 19.4392 46.3 19.6992 46.3C20.0992 46.3 20.4059 46.2333 20.6192 46.1C20.8392 45.9667 20.9959 45.7833 21.0892 45.55H21.9492C21.8426 46.0567 21.5792 46.4433 21.1592 46.71C20.7459 46.97 20.2592 47.1 19.6992 47.1ZM19.6492 42.4C19.3759 42.4 19.1159 42.4533 18.8692 42.56C18.6226 42.66 18.4192 42.82 18.2592 43.04C18.1059 43.26 18.0292 43.5433 18.0292 43.89H21.2192C21.2126 43.5233 21.1359 43.2333 20.9892 43.02C20.8492 42.8 20.6626 42.6433 20.4292 42.55C20.1959 42.45 19.9359 42.4 19.6492 42.4ZM23.3 47V41.7H24.12V42.7C24.2333 42.3733 24.4267 42.11 24.7 41.91C24.98 41.7033 25.2967 41.6 25.65 41.6C26.11 41.6 26.4633 41.7 26.71 41.9C26.9567 42.0933 27.1267 42.3433 27.22 42.65C27.3933 42.3233 27.6133 42.0667 27.88 41.88C28.1533 41.6933 28.48 41.6 28.86 41.6C29.4067 41.6 29.8333 41.7667 30.14 42.1C30.4467 42.4267 30.6 42.9433 30.6 43.65V47H29.72V43.85C29.72 43.3233 29.6267 42.95 29.44 42.73C29.26 42.51 28.9833 42.4 28.61 42.4C28.3967 42.4 28.1967 42.46 28.01 42.58C27.8233 42.6933 27.6733 42.86 27.56 43.08C27.4467 43.2933 27.39 43.55 27.39 43.85V47H26.51V43.85C26.51 43.3233 26.4167 42.95 26.23 42.73C26.0433 42.51 25.7667 42.4 25.4 42.4C25.1867 42.4 24.9867 42.46 24.8 42.58C24.6133 42.6933 24.4633 42.86 24.35 43.08C24.2367 43.2933 24.18 43.55 24.18 43.85V47H23.3ZM34.3477 47.1C33.901 47.1 33.481 47.0033 33.0877 46.81C32.701 46.6167 32.3877 46.32 32.1477 45.92C31.9143 45.52 31.7977 45.0133 31.7977 44.4V44.2C31.7977 43.6133 31.911 43.13 32.1377 42.75C32.3643 42.3633 32.6643 42.0767 33.0377 41.89C33.411 41.6967 33.8143 41.6 34.2477 41.6C35.0277 41.6 35.631 41.8133 36.0577 42.24C36.4843 42.6667 36.6977 43.27 36.6977 44.05V44.61H32.6777C32.6777 45.0233 32.761 45.3533 32.9277 45.6C33.101 45.8467 33.3143 46.0267 33.5677 46.14C33.8277 46.2467 34.0877 46.3 34.3477 46.3C34.7477 46.3 35.0543 46.2333 35.2677 46.1C35.4877 45.9667 35.6443 45.7833 35.7377 45.55H36.5977C36.491 46.0567 36.2277 46.4433 35.8077 46.71C35.3943 46.97 34.9077 47.1 34.3477 47.1ZM34.2977 42.4C34.0243 42.4 33.7643 42.4533 33.5177 42.56C33.271 42.66 33.0677 42.82 32.9077 43.04C32.7543 43.26 32.6777 43.5433 32.6777 43.89H35.8677C35.861 43.5233 35.7843 43.2333 35.6377 43.02C35.4977 42.8 35.311 42.6433 35.0777 42.55C34.8443 42.45 34.5843 42.4 34.2977 42.4ZM37.9484 47V41.7H38.7684V42.7C38.8884 42.4067 39.0984 42.15 39.3984 41.93C39.7051 41.71 40.0984 41.6 40.5784 41.6C41.2451 41.6 41.7384 41.78 42.0584 42.14C42.3851 42.4933 42.5484 43.0133 42.5484 43.7V47H41.6684V43.9C41.6684 43.4067 41.5651 43.0333 41.3584 42.78C41.1518 42.5267 40.8051 42.4 40.3184 42.4C39.9718 42.4 39.6884 42.4733 39.4684 42.62C39.2484 42.7667 39.0851 42.9533 38.9784 43.18C38.8784 43.4067 38.8284 43.6467 38.8284 43.9V47H37.9484ZM46.0508 47.05C45.6774 47.05 45.3708 46.9933 45.1308 46.88C44.8974 46.7667 44.7241 46.5967 44.6108 46.37C44.5041 46.1367 44.4508 45.8467 44.4508 45.5V42.48H43.6508V41.7H44.4508V40.5H45.3308V41.7H46.7508V42.48H45.3308V45.4C45.3308 45.7 45.3941 45.9167 45.5208 46.05C45.6474 46.1833 45.8908 46.25 46.2508 46.25C46.4508 46.25 46.6508 46.24 46.8508 46.22V47C46.7241 47.0133 46.5974 47.0233 46.4708 47.03C46.3441 47.0433 46.2041 47.05 46.0508 47.05ZM49.9547 47.1C49.6014 47.1 49.2947 47.06 49.0347 46.98C48.7747 46.8933 48.558 46.78 48.3847 46.64C48.2114 46.5 48.0714 46.3367 47.9647 46.15C47.8647 45.9567 47.7947 45.7567 47.7547 45.55H48.6347C48.6814 45.7633 48.8047 45.95 49.0047 46.11C49.2114 46.2633 49.528 46.34 49.9547 46.34C50.448 46.34 50.7914 46.2633 50.9847 46.11C51.178 45.95 51.2747 45.7633 51.2747 45.55C51.2747 45.4033 51.2314 45.2767 51.1447 45.17C51.0647 45.0567 50.918 44.96 50.7047 44.88C50.498 44.8 50.2014 44.7333 49.8147 44.68C49.5214 44.64 49.258 44.5833 49.0247 44.51C48.7914 44.43 48.5914 44.3267 48.4247 44.2C48.258 44.0733 48.128 43.92 48.0347 43.74C47.948 43.56 47.9047 43.3467 47.9047 43.1C47.9047 42.8333 47.9814 42.5867 48.1347 42.36C48.288 42.1333 48.518 41.95 48.8247 41.81C49.1314 41.67 49.508 41.6 49.9547 41.6C50.3747 41.6 50.7214 41.6733 50.9947 41.82C51.2747 41.96 51.4914 42.1467 51.6447 42.38C51.798 42.6133 51.9014 42.87 51.9547 43.15H51.0747C51.0214 42.9167 50.908 42.7267 50.7347 42.58C50.5614 42.4333 50.3014 42.36 49.9547 42.36C49.5214 42.36 49.218 42.4333 49.0447 42.58C48.8714 42.72 48.7847 42.8933 48.7847 43.1C48.7847 43.34 48.878 43.52 49.0647 43.64C49.258 43.76 49.608 43.8533 50.1147 43.92C50.4414 43.96 50.7314 44.02 50.9847 44.1C51.238 44.1733 51.4514 44.2767 51.6247 44.41C51.798 44.5367 51.928 44.6933 52.0147 44.88C52.108 45.0667 52.1547 45.29 52.1547 45.55C52.1547 45.83 52.0747 46.0867 51.9147 46.32C51.7547 46.5533 51.5114 46.7433 51.1847 46.89C50.8647 47.03 50.4547 47.1 49.9547 47.1Z" fill="#20276D"/>
</svg>
