<svg width="60" height="60" viewBox="0 0 60 60" fill="none" xmlns="http://www.w3.org/2000/svg">
<path d="M39.9601 13.007C39.3007 12.3684 38.413 12 37.4239 12H34V13.3263H37.3986C38.0072 13.3263 38.5652 13.5719 38.971 13.9649C39.3768 14.3579 39.6304 14.8982 39.6304 15.4877V19H41V15.4632C41 14.5053 40.5942 13.6456 39.9601 13.007Z" fill="#3643BD"/>
<path d="M21.029 32.0282C20.6232 31.6338 20.3696 31.0916 20.3696 30.5V27H19V30.5246C19 31.4859 19.4058 32.3486 20.0399 32.9894C20.7246 33.6056 21.6123 34 22.6014 34H26V32.669H22.6014C21.9928 32.669 21.4348 32.4225 21.029 32.0282Z" fill="#3643BD"/>
<path d="M39.6255 30.5123C39.6255 31.1018 39.3709 31.6421 38.9636 32.0351C38.5564 32.4281 37.9964 32.6737 37.3855 32.6737H34V34H37.4109C38.4036 34 39.2945 33.607 39.9564 32.993C40.6182 32.3544 41 31.4947 41 30.5368V27H39.6255V30.5123Z" fill="#3643BD"/>
<path d="M20.0399 13.0106C19.3804 13.6514 19 14.5141 19 15.4754V19H20.3696V15.4754C20.3696 14.8838 20.6232 14.3415 21.029 13.9472C21.4348 13.5528 21.9928 13.3063 22.6014 13.3063H26V12H22.5761C21.587 12 20.6993 12.3944 20.0399 13.0106Z" fill="#3643BD"/>
<path d="M13.2754 47V40H17.7754V40.82H14.2154V43.09H17.4754V43.91H14.2154V47H13.2754ZM19.0227 47V41.7H19.8427V42.7C19.9227 42.4867 20.0327 42.3 20.1727 42.14C20.3127 41.9733 20.4827 41.8433 20.6827 41.75C20.8893 41.65 21.1193 41.6 21.3727 41.6C21.506 41.6 21.6127 41.6067 21.6927 41.62C21.7793 41.6333 21.856 41.65 21.9227 41.67V42.49C21.836 42.4567 21.7493 42.4333 21.6627 42.42C21.5827 42.4067 21.4693 42.4 21.3227 42.4C21.056 42.4 20.816 42.4633 20.6027 42.59C20.3893 42.7167 20.2193 42.8933 20.0927 43.12C19.966 43.34 19.9027 43.6 19.9027 43.9V47H19.0227ZM24.4291 47.1C24.0425 47.1 23.7125 47.03 23.4391 46.89C23.1725 46.7433 22.9691 46.5467 22.8291 46.3C22.6891 46.0467 22.6191 45.7633 22.6191 45.45C22.6191 44.9233 22.7725 44.5433 23.0791 44.31C23.3925 44.0767 23.8391 43.96 24.4191 43.96H26.1391V43.6C26.1391 43.1467 26.0358 42.8333 25.8291 42.66C25.6291 42.4867 25.3258 42.4 24.9191 42.4C24.5391 42.4 24.2625 42.4733 24.0891 42.62C23.9158 42.76 23.8191 42.92 23.7991 43.1H22.9191C22.9391 42.8133 23.0358 42.56 23.2091 42.34C23.3825 42.1133 23.6191 41.9333 23.9191 41.8C24.2191 41.6667 24.5691 41.6 24.9691 41.6C25.3891 41.6 25.7525 41.6667 26.0591 41.8C26.3658 41.9267 26.6025 42.13 26.7691 42.41C26.9358 42.6833 27.0191 43.0467 27.0191 43.5V45.65C27.0191 45.93 27.0191 46.1767 27.0191 46.39C27.0258 46.5967 27.0425 46.8 27.0691 47H26.2991C26.2791 46.8467 26.2658 46.7033 26.2591 46.57C26.2525 46.43 26.2491 46.2733 26.2491 46.1C26.1091 46.38 25.8825 46.6167 25.5691 46.81C25.2558 47.0033 24.8758 47.1 24.4291 47.1ZM24.6191 46.3C24.8991 46.3 25.1525 46.25 25.3791 46.15C25.6125 46.05 25.7958 45.9033 25.9291 45.71C26.0691 45.5167 26.1391 45.28 26.1391 45V44.64H24.5691C24.2425 44.64 23.9858 44.7067 23.7991 44.84C23.6125 44.9667 23.5191 45.17 23.5191 45.45C23.5191 45.6967 23.6058 45.9 23.7791 46.06C23.9591 46.22 24.2391 46.3 24.6191 46.3ZM28.5734 47V41.7H29.3934V42.7C29.5068 42.3733 29.7001 42.11 29.9734 41.91C30.2534 41.7033 30.5701 41.6 30.9234 41.6C31.3834 41.6 31.7368 41.7 31.9834 41.9C32.2301 42.0933 32.4001 42.3433 32.4934 42.65C32.6668 42.3233 32.8868 42.0667 33.1534 41.88C33.4268 41.6933 33.7534 41.6 34.1334 41.6C34.6801 41.6 35.1068 41.7667 35.4134 42.1C35.7201 42.4267 35.8734 42.9433 35.8734 43.65V47H34.9934V43.85C34.9934 43.3233 34.9001 42.95 34.7134 42.73C34.5334 42.51 34.2568 42.4 33.8834 42.4C33.6701 42.4 33.4701 42.46 33.2834 42.58C33.0968 42.6933 32.9468 42.86 32.8334 43.08C32.7201 43.2933 32.6634 43.55 32.6634 43.85V47H31.7834V43.85C31.7834 43.3233 31.6901 42.95 31.5034 42.73C31.3168 42.51 31.0401 42.4 30.6734 42.4C30.4601 42.4 30.2601 42.46 30.0734 42.58C29.8868 42.6933 29.7368 42.86 29.6234 43.08C29.5101 43.2933 29.4534 43.55 29.4534 43.85V47H28.5734ZM39.6211 47.1C39.1744 47.1 38.7544 47.0033 38.3611 46.81C37.9744 46.6167 37.6611 46.32 37.4211 45.92C37.1878 45.52 37.0711 45.0133 37.0711 44.4V44.2C37.0711 43.6133 37.1844 43.13 37.4111 42.75C37.6378 42.3633 37.9378 42.0767 38.3111 41.89C38.6844 41.6967 39.0878 41.6 39.5211 41.6C40.3011 41.6 40.9044 41.8133 41.3311 42.24C41.7578 42.6667 41.9711 43.27 41.9711 44.05V44.61H37.9511C37.9511 45.0233 38.0344 45.3533 38.2011 45.6C38.3744 45.8467 38.5878 46.0267 38.8411 46.14C39.1011 46.2467 39.3611 46.3 39.6211 46.3C40.0211 46.3 40.3278 46.2333 40.5411 46.1C40.7611 45.9667 40.9178 45.7833 41.0111 45.55H41.8711C41.7644 46.0567 41.5011 46.4433 41.0811 46.71C40.6678 46.97 40.1811 47.1 39.6211 47.1ZM39.5711 42.4C39.2978 42.4 39.0378 42.4533 38.7911 42.56C38.5444 42.66 38.3411 42.82 38.1811 43.04C38.0278 43.26 37.9511 43.5433 37.9511 43.89H41.1411C41.1344 43.5233 41.0578 43.2333 40.9111 43.02C40.7711 42.8 40.5844 42.6433 40.3511 42.55C40.1178 42.45 39.8578 42.4 39.5711 42.4ZM45.0719 47.1C44.7185 47.1 44.4119 47.06 44.1519 46.98C43.8919 46.8933 43.6752 46.78 43.5019 46.64C43.3285 46.5 43.1885 46.3367 43.0819 46.15C42.9819 45.9567 42.9119 45.7567 42.8719 45.55H43.7519C43.7985 45.7633 43.9219 45.95 44.1219 46.11C44.3285 46.2633 44.6452 46.34 45.0719 46.34C45.5652 46.34 45.9085 46.2633 46.1019 46.11C46.2952 45.95 46.3919 45.7633 46.3919 45.55C46.3919 45.4033 46.3485 45.2767 46.2619 45.17C46.1819 45.0567 46.0352 44.96 45.8219 44.88C45.6152 44.8 45.3185 44.7333 44.9319 44.68C44.6385 44.64 44.3752 44.5833 44.1419 44.51C43.9085 44.43 43.7085 44.3267 43.5419 44.2C43.3752 44.0733 43.2452 43.92 43.1519 43.74C43.0652 43.56 43.0219 43.3467 43.0219 43.1C43.0219 42.8333 43.0985 42.5867 43.2519 42.36C43.4052 42.1333 43.6352 41.95 43.9419 41.81C44.2485 41.67 44.6252 41.6 45.0719 41.6C45.4919 41.6 45.8385 41.6733 46.1119 41.82C46.3919 41.96 46.6085 42.1467 46.7619 42.38C46.9152 42.6133 47.0185 42.87 47.0719 43.15H46.1919C46.1385 42.9167 46.0252 42.7267 45.8519 42.58C45.6785 42.4333 45.4185 42.36 45.0719 42.36C44.6385 42.36 44.3352 42.4333 44.1619 42.58C43.9885 42.72 43.9019 42.8933 43.9019 43.1C43.9019 43.34 43.9952 43.52 44.1819 43.64C44.3752 43.76 44.7252 43.8533 45.2319 43.92C45.5585 43.96 45.8485 44.02 46.1019 44.1C46.3552 44.1733 46.5685 44.2767 46.7419 44.41C46.9152 44.5367 47.0452 44.6933 47.1319 44.88C47.2252 45.0667 47.2719 45.29 47.2719 45.55C47.2719 45.83 47.1919 46.0867 47.0319 46.32C46.8719 46.5533 46.6285 46.7433 46.3019 46.89C45.9819 47.03 45.5719 47.1 45.0719 47.1Z" fill="#20276D"/>
</svg>
