<svg width="60" height="60" viewBox="0 0 60 60" fill="none" xmlns="http://www.w3.org/2000/svg">
<path d="M33.182 27.182C32.7641 27.5999 32.2681 27.9313 31.7221 28.1575C31.1761 28.3836 30.591 28.5 30 28.5C29.409 28.5 28.8239 28.3836 28.2779 28.1575C27.7319 27.9313 27.2359 27.5999 26.818 27.182M39 24C39 25.1819 38.7672 26.3522 38.3149 27.4442C37.8626 28.5361 37.1997 29.5282 36.364 30.364C35.5282 31.1997 34.5361 31.8626 33.4442 32.3149C32.3522 32.7672 31.1819 33 30 33C28.8181 33 27.6478 32.7672 26.5558 32.3149C25.4639 31.8626 24.4718 31.1997 23.636 30.364C22.8003 29.5282 22.1374 28.5361 21.6851 27.4442C21.2328 26.3522 21 25.1819 21 24C21 21.6131 21.9482 19.3239 23.636 17.636C25.3239 15.9482 27.6131 15 30 15C32.3869 15 34.6761 15.9482 36.364 17.636C38.0518 19.3239 39 21.6131 39 24ZM27.75 21.75C27.75 22.164 27.582 22.5 27.375 22.5C27.168 22.5 27 22.164 27 21.75C27 21.336 27.168 21 27.375 21C27.582 21 27.75 21.336 27.75 21.75ZM27.375 21.75H27.383V21.765H27.375V21.75ZM33 21.75C33 22.164 32.832 22.5 32.625 22.5C32.418 22.5 32.25 22.164 32.25 21.75C32.25 21.336 32.418 21 32.625 21C32.832 21 33 21.336 33 21.75ZM32.625 21.75H32.633V21.765H32.625V21.75Z" stroke="#3643BD" stroke-linecap="round" stroke-linejoin="round"/>
<path d="M18.0775 46V39H19.0175V46H18.0775ZM22.9721 46.1C22.5187 46.1 22.1087 46.0033 21.7421 45.81C21.3821 45.61 21.0954 45.31 20.8821 44.91C20.6754 44.51 20.5721 44.0067 20.5721 43.4V43.2C20.5721 42.6267 20.6854 42.1467 20.9121 41.76C21.1387 41.3733 21.4354 41.0833 21.8021 40.89C22.1687 40.6967 22.5587 40.6 22.9721 40.6C23.3921 40.6 23.7521 40.6767 24.0521 40.83C24.3587 40.9767 24.6054 41.18 24.7921 41.44C24.9787 41.6933 25.1054 41.98 25.1721 42.3H24.2721C24.1654 42.0467 24.0154 41.8333 23.8221 41.66C23.6354 41.4867 23.3521 41.4 22.9721 41.4C22.7121 41.4 22.4687 41.4633 22.2421 41.59C22.0154 41.71 21.8287 41.9033 21.6821 42.17C21.5421 42.43 21.4721 42.7733 21.4721 43.2V43.4C21.4721 43.8533 21.5421 44.22 21.6821 44.5C21.8287 44.78 22.0154 44.9833 22.2421 45.11C22.4687 45.2367 22.7121 45.3 22.9721 45.3C23.2987 45.3 23.5721 45.22 23.7921 45.06C24.0187 44.9 24.1787 44.68 24.2721 44.4H25.1721C25.0921 44.7467 24.9487 45.05 24.7421 45.31C24.5354 45.5633 24.2821 45.76 23.9821 45.9C23.6821 46.0333 23.3454 46.1 22.9721 46.1ZM28.5713 46.1C28.1246 46.1 27.7046 46.0033 27.3113 45.81C26.9246 45.61 26.6113 45.31 26.3713 44.91C26.138 44.51 26.0213 44.0067 26.0213 43.4V43.2C26.0213 42.6267 26.138 42.1467 26.3713 41.76C26.6113 41.3733 26.9246 41.0833 27.3113 40.89C27.7046 40.6967 28.1246 40.6 28.5713 40.6C29.0246 40.6 29.4446 40.6967 29.8313 40.89C30.218 41.0833 30.528 41.3733 30.7613 41.76C31.0013 42.1467 31.1213 42.6267 31.1213 43.2V43.4C31.1213 44.0067 31.0013 44.51 30.7613 44.91C30.528 45.31 30.218 45.61 29.8313 45.81C29.4446 46.0033 29.0246 46.1 28.5713 46.1ZM28.5713 45.3C28.8446 45.3 29.1046 45.24 29.3513 45.12C29.6046 44.9933 29.8113 44.79 29.9713 44.51C30.138 44.23 30.2213 43.86 30.2213 43.4V43.2C30.2213 42.7733 30.138 42.43 29.9713 42.17C29.8113 41.9033 29.6046 41.71 29.3513 41.59C29.1046 41.4633 28.8446 41.4 28.5713 41.4C28.3046 41.4 28.0446 41.4633 27.7913 41.59C27.538 41.71 27.328 41.9033 27.1613 42.17C27.0013 42.43 26.9213 42.7733 26.9213 43.2V43.4C26.9213 43.86 27.0013 44.23 27.1613 44.51C27.328 44.79 27.538 44.9933 27.7913 45.12C28.0446 45.24 28.3046 45.3 28.5713 45.3ZM32.3674 46V40.7H33.1874V41.7C33.3074 41.4067 33.5174 41.15 33.8174 40.93C34.124 40.71 34.5174 40.6 34.9974 40.6C35.664 40.6 36.1574 40.78 36.4774 41.14C36.804 41.4933 36.9674 42.0133 36.9674 42.7V46H36.0874V42.9C36.0874 42.4067 35.984 42.0333 35.7774 41.78C35.5707 41.5267 35.224 41.4 34.7374 41.4C34.3907 41.4 34.1074 41.4733 33.8874 41.62C33.6674 41.7667 33.504 41.9533 33.3974 42.18C33.2974 42.4067 33.2474 42.6467 33.2474 42.9V46H32.3674ZM40.3697 46.1C40.0164 46.1 39.7097 46.06 39.4497 45.98C39.1897 45.8933 38.9731 45.78 38.7997 45.64C38.6264 45.5 38.4864 45.3367 38.3797 45.15C38.2797 44.9567 38.2097 44.7567 38.1697 44.55H39.0497C39.0964 44.7633 39.2197 44.95 39.4197 45.11C39.6264 45.2633 39.9431 45.34 40.3697 45.34C40.8631 45.34 41.2064 45.2633 41.3997 45.11C41.5931 44.95 41.6897 44.7633 41.6897 44.55C41.6897 44.4033 41.6464 44.2767 41.5597 44.17C41.4797 44.0567 41.3331 43.96 41.1197 43.88C40.9131 43.8 40.6164 43.7333 40.2297 43.68C39.9364 43.64 39.6731 43.5833 39.4397 43.51C39.2064 43.43 39.0064 43.3267 38.8397 43.2C38.6731 43.0733 38.5431 42.92 38.4497 42.74C38.3631 42.56 38.3197 42.3467 38.3197 42.1C38.3197 41.8333 38.3964 41.5867 38.5497 41.36C38.7031 41.1333 38.9331 40.95 39.2397 40.81C39.5464 40.67 39.9231 40.6 40.3697 40.6C40.7897 40.6 41.1364 40.6733 41.4097 40.82C41.6897 40.96 41.9064 41.1467 42.0597 41.38C42.2131 41.6133 42.3164 41.87 42.3697 42.15H41.4897C41.4364 41.9167 41.3231 41.7267 41.1497 41.58C40.9764 41.4333 40.7164 41.36 40.3697 41.36C39.9364 41.36 39.6331 41.4333 39.4597 41.58C39.2864 41.72 39.1997 41.8933 39.1997 42.1C39.1997 42.34 39.2931 42.52 39.4797 42.64C39.6731 42.76 40.0231 42.8533 40.5297 42.92C40.8564 42.96 41.1464 43.02 41.3997 43.1C41.6531 43.1733 41.8664 43.2767 42.0397 43.41C42.2131 43.5367 42.3431 43.6933 42.4297 43.88C42.5231 44.0667 42.5697 44.29 42.5697 44.55C42.5697 44.83 42.4897 45.0867 42.3297 45.32C42.1697 45.5533 41.9264 45.7433 41.5997 45.89C41.2797 46.03 40.8697 46.1 40.3697 46.1Z" fill="#20276D"/>
</svg>
