<svg width="60" height="60" viewBox="0 0 60 60" fill="none" xmlns="http://www.w3.org/2000/svg">
<rect width="60" height="60" rx="10" fill="#3643BD"/>
<path fill-rule="evenodd" clip-rule="evenodd" d="M30 13.25C24.615 13.25 20.25 17.615 20.25 23C20.25 28.385 24.615 32.75 30 32.75C35.385 32.75 39.75 28.385 39.75 23C39.75 17.615 35.385 13.25 30 13.25ZM27.375 19.25C26.835 19.25 26.547 19.669 26.439 19.884C26.3107 20.1544 26.246 20.4507 26.25 20.75C26.25 21.048 26.309 21.355 26.439 21.616C26.547 21.831 26.834 22.25 27.375 22.25C27.915 22.25 28.203 21.831 28.311 21.616C28.441 21.356 28.5 21.048 28.5 20.75C28.5 20.452 28.441 20.145 28.311 19.884C28.203 19.669 27.916 19.25 27.375 19.25ZM31.689 19.884C31.797 19.669 32.084 19.25 32.625 19.25C33.165 19.25 33.453 19.669 33.561 19.884C33.691 20.144 33.75 20.452 33.75 20.75C33.75 21.048 33.691 21.355 33.561 21.616C33.453 21.831 33.166 22.25 32.625 22.25C32.085 22.25 31.797 21.831 31.689 21.616C31.5607 21.3456 31.496 21.0493 31.5 20.75C31.5 20.452 31.559 20.145 31.689 19.884ZM33.712 26.712C33.7857 26.6433 33.8448 26.5605 33.8858 26.4685C33.9268 26.3765 33.9488 26.2772 33.9506 26.1765C33.9524 26.0758 33.9338 25.9758 33.8961 25.8824C33.8584 25.789 33.8023 25.7042 33.731 25.633C33.6598 25.5617 33.575 25.5056 33.4816 25.4679C33.3882 25.4302 33.2882 25.4116 33.1875 25.4134C33.0868 25.4152 32.9875 25.4372 32.8955 25.4782C32.8035 25.5192 32.7207 25.5783 32.652 25.652C32.3038 26.0003 31.8903 26.2766 31.4353 26.4652C30.9803 26.6537 30.4925 26.7507 30 26.7507C29.5075 26.7507 29.0197 26.6537 28.5647 26.4652C28.1097 26.2766 27.6962 26.0003 27.348 25.652C27.2058 25.5195 27.0178 25.4474 26.8235 25.4508C26.6292 25.4543 26.4438 25.533 26.3064 25.6704C26.169 25.8078 26.0903 25.9932 26.0868 26.1875C26.0834 26.3818 26.1555 26.5698 26.288 26.712C27.2725 27.6964 28.6078 28.2494 30 28.2494C31.3922 28.2494 32.7275 27.6964 33.712 26.712Z" fill="#F2F2F2"/>
<path d="M18.0775 47V40H19.0175V47H18.0775ZM22.9721 47.1C22.5187 47.1 22.1087 47.0033 21.7421 46.81C21.3821 46.61 21.0954 46.31 20.8821 45.91C20.6754 45.51 20.5721 45.0067 20.5721 44.4V44.2C20.5721 43.6267 20.6854 43.1467 20.9121 42.76C21.1387 42.3733 21.4354 42.0833 21.8021 41.89C22.1687 41.6967 22.5587 41.6 22.9721 41.6C23.3921 41.6 23.7521 41.6767 24.0521 41.83C24.3587 41.9767 24.6054 42.18 24.7921 42.44C24.9787 42.6933 25.1054 42.98 25.1721 43.3H24.2721C24.1654 43.0467 24.0154 42.8333 23.8221 42.66C23.6354 42.4867 23.3521 42.4 22.9721 42.4C22.7121 42.4 22.4687 42.4633 22.2421 42.59C22.0154 42.71 21.8287 42.9033 21.6821 43.17C21.5421 43.43 21.4721 43.7733 21.4721 44.2V44.4C21.4721 44.8533 21.5421 45.22 21.6821 45.5C21.8287 45.78 22.0154 45.9833 22.2421 46.11C22.4687 46.2367 22.7121 46.3 22.9721 46.3C23.2987 46.3 23.5721 46.22 23.7921 46.06C24.0187 45.9 24.1787 45.68 24.2721 45.4H25.1721C25.0921 45.7467 24.9487 46.05 24.7421 46.31C24.5354 46.5633 24.2821 46.76 23.9821 46.9C23.6821 47.0333 23.3454 47.1 22.9721 47.1ZM28.5713 47.1C28.1246 47.1 27.7046 47.0033 27.3113 46.81C26.9246 46.61 26.6113 46.31 26.3713 45.91C26.138 45.51 26.0213 45.0067 26.0213 44.4V44.2C26.0213 43.6267 26.138 43.1467 26.3713 42.76C26.6113 42.3733 26.9246 42.0833 27.3113 41.89C27.7046 41.6967 28.1246 41.6 28.5713 41.6C29.0246 41.6 29.4446 41.6967 29.8313 41.89C30.218 42.0833 30.528 42.3733 30.7613 42.76C31.0013 43.1467 31.1213 43.6267 31.1213 44.2V44.4C31.1213 45.0067 31.0013 45.51 30.7613 45.91C30.528 46.31 30.218 46.61 29.8313 46.81C29.4446 47.0033 29.0246 47.1 28.5713 47.1ZM28.5713 46.3C28.8446 46.3 29.1046 46.24 29.3513 46.12C29.6046 45.9933 29.8113 45.79 29.9713 45.51C30.138 45.23 30.2213 44.86 30.2213 44.4V44.2C30.2213 43.7733 30.138 43.43 29.9713 43.17C29.8113 42.9033 29.6046 42.71 29.3513 42.59C29.1046 42.4633 28.8446 42.4 28.5713 42.4C28.3046 42.4 28.0446 42.4633 27.7913 42.59C27.538 42.71 27.328 42.9033 27.1613 43.17C27.0013 43.43 26.9213 43.7733 26.9213 44.2V44.4C26.9213 44.86 27.0013 45.23 27.1613 45.51C27.328 45.79 27.538 45.9933 27.7913 46.12C28.0446 46.24 28.3046 46.3 28.5713 46.3ZM32.3674 47V41.7H33.1874V42.7C33.3074 42.4067 33.5174 42.15 33.8174 41.93C34.124 41.71 34.5174 41.6 34.9974 41.6C35.664 41.6 36.1574 41.78 36.4774 42.14C36.804 42.4933 36.9674 43.0133 36.9674 43.7V47H36.0874V43.9C36.0874 43.4067 35.984 43.0333 35.7774 42.78C35.5707 42.5267 35.224 42.4 34.7374 42.4C34.3907 42.4 34.1074 42.4733 33.8874 42.62C33.6674 42.7667 33.504 42.9533 33.3974 43.18C33.2974 43.4067 33.2474 43.6467 33.2474 43.9V47H32.3674ZM40.3697 47.1C40.0164 47.1 39.7097 47.06 39.4497 46.98C39.1897 46.8933 38.9731 46.78 38.7997 46.64C38.6264 46.5 38.4864 46.3367 38.3797 46.15C38.2797 45.9567 38.2097 45.7567 38.1697 45.55H39.0497C39.0964 45.7633 39.2197 45.95 39.4197 46.11C39.6264 46.2633 39.9431 46.34 40.3697 46.34C40.8631 46.34 41.2064 46.2633 41.3997 46.11C41.5931 45.95 41.6897 45.7633 41.6897 45.55C41.6897 45.4033 41.6464 45.2767 41.5597 45.17C41.4797 45.0567 41.3331 44.96 41.1197 44.88C40.9131 44.8 40.6164 44.7333 40.2297 44.68C39.9364 44.64 39.6731 44.5833 39.4397 44.51C39.2064 44.43 39.0064 44.3267 38.8397 44.2C38.6731 44.0733 38.5431 43.92 38.4497 43.74C38.3631 43.56 38.3197 43.3467 38.3197 43.1C38.3197 42.8333 38.3964 42.5867 38.5497 42.36C38.7031 42.1333 38.9331 41.95 39.2397 41.81C39.5464 41.67 39.9231 41.6 40.3697 41.6C40.7897 41.6 41.1364 41.6733 41.4097 41.82C41.6897 41.96 41.9064 42.1467 42.0597 42.38C42.2131 42.6133 42.3164 42.87 42.3697 43.15H41.4897C41.4364 42.9167 41.3231 42.7267 41.1497 42.58C40.9764 42.4333 40.7164 42.36 40.3697 42.36C39.9364 42.36 39.6331 42.4333 39.4597 42.58C39.2864 42.72 39.1997 42.8933 39.1997 43.1C39.1997 43.34 39.2931 43.52 39.4797 43.64C39.6731 43.76 40.0231 43.8533 40.5297 43.92C40.8564 43.96 41.1464 44.02 41.3997 44.1C41.6531 44.1733 41.8664 44.2767 42.0397 44.41C42.2131 44.5367 42.3431 44.6933 42.4297 44.88C42.5231 45.0667 42.5697 45.29 42.5697 45.55C42.5697 45.83 42.4897 46.0867 42.3297 46.32C42.1697 46.5533 41.9264 46.7433 41.5997 46.89C41.2797 47.03 40.8697 47.1 40.3697 47.1Z" fill="#F2F2F2"/>
</svg>
