<svg width="60" height="60" viewBox="0 0 60 60" fill="none" xmlns="http://www.w3.org/2000/svg">
<rect width="60" height="60" rx="10" fill="#3643BD"/>
<path fill-rule="evenodd" clip-rule="evenodd" d="M19.5 17C19.5 16.4033 19.7371 15.831 20.159 15.409C20.581 14.9871 21.1533 14.75 21.75 14.75H38.25C38.8467 14.75 39.419 14.9871 39.841 15.409C40.2629 15.831 40.5 16.4033 40.5 17V29C40.5 29.5967 40.2629 30.169 39.841 30.591C39.419 31.0129 38.8467 31.25 38.25 31.25H21.75C21.1533 31.25 20.581 31.0129 20.159 30.591C19.7371 30.169 19.5 29.5967 19.5 29V17ZM21 27.06V29C21 29.414 21.336 29.75 21.75 29.75H38.25C38.4489 29.75 38.6397 29.671 38.7803 29.5303C38.921 29.3897 39 29.1989 39 29V27.06L36.31 24.371C36.0287 24.0901 35.6475 23.9323 35.25 23.9323C34.8525 23.9323 34.4713 24.0901 34.19 24.371L33.31 25.25L34.28 26.22C34.3537 26.2887 34.4128 26.3715 34.4538 26.4635C34.4948 26.5555 34.5168 26.6548 34.5186 26.7555C34.5204 26.8562 34.5018 26.9562 34.4641 27.0496C34.4264 27.143 34.3703 27.2278 34.299 27.299C34.2278 27.3703 34.143 27.4264 34.0496 27.4641C33.9562 27.5018 33.8562 27.5204 33.7555 27.5186C33.6548 27.5168 33.5555 27.4948 33.4635 27.4538C33.3715 27.4128 33.2887 27.3537 33.22 27.28L28.06 22.121C27.7787 21.8401 27.3975 21.6823 27 21.6823C26.6025 21.6823 26.2213 21.8401 25.94 22.121L21 27.061V27.06ZM31.125 19.25C31.125 18.9516 31.2435 18.6655 31.4545 18.4545C31.6655 18.2435 31.9516 18.125 32.25 18.125C32.5484 18.125 32.8345 18.2435 33.0455 18.4545C33.2565 18.6655 33.375 18.9516 33.375 19.25C33.375 19.5484 33.2565 19.8345 33.0455 20.0455C32.8345 20.2565 32.5484 20.375 32.25 20.375C31.9516 20.375 31.6655 20.2565 31.4545 20.0455C31.2435 19.8345 31.125 19.5484 31.125 19.25Z" fill="#F2F2F2"/>
<path d="M16.3002 47V40H17.2402V47H16.3002ZM19.1447 47V41.7H19.9647V42.7C20.0781 42.3733 20.2714 42.11 20.5447 41.91C20.8247 41.7033 21.1414 41.6 21.4947 41.6C21.9547 41.6 22.3081 41.7 22.5547 41.9C22.8014 42.0933 22.9714 42.3433 23.0647 42.65C23.2381 42.3233 23.4581 42.0667 23.7247 41.88C23.9981 41.6933 24.3247 41.6 24.7047 41.6C25.2514 41.6 25.6781 41.7667 25.9847 42.1C26.2914 42.4267 26.4447 42.9433 26.4447 43.65V47H25.5647V43.85C25.5647 43.3233 25.4714 42.95 25.2847 42.73C25.1047 42.51 24.8281 42.4 24.4547 42.4C24.2414 42.4 24.0414 42.46 23.8547 42.58C23.6681 42.6933 23.5181 42.86 23.4047 43.08C23.2914 43.2933 23.2347 43.55 23.2347 43.85V47H22.3547V43.85C22.3547 43.3233 22.2614 42.95 22.0747 42.73C21.8881 42.51 21.6114 42.4 21.2447 42.4C21.0314 42.4 20.8314 42.46 20.6447 42.58C20.4581 42.6933 20.3081 42.86 20.1947 43.08C20.0814 43.2933 20.0247 43.55 20.0247 43.85V47H19.1447ZM29.5024 47.1C29.1157 47.1 28.7857 47.03 28.5124 46.89C28.2457 46.7433 28.0424 46.5467 27.9024 46.3C27.7624 46.0467 27.6924 45.7633 27.6924 45.45C27.6924 44.9233 27.8457 44.5433 28.1524 44.31C28.4657 44.0767 28.9124 43.96 29.4924 43.96H31.2124V43.6C31.2124 43.1467 31.109 42.8333 30.9024 42.66C30.7024 42.4867 30.399 42.4 29.9924 42.4C29.6124 42.4 29.3357 42.4733 29.1624 42.62C28.989 42.76 28.8924 42.92 28.8724 43.1H27.9924C28.0124 42.8133 28.109 42.56 28.2824 42.34C28.4557 42.1133 28.6924 41.9333 28.9924 41.8C29.2924 41.6667 29.6424 41.6 30.0424 41.6C30.4624 41.6 30.8257 41.6667 31.1324 41.8C31.439 41.9267 31.6757 42.13 31.8424 42.41C32.009 42.6833 32.0924 43.0467 32.0924 43.5V45.65C32.0924 45.93 32.0924 46.1767 32.0924 46.39C32.099 46.5967 32.1157 46.8 32.1424 47H31.3724C31.3524 46.8467 31.339 46.7033 31.3324 46.57C31.3257 46.43 31.3224 46.2733 31.3224 46.1C31.1824 46.38 30.9557 46.6167 30.6424 46.81C30.329 47.0033 29.949 47.1 29.5024 47.1ZM29.6924 46.3C29.9724 46.3 30.2257 46.25 30.4524 46.15C30.6857 46.05 30.869 45.9033 31.0024 45.71C31.1424 45.5167 31.2124 45.28 31.2124 45V44.64H29.6424C29.3157 44.64 29.059 44.7067 28.8724 44.84C28.6857 44.9667 28.5924 45.17 28.5924 45.45C28.5924 45.6967 28.679 45.9 28.8524 46.06C29.0324 46.22 29.3124 46.3 29.6924 46.3ZM35.7467 49.1C35.2333 49.1 34.8167 49.0333 34.4967 48.9C34.1767 48.7667 33.94 48.5867 33.7867 48.36C33.6333 48.1333 33.5367 47.88 33.4967 47.6H34.4167C34.4833 47.8133 34.61 47.9833 34.7967 48.11C34.9833 48.2367 35.3 48.3 35.7467 48.3C36.2867 48.3 36.6833 48.17 36.9367 47.91C37.19 47.65 37.3167 47.28 37.3167 46.8V45.95C37.1633 46.3033 36.9267 46.5667 36.6067 46.74C36.2933 46.9133 35.9233 47 35.4967 47C35.0633 47 34.68 46.9 34.3467 46.7C34.0133 46.5 33.7533 46.2033 33.5667 45.81C33.3867 45.4167 33.2967 44.93 33.2967 44.35V44.15C33.2967 43.6033 33.39 43.1433 33.5767 42.77C33.77 42.39 34.03 42.1 34.3567 41.9C34.69 41.7 35.07 41.6 35.4967 41.6C35.95 41.6 36.3433 41.7033 36.6767 41.91C37.01 42.11 37.2433 42.3733 37.3767 42.7V41.7H38.1967V46.8C38.1967 47.52 37.9867 48.0833 37.5667 48.49C37.1467 48.8967 36.54 49.1 35.7467 49.1ZM35.6967 46.22C36.0167 46.22 36.2967 46.1533 36.5367 46.02C36.7833 45.8867 36.9733 45.7033 37.1067 45.47C37.2467 45.23 37.3167 44.9567 37.3167 44.65V43.85C37.3167 43.5767 37.2467 43.33 37.1067 43.11C36.9733 42.89 36.7833 42.7133 36.5367 42.58C36.2967 42.4467 36.0167 42.38 35.6967 42.38C35.27 42.38 34.91 42.5367 34.6167 42.85C34.3233 43.1633 34.1767 43.5967 34.1767 44.15V44.35C34.1767 44.9567 34.3233 45.42 34.6167 45.74C34.91 46.06 35.27 46.22 35.6967 46.22ZM41.999 47.1C41.5524 47.1 41.1324 47.0033 40.739 46.81C40.3524 46.6167 40.039 46.32 39.799 45.92C39.5657 45.52 39.449 45.0133 39.449 44.4V44.2C39.449 43.6133 39.5624 43.13 39.789 42.75C40.0157 42.3633 40.3157 42.0767 40.689 41.89C41.0624 41.6967 41.4657 41.6 41.899 41.6C42.679 41.6 43.2824 41.8133 43.709 42.24C44.1357 42.6667 44.349 43.27 44.349 44.05V44.61H40.329C40.329 45.0233 40.4124 45.3533 40.579 45.6C40.7524 45.8467 40.9657 46.0267 41.219 46.14C41.479 46.2467 41.739 46.3 41.999 46.3C42.399 46.3 42.7057 46.2333 42.919 46.1C43.139 45.9667 43.2957 45.7833 43.389 45.55H44.249C44.1424 46.0567 43.879 46.4433 43.459 46.71C43.0457 46.97 42.559 47.1 41.999 47.1ZM41.949 42.4C41.6757 42.4 41.4157 42.4533 41.169 42.56C40.9224 42.66 40.719 42.82 40.559 43.04C40.4057 43.26 40.329 43.5433 40.329 43.89H43.519C43.5124 43.5233 43.4357 43.2333 43.289 43.02C43.149 42.8 42.9624 42.6433 42.729 42.55C42.4957 42.45 42.2357 42.4 41.949 42.4Z" fill="#F2F2F2"/>
</svg>
