<svg width="60" height="60" viewBox="0 0 60 60" fill="none" xmlns="http://www.w3.org/2000/svg">
<rect width="60" height="60" rx="10" fill="#3643BD"/>
<path d="M21.75 15.875C21.75 15.254 22.254 14.75 22.875 14.75H27.375C27.996 14.75 28.5 15.254 28.5 15.875V20.375C28.5 20.996 27.996 21.5 27.375 21.5H22.875C22.5766 21.5 22.2905 21.3815 22.0795 21.1705C21.8685 20.9595 21.75 20.6734 21.75 20.375V15.875ZM21.75 25.625C21.75 25.004 22.254 24.5 22.875 24.5H27.375C27.996 24.5 28.5 25.004 28.5 25.625V30.125C28.5 30.746 27.996 31.25 27.375 31.25H22.875C22.5766 31.25 22.2905 31.1315 22.0795 30.9205C21.8685 30.7095 21.75 30.4234 21.75 30.125V25.625ZM31.5 15.875C31.5 15.254 32.004 14.75 32.625 14.75H37.125C37.746 14.75 38.25 15.254 38.25 15.875V20.375C38.25 20.996 37.746 21.5 37.125 21.5H32.625C32.3266 21.5 32.0405 21.3815 31.8295 21.1705C31.6185 20.9595 31.5 20.6734 31.5 20.375V15.875Z" stroke="#F2F2F2" stroke-width="1.5" stroke-linecap="round" stroke-linejoin="round"/>
<path d="M24.75 17.75H25.5V18.5H24.75V17.75ZM24.75 27.5H25.5V28.25H24.75V27.5ZM34.5 17.75H35.25V18.5H34.5V17.75ZM31.5 24.5H32.25V25.25H31.5V24.5ZM31.5 30.5H32.25V31.25H31.5V30.5ZM37.5 24.5H38.25V25.25H37.5V24.5ZM37.5 30.5H38.25V31.25H37.5V30.5ZM34.5 27.5H35.25V28.25H34.5V27.5Z" stroke="#F2F2F2" stroke-width="1.5" stroke-linecap="round" stroke-linejoin="round"/>
<path d="M12.9773 47.1C12.5773 47.1 12.1907 47.0333 11.8173 46.9C11.4507 46.76 11.1207 46.5467 10.8273 46.26C10.534 45.9733 10.3007 45.6067 10.1273 45.16C9.96068 44.7133 9.87734 44.1767 9.87734 43.55V43.35C9.87734 42.75 9.96068 42.2333 10.1273 41.8C10.3007 41.3667 10.534 41.01 10.8273 40.73C11.1207 40.4433 11.4507 40.2333 11.8173 40.1C12.1907 39.9667 12.5773 39.9 12.9773 39.9C13.3773 39.9 13.7607 39.9667 14.1273 40.1C14.5007 40.2333 14.834 40.4433 15.1273 40.73C15.4207 41.01 15.6507 41.3667 15.8173 41.8C15.9907 42.2333 16.0773 42.75 16.0773 43.35V43.55C16.0773 44.1167 16.0073 44.6067 15.8673 45.02C15.7273 45.4267 15.5407 45.7733 15.3073 46.06L15.9773 46.73L15.4073 47.3L14.7073 46.61C14.454 46.7767 14.1807 46.9 13.8873 46.98C13.594 47.06 13.2907 47.1 12.9773 47.1ZM12.9773 46.26C13.1707 46.26 13.3573 46.2367 13.5373 46.19C13.724 46.1367 13.8973 46.06 14.0573 45.96L12.9773 44.87L13.5473 44.3L14.6273 45.39C14.7673 45.1767 14.8773 44.92 14.9573 44.62C15.0373 44.3133 15.0773 43.9567 15.0773 43.55V43.35C15.0773 42.7367 14.9773 42.24 14.7773 41.86C14.5773 41.4733 14.3173 41.19 13.9973 41.01C13.684 40.83 13.344 40.74 12.9773 40.74C12.6173 40.74 12.2773 40.83 11.9573 41.01C11.6373 41.19 11.3773 41.4733 11.1773 41.86C10.9773 42.24 10.8773 42.7367 10.8773 43.35V43.55C10.8773 44.1967 10.9773 44.72 11.1773 45.12C11.3773 45.52 11.6373 45.81 11.9573 45.99C12.2773 46.17 12.6173 46.26 12.9773 46.26ZM17.6797 47V40H20.1297C20.7164 40 21.203 40.0933 21.5897 40.28C21.983 40.46 22.2797 40.71 22.4797 41.03C22.6797 41.3433 22.7797 41.7 22.7797 42.1C22.7797 42.5667 22.6397 42.9767 22.3597 43.33C22.0864 43.6767 21.6797 43.92 21.1397 44.06L22.9797 47H21.8697L20.1997 44.18H18.6197V47H17.6797ZM18.6197 43.38H20.0297C20.6764 43.38 21.1397 43.2633 21.4197 43.03C21.6997 42.79 21.8397 42.48 21.8397 42.1C21.8397 41.72 21.6997 41.4133 21.4197 41.18C21.1397 40.94 20.6764 40.82 20.0297 40.82H18.6197V43.38ZM29.5266 47.1C29.0066 47.1 28.5232 46.9767 28.0766 46.73C27.6299 46.4833 27.2666 46.1 26.9866 45.58C26.7132 45.0533 26.5766 44.3767 26.5766 43.55V43.35C26.5766 42.75 26.6566 42.2333 26.8166 41.8C26.9766 41.3667 27.1932 41.01 27.4666 40.73C27.7399 40.45 28.0532 40.2433 28.4066 40.11C28.7666 39.97 29.1399 39.9 29.5266 39.9C29.9066 39.9 30.2532 39.95 30.5666 40.05C30.8866 40.15 31.1666 40.2933 31.4066 40.48C31.6466 40.6667 31.8399 40.8967 31.9866 41.17C32.1399 41.4433 32.2366 41.7533 32.2766 42.1H31.2766C31.1832 41.6467 30.9866 41.3067 30.6866 41.08C30.3866 40.8533 29.9999 40.74 29.5266 40.74C29.1999 40.74 28.8866 40.8233 28.5866 40.99C28.2866 41.1567 28.0432 41.4333 27.8566 41.82C27.6699 42.2 27.5766 42.71 27.5766 43.35V43.55C27.5766 44.0567 27.6332 44.4833 27.7466 44.83C27.8666 45.1767 28.0232 45.4567 28.2166 45.67C28.4099 45.8767 28.6199 46.0267 28.8466 46.12C29.0799 46.2133 29.3066 46.26 29.5266 46.26C30.0466 46.26 30.4532 46.1333 30.7466 45.88C31.0399 45.6267 31.2166 45.3 31.2766 44.9H32.2766C32.2232 45.2867 32.1166 45.62 31.9566 45.9C31.7966 46.18 31.5932 46.41 31.3466 46.59C31.1066 46.7633 30.8299 46.8933 30.5166 46.98C30.2099 47.06 29.8799 47.1 29.5266 47.1ZM35.7734 47.1C35.3268 47.1 34.9068 47.0033 34.5134 46.81C34.1268 46.61 33.8134 46.31 33.5734 45.91C33.3401 45.51 33.2234 45.0067 33.2234 44.4V44.2C33.2234 43.6267 33.3401 43.1467 33.5734 42.76C33.8134 42.3733 34.1268 42.0833 34.5134 41.89C34.9068 41.6967 35.3268 41.6 35.7734 41.6C36.2268 41.6 36.6468 41.6967 37.0334 41.89C37.4201 42.0833 37.7301 42.3733 37.9634 42.76C38.2034 43.1467 38.3234 43.6267 38.3234 44.2V44.4C38.3234 45.0067 38.2034 45.51 37.9634 45.91C37.7301 46.31 37.4201 46.61 37.0334 46.81C36.6468 47.0033 36.2268 47.1 35.7734 47.1ZM35.7734 46.3C36.0468 46.3 36.3068 46.24 36.5534 46.12C36.8068 45.9933 37.0134 45.79 37.1734 45.51C37.3401 45.23 37.4234 44.86 37.4234 44.4V44.2C37.4234 43.7733 37.3401 43.43 37.1734 43.17C37.0134 42.9033 36.8068 42.71 36.5534 42.59C36.3068 42.4633 36.0468 42.4 35.7734 42.4C35.5068 42.4 35.2468 42.4633 34.9934 42.59C34.7401 42.71 34.5301 42.9033 34.3634 43.17C34.2034 43.43 34.1234 43.7733 34.1234 44.2V44.4C34.1234 44.86 34.2034 45.23 34.3634 45.51C34.5301 45.79 34.7401 45.9933 34.9934 46.12C35.2468 46.24 35.5068 46.3 35.7734 46.3ZM41.4195 47.1C40.9862 47.1 40.6029 47 40.2695 46.8C39.9362 46.6 39.6762 46.3 39.4895 45.9C39.3095 45.5 39.2195 45 39.2195 44.4V44.2C39.2195 43.64 39.3129 43.1667 39.4995 42.78C39.6929 42.3933 39.9529 42.1 40.2795 41.9C40.6129 41.7 40.9929 41.6 41.4195 41.6C41.8462 41.6 42.2162 41.6933 42.5295 41.88C42.8495 42.0667 43.0862 42.3233 43.2395 42.65V40H44.1195V47H43.2995V46C43.1662 46.3267 42.9329 46.5933 42.5995 46.8C42.2662 47 41.8729 47.1 41.4195 47.1ZM41.6195 46.32C41.9395 46.32 42.2195 46.2533 42.4595 46.12C42.7062 45.98 42.8962 45.79 43.0295 45.55C43.1695 45.3033 43.2395 45.02 43.2395 44.7V43.9C43.2395 43.6133 43.1695 43.3567 43.0295 43.13C42.8962 42.8967 42.7062 42.7133 42.4595 42.58C42.2195 42.4467 41.9395 42.38 41.6195 42.38C41.1929 42.38 40.8329 42.54 40.5395 42.86C40.2462 43.1733 40.0995 43.62 40.0995 44.2V44.4C40.0995 45.0267 40.2462 45.5033 40.5395 45.83C40.8329 46.1567 41.1929 46.32 41.6195 46.32ZM47.9219 47.1C47.4752 47.1 47.0552 47.0033 46.6619 46.81C46.2752 46.6167 45.9619 46.32 45.7219 45.92C45.4885 45.52 45.3719 45.0133 45.3719 44.4V44.2C45.3719 43.6133 45.4852 43.13 45.7119 42.75C45.9385 42.3633 46.2385 42.0767 46.6119 41.89C46.9852 41.6967 47.3885 41.6 47.8219 41.6C48.6019 41.6 49.2052 41.8133 49.6319 42.24C50.0585 42.6667 50.2719 43.27 50.2719 44.05V44.61H46.2519C46.2519 45.0233 46.3352 45.3533 46.5019 45.6C46.6752 45.8467 46.8885 46.0267 47.1419 46.14C47.4019 46.2467 47.6619 46.3 47.9219 46.3C48.3219 46.3 48.6285 46.2333 48.8419 46.1C49.0619 45.9667 49.2185 45.7833 49.3119 45.55H50.1719C50.0652 46.0567 49.8019 46.4433 49.3819 46.71C48.9685 46.97 48.4819 47.1 47.9219 47.1ZM47.8719 42.4C47.5985 42.4 47.3385 42.4533 47.0919 42.56C46.8452 42.66 46.6419 42.82 46.4819 43.04C46.3285 43.26 46.2519 43.5433 46.2519 43.89H49.4419C49.4352 43.5233 49.3585 43.2333 49.2119 43.02C49.0719 42.8 48.8852 42.6433 48.6519 42.55C48.4185 42.45 48.1585 42.4 47.8719 42.4Z" fill="#F2F2F2"/>
</svg>
