<svg width="60" height="60" viewBox="0 0 60 60" fill="none" xmlns="http://www.w3.org/2000/svg">
<rect width="60" height="60" rx="10" fill="#3643BD"/>
<path fill-rule="evenodd" clip-rule="evenodd" d="M29.828 13.25C28.912 13.25 28.129 13.913 27.978 14.817L27.887 15.366C27.8618 15.5038 27.8007 15.6325 27.71 15.7393C27.6192 15.846 27.502 15.927 27.37 15.974C27.2084 16.0344 27.049 16.1005 26.892 16.172C26.7654 16.2322 26.6252 16.258 26.4854 16.2467C26.3457 16.2355 26.2114 16.1876 26.096 16.108L25.643 15.784C25.2818 15.5259 24.8407 15.4044 24.3983 15.441C23.9559 15.4776 23.5409 15.6701 23.227 15.984L22.984 16.227C22.6701 16.5409 22.4776 16.9559 22.441 17.3983C22.4044 17.8407 22.5259 18.2818 22.784 18.643L23.108 19.096C23.1876 19.2114 23.2355 19.3457 23.2467 19.4854C23.258 19.6252 23.2322 19.7654 23.172 19.892C23.1005 20.049 23.0344 20.2084 22.974 20.37C22.927 20.502 22.846 20.6192 22.7393 20.71C22.6325 20.8007 22.5038 20.8618 22.366 20.887L21.816 20.979C21.3784 21.0521 20.9809 21.278 20.6942 21.6166C20.4075 21.9551 20.2501 22.3844 20.25 22.828V23.172C20.25 24.088 20.913 24.871 21.817 25.022L22.366 25.113C22.647 25.16 22.874 25.363 22.974 25.63C23.034 25.792 23.101 25.951 23.172 26.108C23.2322 26.2346 23.258 26.3748 23.2467 26.5146C23.2355 26.6543 23.1876 26.7886 23.108 26.904L22.784 27.357C22.5259 27.7182 22.4044 28.1593 22.441 28.6017C22.4776 29.0441 22.6701 29.4591 22.984 29.773L23.227 30.016C23.875 30.664 24.897 30.749 25.643 30.216L26.096 29.892C26.2114 29.8124 26.3457 29.7645 26.4854 29.7533C26.6252 29.742 26.7654 29.7678 26.892 29.828C27.049 29.899 27.208 29.965 27.37 30.026C27.637 30.126 27.84 30.353 27.887 30.634L27.979 31.184C28.129 32.087 28.911 32.75 29.828 32.75H30.172C31.088 32.75 31.871 32.087 32.022 31.183L32.113 30.634C32.1382 30.4962 32.1993 30.3675 32.29 30.2607C32.3808 30.154 32.498 30.073 32.63 30.026C32.7916 29.9655 32.951 29.8995 33.108 29.828C33.2346 29.7678 33.3748 29.742 33.5146 29.7533C33.6543 29.7645 33.7886 29.8124 33.904 29.892L34.357 30.216C34.7182 30.4741 35.1593 30.5956 35.6017 30.559C36.0441 30.5224 36.4591 30.3299 36.773 30.016L37.016 29.773C37.664 29.125 37.749 28.103 37.216 27.357L36.892 26.904C36.8124 26.7886 36.7645 26.6543 36.7533 26.5146C36.742 26.3748 36.7678 26.2346 36.828 26.108C36.899 25.951 36.965 25.792 37.026 25.63C37.126 25.363 37.353 25.16 37.634 25.113L38.184 25.022C38.6218 24.9489 39.0194 24.7228 39.3061 24.3841C39.5929 24.0453 39.7502 23.6158 39.75 23.172V22.828C39.75 21.912 39.087 21.129 38.183 20.978L37.634 20.887C37.4962 20.8618 37.3675 20.8007 37.2607 20.71C37.154 20.6192 37.073 20.502 37.026 20.37C36.9655 20.2084 36.8995 20.049 36.828 19.892C36.7678 19.7654 36.742 19.6252 36.7533 19.4854C36.7645 19.3457 36.8124 19.2114 36.892 19.096L37.216 18.643C37.4741 18.2818 37.5956 17.8407 37.559 17.3983C37.5224 16.9559 37.3299 16.5409 37.016 16.227L36.773 15.984C36.4591 15.6701 36.0441 15.4776 35.6017 15.441C35.1593 15.4044 34.7182 15.5259 34.357 15.784L33.904 16.108C33.7886 16.1876 33.6543 16.2355 33.5146 16.2467C33.3748 16.258 33.2346 16.2322 33.108 16.172C32.951 16.1005 32.7916 16.0345 32.63 15.974C32.498 15.927 32.3808 15.846 32.29 15.7393C32.1993 15.6325 32.1382 15.5038 32.113 15.366L32.022 14.816C31.9489 14.3782 31.7228 13.9806 31.3841 13.6939C31.0453 13.4071 30.6158 13.2498 30.172 13.25H29.828ZM30 26.75C30.9946 26.75 31.9484 26.3549 32.6517 25.6517C33.3549 24.9484 33.75 23.9946 33.75 23C33.75 22.0054 33.3549 21.0516 32.6517 20.3483C31.9484 19.6451 30.9946 19.25 30 19.25C29.0054 19.25 28.0516 19.6451 27.3483 20.3483C26.6451 21.0516 26.25 22.0054 26.25 23C26.25 23.9946 26.6451 24.9484 27.3483 25.6517C28.0516 26.3549 29.0054 26.75 30 26.75Z" fill="#F2F2F2"/>
<path d="M12.9559 47.1C12.3959 47.1 11.9292 47.0133 11.5559 46.84C11.1892 46.6667 10.9059 46.4333 10.7059 46.14C10.5059 45.84 10.3725 45.51 10.3059 45.15H11.2459C11.3192 45.4567 11.4859 45.72 11.7459 45.94C12.0059 46.1533 12.4092 46.26 12.9559 46.26C13.5159 46.26 13.9392 46.1533 14.2259 45.94C14.5192 45.7267 14.6659 45.4633 14.6659 45.15C14.6659 44.89 14.6059 44.6833 14.4859 44.53C14.3659 44.37 14.1659 44.2367 13.8859 44.13C13.6125 44.0167 13.2392 43.9067 12.7659 43.8C12.2459 43.6867 11.8192 43.5533 11.4859 43.4C11.1525 43.2467 10.9059 43.04 10.7459 42.78C10.5859 42.52 10.5059 42.1767 10.5059 41.75C10.5059 41.4033 10.6025 41.0933 10.7959 40.82C10.9959 40.54 11.2792 40.3167 11.6459 40.15C12.0125 39.9833 12.4492 39.9 12.9559 39.9C13.4559 39.9 13.8725 39.9833 14.2059 40.15C14.5392 40.3167 14.7992 40.54 14.9859 40.82C15.1725 41.0933 15.2959 41.4033 15.3559 41.75H14.4159C14.3492 41.47 14.2059 41.2333 13.9859 41.04C13.7725 40.84 13.4292 40.74 12.9559 40.74C12.4759 40.74 12.1025 40.84 11.8359 41.04C11.5759 41.2333 11.4459 41.47 11.4459 41.75C11.4459 42.1167 11.5825 42.3867 11.8559 42.56C12.1292 42.7267 12.5659 42.8767 13.1659 43.01C13.5992 43.1033 13.9692 43.21 14.2759 43.33C14.5892 43.45 14.8425 43.5933 15.0359 43.76C15.2359 43.92 15.3792 44.1133 15.4659 44.34C15.5592 44.5667 15.6059 44.8367 15.6059 45.15C15.6059 45.51 15.4992 45.84 15.2859 46.14C15.0792 46.4333 14.7792 46.6667 14.3859 46.84C13.9925 47.0133 13.5159 47.1 12.9559 47.1ZM19.1523 47.1C18.7057 47.1 18.2857 47.0033 17.8923 46.81C17.5057 46.6167 17.1923 46.32 16.9523 45.92C16.719 45.52 16.6023 45.0133 16.6023 44.4V44.2C16.6023 43.6133 16.7157 43.13 16.9423 42.75C17.169 42.3633 17.469 42.0767 17.8423 41.89C18.2157 41.6967 18.619 41.6 19.0523 41.6C19.8323 41.6 20.4357 41.8133 20.8623 42.24C21.289 42.6667 21.5023 43.27 21.5023 44.05V44.61H17.4823C17.4823 45.0233 17.5657 45.3533 17.7323 45.6C17.9057 45.8467 18.119 46.0267 18.3723 46.14C18.6323 46.2467 18.8923 46.3 19.1523 46.3C19.5523 46.3 19.859 46.2333 20.0723 46.1C20.2923 45.9667 20.449 45.7833 20.5423 45.55H21.4023C21.2957 46.0567 21.0323 46.4433 20.6123 46.71C20.199 46.97 19.7123 47.1 19.1523 47.1ZM19.1023 42.4C18.829 42.4 18.569 42.4533 18.3223 42.56C18.0757 42.66 17.8723 42.82 17.7123 43.04C17.559 43.26 17.4823 43.5433 17.4823 43.89H20.6723C20.6657 43.5233 20.589 43.2333 20.4423 43.02C20.3023 42.8 20.1157 42.6433 19.8823 42.55C19.649 42.45 19.389 42.4 19.1023 42.4ZM24.7031 47.05C24.3298 47.05 24.0231 46.9933 23.7831 46.88C23.5498 46.7667 23.3765 46.5967 23.2631 46.37C23.1565 46.1367 23.1031 45.8467 23.1031 45.5V42.48H22.3031V41.7H23.1031V40.5H23.9831V41.7H25.4031V42.48H23.9831V45.4C23.9831 45.7 24.0465 45.9167 24.1731 46.05C24.2998 46.1833 24.5431 46.25 24.9031 46.25C25.1031 46.25 25.3031 46.24 25.5031 46.22V47C25.3765 47.0133 25.2498 47.0233 25.1231 47.03C24.9965 47.0433 24.8565 47.05 24.7031 47.05ZM28.707 47.05C28.3337 47.05 28.027 46.9933 27.787 46.88C27.5537 46.7667 27.3804 46.5967 27.267 46.37C27.1604 46.1367 27.107 45.8467 27.107 45.5V42.48H26.307V41.7H27.107V40.5H27.987V41.7H29.407V42.48H27.987V45.4C27.987 45.7 28.0504 45.9167 28.177 46.05C28.3037 46.1833 28.547 46.25 28.907 46.25C29.107 46.25 29.307 46.24 29.507 46.22V47C29.3804 47.0133 29.2537 47.0233 29.127 47.03C29.0004 47.0433 28.8604 47.05 28.707 47.05ZM30.8609 47V41.7H31.7409V47H30.8609ZM31.3009 41C31.1276 41 30.9843 40.9433 30.8709 40.83C30.7576 40.7167 30.7009 40.5733 30.7009 40.4C30.7009 40.2267 30.7576 40.0833 30.8709 39.97C30.9843 39.8567 31.1276 39.8 31.3009 39.8C31.4743 39.8 31.6176 39.8567 31.7309 39.97C31.8443 40.0833 31.9009 40.2267 31.9009 40.4C31.9009 40.5733 31.8443 40.7167 31.7309 40.83C31.6176 40.9433 31.4743 41 31.3009 41ZM33.4367 47V41.7H34.2567V42.7C34.3767 42.4067 34.5867 42.15 34.8867 41.93C35.1934 41.71 35.5867 41.6 36.0667 41.6C36.7334 41.6 37.2267 41.78 37.5467 42.14C37.8734 42.4933 38.0367 43.0133 38.0367 43.7V47H37.1567V43.9C37.1567 43.4067 37.0534 43.0333 36.8467 42.78C36.6401 42.5267 36.2934 42.4 35.8067 42.4C35.4601 42.4 35.1767 42.4733 34.9567 42.62C34.7367 42.7667 34.5734 42.9533 34.4667 43.18C34.3667 43.4067 34.3167 43.6467 34.3167 43.9V47H33.4367ZM41.6891 49.1C41.1757 49.1 40.7591 49.0333 40.4391 48.9C40.1191 48.7667 39.8824 48.5867 39.7291 48.36C39.5757 48.1333 39.4791 47.88 39.4391 47.6H40.3591C40.4257 47.8133 40.5524 47.9833 40.7391 48.11C40.9257 48.2367 41.2424 48.3 41.6891 48.3C42.2291 48.3 42.6257 48.17 42.8791 47.91C43.1324 47.65 43.2591 47.28 43.2591 46.8V45.95C43.1057 46.3033 42.8691 46.5667 42.5491 46.74C42.2357 46.9133 41.8657 47 41.4391 47C41.0057 47 40.6224 46.9 40.2891 46.7C39.9557 46.5 39.6957 46.2033 39.5091 45.81C39.3291 45.4167 39.2391 44.93 39.2391 44.35V44.15C39.2391 43.6033 39.3324 43.1433 39.5191 42.77C39.7124 42.39 39.9724 42.1 40.2991 41.9C40.6324 41.7 41.0124 41.6 41.4391 41.6C41.8924 41.6 42.2857 41.7033 42.6191 41.91C42.9524 42.11 43.1857 42.3733 43.3191 42.7V41.7H44.1391V46.8C44.1391 47.52 43.9291 48.0833 43.5091 48.49C43.0891 48.8967 42.4824 49.1 41.6891 49.1ZM41.6391 46.22C41.9591 46.22 42.2391 46.1533 42.4791 46.02C42.7257 45.8867 42.9157 45.7033 43.0491 45.47C43.1891 45.23 43.2591 44.9567 43.2591 44.65V43.85C43.2591 43.5767 43.1891 43.33 43.0491 43.11C42.9157 42.89 42.7257 42.7133 42.4791 42.58C42.2391 42.4467 41.9591 42.38 41.6391 42.38C41.2124 42.38 40.8524 42.5367 40.5591 42.85C40.2657 43.1633 40.1191 43.5967 40.1191 44.15V44.35C40.1191 44.9567 40.2657 45.42 40.5591 45.74C40.8524 46.06 41.2124 46.22 41.6391 46.22ZM47.5914 47.1C47.2381 47.1 46.9314 47.06 46.6714 46.98C46.4114 46.8933 46.1947 46.78 46.0214 46.64C45.8481 46.5 45.7081 46.3367 45.6014 46.15C45.5014 45.9567 45.4314 45.7567 45.3914 45.55H46.2714C46.3181 45.7633 46.4414 45.95 46.6414 46.11C46.8481 46.2633 47.1647 46.34 47.5914 46.34C48.0847 46.34 48.4281 46.2633 48.6214 46.11C48.8147 45.95 48.9114 45.7633 48.9114 45.55C48.9114 45.4033 48.8681 45.2767 48.7814 45.17C48.7014 45.0567 48.5547 44.96 48.3414 44.88C48.1347 44.8 47.8381 44.7333 47.4514 44.68C47.1581 44.64 46.8947 44.5833 46.6614 44.51C46.4281 44.43 46.2281 44.3267 46.0614 44.2C45.8947 44.0733 45.7647 43.92 45.6714 43.74C45.5847 43.56 45.5414 43.3467 45.5414 43.1C45.5414 42.8333 45.6181 42.5867 45.7714 42.36C45.9247 42.1333 46.1547 41.95 46.4614 41.81C46.7681 41.67 47.1447 41.6 47.5914 41.6C48.0114 41.6 48.3581 41.6733 48.6314 41.82C48.9114 41.96 49.1281 42.1467 49.2814 42.38C49.4347 42.6133 49.5381 42.87 49.5914 43.15H48.7114C48.6581 42.9167 48.5447 42.7267 48.3714 42.58C48.1981 42.4333 47.9381 42.36 47.5914 42.36C47.1581 42.36 46.8547 42.4333 46.6814 42.58C46.5081 42.72 46.4214 42.8933 46.4214 43.1C46.4214 43.34 46.5147 43.52 46.7014 43.64C46.8947 43.76 47.2447 43.8533 47.7514 43.92C48.0781 43.96 48.3681 44.02 48.6214 44.1C48.8747 44.1733 49.0881 44.2767 49.2614 44.41C49.4347 44.5367 49.5647 44.6933 49.6514 44.88C49.7447 45.0667 49.7914 45.29 49.7914 45.55C49.7914 45.83 49.7114 46.0867 49.5514 46.32C49.3914 46.5533 49.1481 46.7433 48.8214 46.89C48.5014 47.03 48.0914 47.1 47.5914 47.1Z" fill="#F2F2F2"/>
</svg>
