<svg width="60" height="60" viewBox="0 0 60 60" fill="none" xmlns="http://www.w3.org/2000/svg">
<path d="M28.343 14.94C28.433 14.398 28.903 14 29.453 14H30.546C31.096 14 31.566 14.398 31.656 14.94L31.805 15.834C31.875 16.258 32.189 16.598 32.585 16.764C32.983 16.928 33.44 16.906 33.79 16.656L34.527 16.129C34.7438 15.9741 35.0085 15.9011 35.274 15.923C35.5396 15.945 35.7887 16.0605 35.977 16.249L36.75 17.023C37.14 17.412 37.19 18.025 36.87 18.473L36.343 19.21C36.093 19.56 36.071 20.016 36.236 20.414C36.401 20.811 36.741 21.124 37.166 21.194L38.059 21.344C38.602 21.434 38.999 21.903 38.999 22.453V23.547C38.999 24.097 38.602 24.567 38.059 24.657L37.165 24.806C36.741 24.876 36.401 25.189 36.236 25.586C36.071 25.984 36.093 26.44 36.343 26.79L36.87 27.528C37.19 27.975 37.139 28.588 36.75 28.978L35.976 29.751C35.7877 29.9392 35.5388 30.0546 35.2735 30.0765C35.0082 30.0985 34.7437 30.0257 34.527 29.871L33.789 29.344C33.439 29.094 32.983 29.072 32.586 29.237C32.188 29.402 31.876 29.742 31.805 30.166L31.656 31.06C31.566 31.602 31.096 32 30.546 32H29.452C28.902 32 28.433 31.602 28.342 31.06L28.194 30.166C28.123 29.742 27.81 29.402 27.413 29.236C27.015 29.072 26.559 29.094 26.209 29.344L25.471 29.871C25.024 30.191 24.411 30.14 24.021 29.751L23.248 28.977C23.0596 28.7887 22.944 28.5395 22.9221 28.274C22.9001 28.0085 22.9731 27.7438 23.128 27.527L23.655 26.79C23.905 26.44 23.927 25.984 23.763 25.586C23.598 25.189 23.257 24.876 22.833 24.806L21.939 24.656C21.397 24.566 20.999 24.096 20.999 23.547V22.453C20.999 21.903 21.397 21.433 21.939 21.343L22.833 21.194C23.257 21.124 23.598 20.811 23.763 20.414C23.928 20.016 23.906 19.56 23.655 19.21L23.129 18.472C22.9741 18.2552 22.9011 17.9905 22.9231 17.725C22.945 17.4595 23.0606 17.2103 23.249 17.022L24.022 16.249C24.2104 16.0605 24.4595 15.945 24.725 15.923C24.9905 15.9011 25.2553 15.9741 25.472 16.129L26.209 16.656C26.559 16.906 27.016 16.928 27.413 16.763C27.81 16.598 28.123 16.258 28.193 15.834L28.343 14.94Z" stroke="#3643BD" stroke-linecap="round" stroke-linejoin="round"/>
<path d="M33 23C33 23.7956 32.6839 24.5587 32.1213 25.1213C31.5587 25.6839 30.7956 26 30 26C29.2044 26 28.4413 25.6839 27.8787 25.1213C27.3161 24.5587 27 23.7956 27 23C27 22.2044 27.3161 21.4413 27.8787 20.8787C28.4413 20.3161 29.2044 20 30 20C30.7956 20 31.5587 20.3161 32.1213 20.8787C32.6839 21.4413 33 22.2044 33 23Z" stroke="#3643BD" stroke-linecap="round" stroke-linejoin="round"/>
<path d="M12.9559 47.1C12.3959 47.1 11.9292 47.0133 11.5559 46.84C11.1892 46.6667 10.9059 46.4333 10.7059 46.14C10.5059 45.84 10.3725 45.51 10.3059 45.15H11.2459C11.3192 45.4567 11.4859 45.72 11.7459 45.94C12.0059 46.1533 12.4092 46.26 12.9559 46.26C13.5159 46.26 13.9392 46.1533 14.2259 45.94C14.5192 45.7267 14.6659 45.4633 14.6659 45.15C14.6659 44.89 14.6059 44.6833 14.4859 44.53C14.3659 44.37 14.1659 44.2367 13.8859 44.13C13.6125 44.0167 13.2392 43.9067 12.7659 43.8C12.2459 43.6867 11.8192 43.5533 11.4859 43.4C11.1525 43.2467 10.9059 43.04 10.7459 42.78C10.5859 42.52 10.5059 42.1767 10.5059 41.75C10.5059 41.4033 10.6025 41.0933 10.7959 40.82C10.9959 40.54 11.2792 40.3167 11.6459 40.15C12.0125 39.9833 12.4492 39.9 12.9559 39.9C13.4559 39.9 13.8725 39.9833 14.2059 40.15C14.5392 40.3167 14.7992 40.54 14.9859 40.82C15.1725 41.0933 15.2959 41.4033 15.3559 41.75H14.4159C14.3492 41.47 14.2059 41.2333 13.9859 41.04C13.7725 40.84 13.4292 40.74 12.9559 40.74C12.4759 40.74 12.1025 40.84 11.8359 41.04C11.5759 41.2333 11.4459 41.47 11.4459 41.75C11.4459 42.1167 11.5825 42.3867 11.8559 42.56C12.1292 42.7267 12.5659 42.8767 13.1659 43.01C13.5992 43.1033 13.9692 43.21 14.2759 43.33C14.5892 43.45 14.8425 43.5933 15.0359 43.76C15.2359 43.92 15.3792 44.1133 15.4659 44.34C15.5592 44.5667 15.6059 44.8367 15.6059 45.15C15.6059 45.51 15.4992 45.84 15.2859 46.14C15.0792 46.4333 14.7792 46.6667 14.3859 46.84C13.9925 47.0133 13.5159 47.1 12.9559 47.1ZM19.1523 47.1C18.7057 47.1 18.2857 47.0033 17.8923 46.81C17.5057 46.6167 17.1923 46.32 16.9523 45.92C16.719 45.52 16.6023 45.0133 16.6023 44.4V44.2C16.6023 43.6133 16.7157 43.13 16.9423 42.75C17.169 42.3633 17.469 42.0767 17.8423 41.89C18.2157 41.6967 18.619 41.6 19.0523 41.6C19.8323 41.6 20.4357 41.8133 20.8623 42.24C21.289 42.6667 21.5023 43.27 21.5023 44.05V44.61H17.4823C17.4823 45.0233 17.5657 45.3533 17.7323 45.6C17.9057 45.8467 18.119 46.0267 18.3723 46.14C18.6323 46.2467 18.8923 46.3 19.1523 46.3C19.5523 46.3 19.859 46.2333 20.0723 46.1C20.2923 45.9667 20.449 45.7833 20.5423 45.55H21.4023C21.2957 46.0567 21.0323 46.4433 20.6123 46.71C20.199 46.97 19.7123 47.1 19.1523 47.1ZM19.1023 42.4C18.829 42.4 18.569 42.4533 18.3223 42.56C18.0757 42.66 17.8723 42.82 17.7123 43.04C17.559 43.26 17.4823 43.5433 17.4823 43.89H20.6723C20.6657 43.5233 20.589 43.2333 20.4423 43.02C20.3023 42.8 20.1157 42.6433 19.8823 42.55C19.649 42.45 19.389 42.4 19.1023 42.4ZM24.7031 47.05C24.3298 47.05 24.0231 46.9933 23.7831 46.88C23.5498 46.7667 23.3765 46.5967 23.2631 46.37C23.1565 46.1367 23.1031 45.8467 23.1031 45.5V42.48H22.3031V41.7H23.1031V40.5H23.9831V41.7H25.4031V42.48H23.9831V45.4C23.9831 45.7 24.0465 45.9167 24.1731 46.05C24.2998 46.1833 24.5431 46.25 24.9031 46.25C25.1031 46.25 25.3031 46.24 25.5031 46.22V47C25.3765 47.0133 25.2498 47.0233 25.1231 47.03C24.9965 47.0433 24.8565 47.05 24.7031 47.05ZM28.707 47.05C28.3337 47.05 28.027 46.9933 27.787 46.88C27.5537 46.7667 27.3804 46.5967 27.267 46.37C27.1604 46.1367 27.107 45.8467 27.107 45.5V42.48H26.307V41.7H27.107V40.5H27.987V41.7H29.407V42.48H27.987V45.4C27.987 45.7 28.0504 45.9167 28.177 46.05C28.3037 46.1833 28.547 46.25 28.907 46.25C29.107 46.25 29.307 46.24 29.507 46.22V47C29.3804 47.0133 29.2537 47.0233 29.127 47.03C29.0004 47.0433 28.8604 47.05 28.707 47.05ZM30.8609 47V41.7H31.7409V47H30.8609ZM31.3009 41C31.1276 41 30.9843 40.9433 30.8709 40.83C30.7576 40.7167 30.7009 40.5733 30.7009 40.4C30.7009 40.2267 30.7576 40.0833 30.8709 39.97C30.9843 39.8567 31.1276 39.8 31.3009 39.8C31.4743 39.8 31.6176 39.8567 31.7309 39.97C31.8443 40.0833 31.9009 40.2267 31.9009 40.4C31.9009 40.5733 31.8443 40.7167 31.7309 40.83C31.6176 40.9433 31.4743 41 31.3009 41ZM33.4367 47V41.7H34.2567V42.7C34.3767 42.4067 34.5867 42.15 34.8867 41.93C35.1934 41.71 35.5867 41.6 36.0667 41.6C36.7334 41.6 37.2267 41.78 37.5467 42.14C37.8734 42.4933 38.0367 43.0133 38.0367 43.7V47H37.1567V43.9C37.1567 43.4067 37.0534 43.0333 36.8467 42.78C36.6401 42.5267 36.2934 42.4 35.8067 42.4C35.4601 42.4 35.1767 42.4733 34.9567 42.62C34.7367 42.7667 34.5734 42.9533 34.4667 43.18C34.3667 43.4067 34.3167 43.6467 34.3167 43.9V47H33.4367ZM41.6891 49.1C41.1757 49.1 40.7591 49.0333 40.4391 48.9C40.1191 48.7667 39.8824 48.5867 39.7291 48.36C39.5757 48.1333 39.4791 47.88 39.4391 47.6H40.3591C40.4257 47.8133 40.5524 47.9833 40.7391 48.11C40.9257 48.2367 41.2424 48.3 41.6891 48.3C42.2291 48.3 42.6257 48.17 42.8791 47.91C43.1324 47.65 43.2591 47.28 43.2591 46.8V45.95C43.1057 46.3033 42.8691 46.5667 42.5491 46.74C42.2357 46.9133 41.8657 47 41.4391 47C41.0057 47 40.6224 46.9 40.2891 46.7C39.9557 46.5 39.6957 46.2033 39.5091 45.81C39.3291 45.4167 39.2391 44.93 39.2391 44.35V44.15C39.2391 43.6033 39.3324 43.1433 39.5191 42.77C39.7124 42.39 39.9724 42.1 40.2991 41.9C40.6324 41.7 41.0124 41.6 41.4391 41.6C41.8924 41.6 42.2857 41.7033 42.6191 41.91C42.9524 42.11 43.1857 42.3733 43.3191 42.7V41.7H44.1391V46.8C44.1391 47.52 43.9291 48.0833 43.5091 48.49C43.0891 48.8967 42.4824 49.1 41.6891 49.1ZM41.6391 46.22C41.9591 46.22 42.2391 46.1533 42.4791 46.02C42.7257 45.8867 42.9157 45.7033 43.0491 45.47C43.1891 45.23 43.2591 44.9567 43.2591 44.65V43.85C43.2591 43.5767 43.1891 43.33 43.0491 43.11C42.9157 42.89 42.7257 42.7133 42.4791 42.58C42.2391 42.4467 41.9591 42.38 41.6391 42.38C41.2124 42.38 40.8524 42.5367 40.5591 42.85C40.2657 43.1633 40.1191 43.5967 40.1191 44.15V44.35C40.1191 44.9567 40.2657 45.42 40.5591 45.74C40.8524 46.06 41.2124 46.22 41.6391 46.22ZM47.5914 47.1C47.2381 47.1 46.9314 47.06 46.6714 46.98C46.4114 46.8933 46.1947 46.78 46.0214 46.64C45.8481 46.5 45.7081 46.3367 45.6014 46.15C45.5014 45.9567 45.4314 45.7567 45.3914 45.55H46.2714C46.3181 45.7633 46.4414 45.95 46.6414 46.11C46.8481 46.2633 47.1647 46.34 47.5914 46.34C48.0847 46.34 48.4281 46.2633 48.6214 46.11C48.8147 45.95 48.9114 45.7633 48.9114 45.55C48.9114 45.4033 48.8681 45.2767 48.7814 45.17C48.7014 45.0567 48.5547 44.96 48.3414 44.88C48.1347 44.8 47.8381 44.7333 47.4514 44.68C47.1581 44.64 46.8947 44.5833 46.6614 44.51C46.4281 44.43 46.2281 44.3267 46.0614 44.2C45.8947 44.0733 45.7647 43.92 45.6714 43.74C45.5847 43.56 45.5414 43.3467 45.5414 43.1C45.5414 42.8333 45.6181 42.5867 45.7714 42.36C45.9247 42.1333 46.1547 41.95 46.4614 41.81C46.7681 41.67 47.1447 41.6 47.5914 41.6C48.0114 41.6 48.3581 41.6733 48.6314 41.82C48.9114 41.96 49.1281 42.1467 49.2814 42.38C49.4347 42.6133 49.5381 42.87 49.5914 43.15H48.7114C48.6581 42.9167 48.5447 42.7267 48.3714 42.58C48.1981 42.4333 47.9381 42.36 47.5914 42.36C47.1581 42.36 46.8547 42.4333 46.6814 42.58C46.5081 42.72 46.4214 42.8933 46.4214 43.1C46.4214 43.34 46.5147 43.52 46.7014 43.64C46.8947 43.76 47.2447 43.8533 47.7514 43.92C48.0781 43.96 48.3681 44.02 48.6214 44.1C48.8747 44.1733 49.0881 44.2767 49.2614 44.41C49.4347 44.5367 49.5647 44.6933 49.6514 44.88C49.7447 45.0667 49.7914 45.29 49.7914 45.55C49.7914 45.83 49.7114 46.0867 49.5514 46.32C49.3914 46.5533 49.1481 46.7433 48.8214 46.89C48.5014 47.03 48.0914 47.1 47.5914 47.1Z" fill="#20276D"/>
</svg>
