<svg width="60" height="60" viewBox="0 0 60 60" fill="none" xmlns="http://www.w3.org/2000/svg">
<rect width="60" height="60" rx="10" fill="#3643BD"/>
<path d="M28.4636 23.755H20.7812C20.3498 23.755 20 24.1048 20 24.5363V32.2187C20 32.6502 20.3498 33 20.7812 33H28.4636C28.895 33 29.2448 32.6502 29.2448 32.2187V24.5363C29.2448 24.1048 28.895 23.755 28.4636 23.755ZM35.3776 23.755C32.8288 23.755 30.7552 25.8286 30.7552 28.3775C30.7552 30.9264 32.8288 33 35.3776 33C37.9264 33 40 30.9264 40 28.3775C40 25.8286 37.9264 23.755 35.3776 23.755ZM25.3906 22.2446H34.6094C35.2159 22.2446 35.5912 21.5813 35.2793 21.0613L30.6699 13.3789C30.3673 12.8745 29.6336 12.873 29.3301 13.3789L24.7207 21.0613C24.4086 21.5815 24.7843 22.2446 25.3906 22.2446Z" fill="#F2F2F2"/>
<path d="M15.4705 47.1C14.9105 47.1 14.4438 47.0133 14.0705 46.84C13.7038 46.6667 13.4205 46.4333 13.2205 46.14C13.0205 45.84 12.8872 45.51 12.8205 45.15H13.7605C13.8338 45.4567 14.0005 45.72 14.2605 45.94C14.5205 46.1533 14.9238 46.26 15.4705 46.26C16.0305 46.26 16.4538 46.1533 16.7405 45.94C17.0338 45.7267 17.1805 45.4633 17.1805 45.15C17.1805 44.89 17.1205 44.6833 17.0005 44.53C16.8805 44.37 16.6805 44.2367 16.4005 44.13C16.1272 44.0167 15.7538 43.9067 15.2805 43.8C14.7605 43.6867 14.3338 43.5533 14.0005 43.4C13.6672 43.2467 13.4205 43.04 13.2605 42.78C13.1005 42.52 13.0205 42.1767 13.0205 41.75C13.0205 41.4033 13.1172 41.0933 13.3105 40.82C13.5105 40.54 13.7938 40.3167 14.1605 40.15C14.5272 39.9833 14.9638 39.9 15.4705 39.9C15.9705 39.9 16.3872 39.9833 16.7205 40.15C17.0538 40.3167 17.3138 40.54 17.5005 40.82C17.6872 41.0933 17.8105 41.4033 17.8705 41.75H16.9305C16.8638 41.47 16.7205 41.2333 16.5005 41.04C16.2872 40.84 15.9438 40.74 15.4705 40.74C14.9905 40.74 14.6172 40.84 14.3505 41.04C14.0905 41.2333 13.9605 41.47 13.9605 41.75C13.9605 42.1167 14.0972 42.3867 14.3705 42.56C14.6438 42.7267 15.0805 42.8767 15.6805 43.01C16.1138 43.1033 16.4838 43.21 16.7905 43.33C17.1038 43.45 17.3572 43.5933 17.5505 43.76C17.7505 43.92 17.8938 44.1133 17.9805 44.34C18.0738 44.5667 18.1205 44.8367 18.1205 45.15C18.1205 45.51 18.0138 45.84 17.8005 46.14C17.5938 46.4333 17.2938 46.6667 16.9005 46.84C16.5072 47.0133 16.0305 47.1 15.4705 47.1ZM19.467 47V40H20.347V42.65C20.4403 42.4633 20.567 42.29 20.727 42.13C20.887 41.97 21.0803 41.8433 21.307 41.75C21.5403 41.65 21.8037 41.6 22.097 41.6C22.7637 41.6 23.257 41.78 23.577 42.14C23.9037 42.4933 24.067 43.0133 24.067 43.7V47H23.187V43.9C23.187 43.4067 23.0837 43.0333 22.877 42.78C22.6703 42.5267 22.3237 42.4 21.837 42.4C21.4903 42.4 21.207 42.4733 20.987 42.62C20.767 42.7667 20.6037 42.9533 20.497 43.18C20.397 43.4067 20.347 43.6467 20.347 43.9V47H19.467ZM27.1293 47.1C26.7427 47.1 26.4127 47.03 26.1393 46.89C25.8727 46.7433 25.6693 46.5467 25.5293 46.3C25.3893 46.0467 25.3193 45.7633 25.3193 45.45C25.3193 44.9233 25.4727 44.5433 25.7793 44.31C26.0927 44.0767 26.5393 43.96 27.1193 43.96H28.8393V43.6C28.8393 43.1467 28.736 42.8333 28.5293 42.66C28.3293 42.4867 28.026 42.4 27.6193 42.4C27.2393 42.4 26.9627 42.4733 26.7893 42.62C26.616 42.76 26.5193 42.92 26.4993 43.1H25.6193C25.6393 42.8133 25.736 42.56 25.9093 42.34C26.0827 42.1133 26.3193 41.9333 26.6193 41.8C26.9193 41.6667 27.2693 41.6 27.6693 41.6C28.0893 41.6 28.4527 41.6667 28.7593 41.8C29.066 41.9267 29.3027 42.13 29.4693 42.41C29.636 42.6833 29.7193 43.0467 29.7193 43.5V45.65C29.7193 45.93 29.7193 46.1767 29.7193 46.39C29.726 46.5967 29.7427 46.8 29.7693 47H28.9993C28.9793 46.8467 28.966 46.7033 28.9593 46.57C28.9527 46.43 28.9493 46.2733 28.9493 46.1C28.8093 46.38 28.5827 46.6167 28.2693 46.81C27.956 47.0033 27.576 47.1 27.1293 47.1ZM27.3193 46.3C27.5993 46.3 27.8527 46.25 28.0793 46.15C28.3127 46.05 28.496 45.9033 28.6293 45.71C28.7693 45.5167 28.8393 45.28 28.8393 45V44.64H27.2693C26.9427 44.64 26.686 44.7067 26.4993 44.84C26.3127 44.9667 26.2193 45.17 26.2193 45.45C26.2193 45.6967 26.306 45.9 26.4793 46.06C26.6593 46.22 26.9393 46.3 27.3193 46.3ZM31.2736 49V41.7H32.0936V42.7C32.2736 42.3467 32.5236 42.0767 32.8436 41.89C33.1703 41.6967 33.547 41.6 33.9736 41.6C34.6403 41.6 35.1736 41.82 35.5736 42.26C35.9736 42.6933 36.1736 43.34 36.1736 44.2V44.4C36.1736 45 36.0803 45.5 35.8936 45.9C35.7136 46.3 35.457 46.6 35.1236 46.8C34.797 47 34.4136 47.1 33.9736 47.1C33.5203 47.1 33.1403 47 32.8336 46.8C32.5336 46.6 32.307 46.35 32.1536 46.05V49H31.2736ZM33.7736 46.32C34.207 46.32 34.567 46.1567 34.8536 45.83C35.147 45.5033 35.2936 45.0267 35.2936 44.4V44.2C35.2936 43.62 35.147 43.1733 34.8536 42.86C34.567 42.54 34.207 42.38 33.7736 42.38C33.4536 42.38 33.1703 42.4467 32.9236 42.58C32.6836 42.7133 32.4936 42.8967 32.3536 43.13C32.2203 43.3567 32.1536 43.6133 32.1536 43.9V44.7C32.1536 45.02 32.2203 45.3033 32.3536 45.55C32.4936 45.79 32.6836 45.98 32.9236 46.12C33.1703 46.2533 33.4536 46.32 33.7736 46.32ZM39.626 47.1C39.1793 47.1 38.7593 47.0033 38.366 46.81C37.9793 46.6167 37.666 46.32 37.426 45.92C37.1926 45.52 37.076 45.0133 37.076 44.4V44.2C37.076 43.6133 37.1893 43.13 37.416 42.75C37.6426 42.3633 37.9426 42.0767 38.316 41.89C38.6893 41.6967 39.0926 41.6 39.526 41.6C40.306 41.6 40.9093 41.8133 41.336 42.24C41.7626 42.6667 41.976 43.27 41.976 44.05V44.61H37.956C37.956 45.0233 38.0393 45.3533 38.206 45.6C38.3793 45.8467 38.5926 46.0267 38.846 46.14C39.106 46.2467 39.366 46.3 39.626 46.3C40.026 46.3 40.3326 46.2333 40.546 46.1C40.766 45.9667 40.9226 45.7833 41.016 45.55H41.876C41.7693 46.0567 41.506 46.4433 41.086 46.71C40.6726 46.97 40.186 47.1 39.626 47.1ZM39.576 42.4C39.3026 42.4 39.0426 42.4533 38.796 42.56C38.5493 42.66 38.346 42.82 38.186 43.04C38.0326 43.26 37.956 43.5433 37.956 43.89H41.146C41.1393 43.5233 41.0626 43.2333 40.916 43.02C40.776 42.8 40.5893 42.6433 40.356 42.55C40.1226 42.45 39.8626 42.4 39.576 42.4ZM45.0768 47.1C44.7234 47.1 44.4168 47.06 44.1568 46.98C43.8968 46.8933 43.6801 46.78 43.5068 46.64C43.3334 46.5 43.1934 46.3367 43.0868 46.15C42.9868 45.9567 42.9168 45.7567 42.8768 45.55H43.7568C43.8034 45.7633 43.9268 45.95 44.1268 46.11C44.3334 46.2633 44.6501 46.34 45.0768 46.34C45.5701 46.34 45.9134 46.2633 46.1068 46.11C46.3001 45.95 46.3968 45.7633 46.3968 45.55C46.3968 45.4033 46.3534 45.2767 46.2668 45.17C46.1868 45.0567 46.0401 44.96 45.8268 44.88C45.6201 44.8 45.3234 44.7333 44.9368 44.68C44.6434 44.64 44.3801 44.5833 44.1468 44.51C43.9134 44.43 43.7134 44.3267 43.5468 44.2C43.3801 44.0733 43.2501 43.92 43.1568 43.74C43.0701 43.56 43.0268 43.3467 43.0268 43.1C43.0268 42.8333 43.1034 42.5867 43.2568 42.36C43.4101 42.1333 43.6401 41.95 43.9468 41.81C44.2534 41.67 44.6301 41.6 45.0768 41.6C45.4968 41.6 45.8434 41.6733 46.1168 41.82C46.3968 41.96 46.6134 42.1467 46.7668 42.38C46.9201 42.6133 47.0234 42.87 47.0768 43.15H46.1968C46.1434 42.9167 46.0301 42.7267 45.8568 42.58C45.6834 42.4333 45.4234 42.36 45.0768 42.36C44.6434 42.36 44.3401 42.4333 44.1668 42.58C43.9934 42.72 43.9068 42.8933 43.9068 43.1C43.9068 43.34 44.0001 43.52 44.1868 43.64C44.3801 43.76 44.7301 43.8533 45.2368 43.92C45.5634 43.96 45.8534 44.02 46.1068 44.1C46.3601 44.1733 46.5734 44.2767 46.7468 44.41C46.9201 44.5367 47.0501 44.6933 47.1368 44.88C47.2301 45.0667 47.2768 45.29 47.2768 45.55C47.2768 45.83 47.1968 46.0867 47.0368 46.32C46.8768 46.5533 46.6334 46.7433 46.3068 46.89C45.9868 47.03 45.5768 47.1 45.0768 47.1Z" fill="#F2F2F2"/>
</svg>
