<svg width="60" height="60" viewBox="0 0 60 60" fill="none" xmlns="http://www.w3.org/2000/svg">
<rect width="60" height="60" rx="10" fill="#3643BD"/>
<path d="M22 17C23.1046 17 24 16.1046 24 15C24 13.8954 23.1046 13 22 13C20.8954 13 20 13.8954 20 15C20 16.1046 20.8954 17 22 17Z" fill="#F2F2F2"/>
<path d="M22 33C23.1046 33 24 32.1046 24 31C24 29.8954 23.1046 29 22 29C20.8954 29 20 29.8954 20 31C20 32.1046 20.8954 33 22 33Z" fill="#F2F2F2"/>
<path d="M38 33C39.1046 33 40 32.1046 40 31C40 29.8954 39.1046 29 38 29C36.8954 29 36 29.8954 36 31C36 32.1046 36.8954 33 38 33Z" fill="#F2F2F2"/>
<path d="M21.6381 27.8973C22.1101 27.8973 22.5666 27.9336 23 28V18C22.5666 18.0664 22.1102 18.1027 21.6381 18.1027C21.4218 18.1027 21.2091 18.0944 21 18.0799V27.9201C21.2092 27.9056 21.4219 27.8973 21.6381 27.8973Z" fill="#F2F2F2"/>
<path d="M25.0799 14C25.0944 14.2092 25.1027 14.4219 25.1027 14.6381C25.1027 15.1101 25.0664 15.5666 25 16H35C34.9336 15.5666 34.8973 15.1102 34.8973 14.6381C34.8973 14.4218 34.9056 14.2091 34.9201 14H25.0799Z" fill="#F2F2F2"/>
<path d="M38.3619 18.1027C37.8899 18.1027 37.4334 18.0664 37 18V28C37.4334 27.9336 37.8898 27.8973 38.3619 27.8973C38.5782 27.8973 38.7909 27.9056 39 27.9201V18.0799C38.7908 18.0944 38.5781 18.1027 38.3619 18.1027Z" fill="#F2F2F2"/>
<path d="M38 17C39.1046 17 40 16.1046 40 15C40 13.8954 39.1046 13 38 13C36.8954 13 36 13.8954 36 15C36 16.1046 36.8954 17 38 17Z" fill="#F2F2F2"/>
<path d="M34.9201 32C34.9056 31.7908 34.8973 31.5781 34.8973 31.3619C34.8973 30.8899 34.9336 30.4334 35 30H25C25.0664 30.4334 25.1027 30.8898 25.1027 31.3619C25.1027 31.5782 25.0944 31.7909 25.0799 32H34.9201Z" fill="#F2F2F2"/>
<path d="M36 28.7667V17.2333C35.9178 17.1601 35.8399 17.0822 35.7667 17H24.2333C24.1601 17.0822 24.0822 17.1601 24 17.2333V28.7667C24.0822 28.8399 24.1601 28.9178 24.2333 29H35.7667C35.8399 28.9178 35.9178 28.8399 36 28.7667ZM33.3965 20.8015V19.8631H30.5602V26.2433H31.531V27.3636H28.469V26.2433H29.4398V19.8631H26.6035V20.8015H25.4832V18.7427H34.5168V20.8015H33.3965Z" fill="#F2F2F2"/>
<path d="M21.878 47V40.82H19.448V40H25.248V40.82H22.818V47H21.878ZM28.4492 47.1C28.0026 47.1 27.5826 47.0033 27.1892 46.81C26.8026 46.6167 26.4892 46.32 26.2492 45.92C26.0159 45.52 25.8992 45.0133 25.8992 44.4V44.2C25.8992 43.6133 26.0126 43.13 26.2392 42.75C26.4659 42.3633 26.7659 42.0767 27.1392 41.89C27.5126 41.6967 27.9159 41.6 28.3492 41.6C29.1292 41.6 29.7326 41.8133 30.1592 42.24C30.5859 42.6667 30.7992 43.27 30.7992 44.05V44.61H26.7792C26.7792 45.0233 26.8626 45.3533 27.0292 45.6C27.2026 45.8467 27.4159 46.0267 27.6692 46.14C27.9292 46.2467 28.1892 46.3 28.4492 46.3C28.8492 46.3 29.1559 46.2333 29.3692 46.1C29.5892 45.9667 29.7459 45.7833 29.8392 45.55H30.6992C30.5926 46.0567 30.3292 46.4433 29.9092 46.71C29.4959 46.97 29.0092 47.1 28.4492 47.1ZM28.3992 42.4C28.1259 42.4 27.8659 42.4533 27.6192 42.56C27.3726 42.66 27.1692 42.82 27.0092 43.04C26.8559 43.26 26.7792 43.5433 26.7792 43.89H29.9692C29.9626 43.5233 29.8859 43.2333 29.7392 43.02C29.5992 42.8 29.4126 42.6433 29.1792 42.55C28.9459 42.45 28.6859 42.4 28.3992 42.4ZM31.5 47L33.49 44.31L31.6 41.7H32.62L34.02 43.63L35.42 41.7H36.4L34.51 44.26L36.5 47H35.46L33.98 44.93L32.5 47H31.5ZM39.498 47.05C39.1247 47.05 38.818 46.9933 38.578 46.88C38.3447 46.7667 38.1714 46.5967 38.058 46.37C37.9514 46.1367 37.898 45.8467 37.898 45.5V42.48H37.098V41.7H37.898V40.5H38.778V41.7H40.198V42.48H38.778V45.4C38.778 45.7 38.8414 45.9167 38.968 46.05C39.0947 46.1833 39.338 46.25 39.698 46.25C39.898 46.25 40.098 46.24 40.298 46.22V47C40.1714 47.0133 40.0447 47.0233 39.918 47.03C39.7914 47.0433 39.6514 47.05 39.498 47.05Z" fill="#F2F2F2"/>
</svg>
