<svg width="60" height="60" viewBox="0 0 60 60" fill="none" xmlns="http://www.w3.org/2000/svg">
<path d="M25 21.1492H26.2402V20.1696H29.3799V26.8304H28.3052V28H31.6947V26.8304H30.6201V20.1696H33.7598V21.1492H35V19H25V21.1492Z" fill="#3643BD"/>
<path d="M38.6035 28.6643V17.3357C39.4221 16.998 40 16.1917 40 15.2526C40 14.0105 38.9895 13 37.7474 13C36.8083 13 36.002 13.5779 35.6643 14.3965H24.3357C23.998 13.5779 23.1917 13 22.2526 13C21.0105 13 20 14.0105 20 15.2526C20 16.1917 20.5779 16.9981 21.3965 17.3358V28.6643C20.5779 29.002 20 29.8083 20 30.7474C20 31.9895 21.0105 33 22.2526 33C23.1917 33 23.998 32.4221 24.3357 31.6035H35.6643C36.002 32.4221 36.8083 33 37.7474 33C38.9895 33 40 31.9895 40 30.7474C40 29.8083 39.4221 29.002 38.6035 28.6643ZM35.5174 30.4316H24.4826C24.3431 29.4418 23.5582 28.6569 22.5684 28.5174V17.4826C23.5582 17.3431 24.3431 16.5582 24.4826 15.5684H35.5174C35.6569 16.5582 36.4418 17.3431 37.4316 17.4826V28.5173C36.4418 28.6569 35.6569 29.4418 35.5174 30.4316ZM37.7474 14.1719C38.3433 14.1719 38.8281 14.6567 38.8281 15.2526C38.8281 15.8486 38.3433 16.3334 37.7474 16.3334C37.1515 16.3334 36.6667 15.8486 36.6667 15.2526C36.6667 14.6567 37.1515 14.1719 37.7474 14.1719ZM22.2526 14.1719C22.8485 14.1719 23.3333 14.6567 23.3333 15.2526C23.3333 15.8486 22.8485 16.3334 22.2526 16.3334C21.6567 16.3333 21.1719 15.8485 21.1719 15.2526C21.1719 14.6567 21.6567 14.1719 22.2526 14.1719ZM22.2526 31.8281C21.6567 31.8281 21.1719 31.3433 21.1719 30.7474C21.1719 30.1514 21.6567 29.6666 22.2526 29.6666C22.8485 29.6666 23.3333 30.1514 23.3333 30.7474C23.3333 31.3433 22.8485 31.8281 22.2526 31.8281ZM37.7474 31.8281C37.1515 31.8281 36.6667 31.3433 36.6667 30.7474C36.6667 30.1514 37.1515 29.6666 37.7474 29.6666C38.3433 29.6666 38.8281 30.1514 38.8281 30.7474C38.8281 31.3433 38.3433 31.8281 37.7474 31.8281Z" fill="#3643BD"/>
<path d="M21.878 47V40.82H19.448V40H25.248V40.82H22.818V47H21.878ZM28.4492 47.1C28.0026 47.1 27.5826 47.0033 27.1892 46.81C26.8026 46.6167 26.4892 46.32 26.2492 45.92C26.0159 45.52 25.8992 45.0133 25.8992 44.4V44.2C25.8992 43.6133 26.0126 43.13 26.2392 42.75C26.4659 42.3633 26.7659 42.0767 27.1392 41.89C27.5126 41.6967 27.9159 41.6 28.3492 41.6C29.1292 41.6 29.7326 41.8133 30.1592 42.24C30.5859 42.6667 30.7992 43.27 30.7992 44.05V44.61H26.7792C26.7792 45.0233 26.8626 45.3533 27.0292 45.6C27.2026 45.8467 27.4159 46.0267 27.6692 46.14C27.9292 46.2467 28.1892 46.3 28.4492 46.3C28.8492 46.3 29.1559 46.2333 29.3692 46.1C29.5892 45.9667 29.7459 45.7833 29.8392 45.55H30.6992C30.5926 46.0567 30.3292 46.4433 29.9092 46.71C29.4959 46.97 29.0092 47.1 28.4492 47.1ZM28.3992 42.4C28.1259 42.4 27.8659 42.4533 27.6192 42.56C27.3726 42.66 27.1692 42.82 27.0092 43.04C26.8559 43.26 26.7792 43.5433 26.7792 43.89H29.9692C29.9626 43.5233 29.8859 43.2333 29.7392 43.02C29.5992 42.8 29.4126 42.6433 29.1792 42.55C28.9459 42.45 28.6859 42.4 28.3992 42.4ZM31.5 47L33.49 44.31L31.6 41.7H32.62L34.02 43.63L35.42 41.7H36.4L34.51 44.26L36.5 47H35.46L33.98 44.93L32.5 47H31.5ZM39.498 47.05C39.1247 47.05 38.818 46.9933 38.578 46.88C38.3447 46.7667 38.1714 46.5967 38.058 46.37C37.9514 46.1367 37.898 45.8467 37.898 45.5V42.48H37.098V41.7H37.898V40.5H38.778V41.7H40.198V42.48H38.778V45.4C38.778 45.7 38.8414 45.9167 38.968 46.05C39.0947 46.1833 39.338 46.25 39.698 46.25C39.898 46.25 40.098 46.24 40.298 46.22V47C40.1714 47.0133 40.0447 47.0233 39.918 47.03C39.7914 47.0433 39.6514 47.05 39.498 47.05Z" fill="#20276D"/>
</svg>
