<svg width="40" height="40" viewBox="0 0 40 40" fill="none" xmlns="http://www.w3.org/2000/svg">
<rect width="40" height="40" rx="10" fill="white"/>
<path d="M26.4375 24.25V14.8438C26.4375 13.9688 25.6563 13.2188 24.6563 13.2188C24.4063 13.2188 24.1875 13.25 24 13.3438V12.75C24 11.875 23.2188 11.125 22.2188 11.125C21.8125 11.125 21.4688 11.25 21.1875 11.4375C20.875 11.0625 20.3438 10.8125 19.7813 10.8125C18.9688 10.8125 18.3125 11.3125 18.0938 11.9688C17.875 11.875 17.625 11.8125 17.3438 11.8125C16.375 11.8125 15.5625 12.5312 15.5625 13.4375V20.5L14.9063 19.6875C14.25 18.8125 13 18.5312 12.0625 19.0312C11.5938 19.2812 11.2813 19.7188 11.1563 20.2188C11.0313 20.75 11.1563 21.2813 11.5 21.7188C12.0625 22.4688 12.6563 23.25 13.2188 24L14.25 25.375C14.4063 25.5625 14.5313 25.7812 14.6875 25.9688C15.125 26.5938 15.5938 27.2188 16.2188 27.75C17.4063 28.75 19.0313 29.125 20.5625 29.125C21.3125 29.125 22.0313 29.0312 22.6875 28.9062C26.4375 28.125 26.4375 25.3125 26.4375 24.25ZM22.4688 27.875C20.8438 28.2188 18.4063 28.1875 16.9375 26.9688C16.4375 26.5312 16.0313 25.9688 15.5938 25.375C15.4375 25.1563 15.2813 24.9375 15.125 24.75L14.0938 23.375C13.5313 22.625 12.9375 21.8438 12.375 21.0938C12.2188 20.9062 12.1875 20.6875 12.2188 20.4688C12.25 20.2812 12.375 20.125 12.5625 20C13.0313 19.75 13.6875 19.9062 14 20.3437C14 20.3437 14 20.375 14.0313 20.375L15.6875 22.3438C15.8438 22.5313 16.0625 22.5938 16.2813 22.5C16.5 22.4062 16.6563 22.2188 16.6563 22V13.4688C16.6563 13.1875 16.9688 12.9375 17.3438 12.9375C17.6875 12.9375 18 13.1562 18 13.4375V13.5625V13.5938V18.875C18 19.1875 18.25 19.4375 18.5625 19.4375C18.875 19.4375 19.125 19.1875 19.125 18.875V13.4688C19.125 13.4375 19.125 13.4375 19.125 13.4062V12.4688C19.125 12.1875 19.4375 11.9375 19.8125 11.9375C20.1875 11.9375 20.5 12.1875 20.5 12.4688V12.7812V19V19.125C20.5 19.4375 20.75 19.6875 21.0625 19.6875C21.375 19.6875 21.625 19.4375 21.625 19.125V19V12.75C21.625 12.4688 21.9375 12.2188 22.3125 12.2188C22.6875 12.2188 23 12.4688 23 12.75V14.75V14.8125V15.6562V15.6875V19.6875C23 20 23.25 20.25 23.5625 20.25C23.875 20.25 24.125 20 24.125 19.6875V14.8125C24.1563 14.5312 24.4375 14.3125 24.7813 14.3125C25.1563 14.3125 25.4688 14.5625 25.4688 14.8438V24.1562V24.2813C25.3438 25.3125 25.3438 27.25 22.4688 27.875Z" fill="#20276D"/>
</svg>
