<svg width="40" height="40" viewBox="0 0 40 40" fill="none" xmlns="http://www.w3.org/2000/svg">
<path d="M16.2637 10.7791C18.6969 10.7791 20.6694 8.80594 20.6694 6.37195C20.6694 3.93797 18.6969 1.96484 16.2637 1.96484C13.8305 1.96484 11.858 3.93797 11.858 6.37195C11.858 8.80594 13.8305 10.7791 16.2637 10.7791Z" fill="#29358F"/>
<path d="M9.73825 27.9999C10.9549 27.9999 11.9411 27.0133 11.9411 25.7963C11.9411 24.5793 10.9549 23.5928 9.73825 23.5928C8.52165 23.5928 7.5354 24.5793 7.5354 25.7963C7.5354 27.0133 8.52165 27.9999 9.73825 27.9999Z" fill="#29358F"/>
<path d="M25.2204 38.9823C26.437 38.9823 27.4233 37.9957 27.4233 36.7788C27.4233 35.5618 26.437 34.5752 25.2204 34.5752C24.0038 34.5752 23.0176 35.5618 23.0176 36.7788C23.0176 37.9957 24.0038 38.9823 25.2204 38.9823Z" fill="#29358F"/>
<path d="M18.076 14.8444C19.1709 14.8444 20.0585 13.9565 20.0585 12.8613C20.0585 11.766 19.1709 10.8782 18.076 10.8782C16.9811 10.8782 16.0935 11.766 16.0935 12.8613C16.0935 13.9565 16.9811 14.8444 18.076 14.8444Z" fill="#29358F"/>
<path d="M26.3649 26.8205C27.6792 26.8205 28.7446 25.7547 28.7446 24.44C28.7446 23.1253 27.6792 22.0596 26.3649 22.0596C25.0507 22.0596 23.9852 23.1253 23.9852 24.44C23.9852 25.7547 25.0507 26.8205 26.3649 26.8205Z" fill="#29358F"/>
<path d="M30.4342 6.54921C31.5077 6.54921 32.4278 5.92788 32.8801 5.0301C31.5312 3.82565 30.0193 2.80076 28.3793 1.99365C27.9533 2.47765 27.6858 3.1061 27.6858 3.80165C27.6858 5.31987 28.9165 6.54921 30.4342 6.54921Z" fill="#29358F"/>
<path d="M25.3674 16.2138C28.1247 16.2138 30.36 13.9778 30.36 11.2196C30.36 8.46133 28.1247 6.22534 25.3674 6.22534C22.61 6.22534 20.3748 8.46133 20.3748 11.2196C20.3748 13.9778 22.61 16.2138 25.3674 16.2138Z" fill="#29358F"/>
<path d="M39.1532 24.0603C39.0319 24.647 38.8831 25.2234 38.7107 25.7905C38.9564 25.2572 39.1101 24.675 39.1532 24.0603Z" fill="#29358F"/>
<path d="M34.1789 18.7102C31.4211 18.7102 29.1863 20.9462 29.1863 23.7053C29.1863 26.4631 31.4211 28.7 34.1789 28.7C36.1907 28.7 37.9208 27.5058 38.7104 25.7902C38.8827 25.2235 39.0316 24.6471 39.1529 24.06C39.1613 23.9422 39.1711 23.8253 39.1711 23.7049C39.1715 20.9462 36.9358 18.7102 34.1789 18.7102Z" fill="#29358F"/>
<path d="M5.43293 12.4475C5.43293 10.7947 4.33284 9.41288 2.83154 8.95288C1.50619 10.9618 0.533607 13.2231 0 15.6502C0.524721 15.94 1.11964 16.12 1.76166 16.12C3.78857 16.12 5.43293 14.476 5.43293 12.4475Z" fill="#29358F"/>
<path d="M29.3679 35.3632C31.3955 35.3632 33.0392 33.719 33.0392 31.6908C33.0392 29.6625 31.3955 28.0183 29.3679 28.0183C27.3403 28.0183 25.6967 29.6625 25.6967 31.6908C25.6967 33.719 27.3403 35.3632 29.3679 35.3632Z" fill="#29358F"/>
<path d="M23.4828 5.64933C25.348 5.64933 26.8595 4.13689 26.8595 2.27067C26.8595 1.91511 26.7898 1.58 26.688 1.25822C24.8997 0.574667 22.9883 0.142667 20.9961 0C20.4482 0.601333 20.1052 1.39333 20.1052 2.27067C20.1052 4.13689 21.6167 5.64933 23.4828 5.64933Z" fill="#29358F"/>
<path d="M3.63576 28.8462C5.5005 28.8462 7.01246 27.3338 7.01246 25.4675C7.01246 23.6026 5.5005 22.0889 3.63576 22.0889C1.80523 22.0889 0.323926 23.548 0.267944 25.3649C0.480765 26.1289 0.735795 26.8746 1.03481 27.5991C1.65417 28.3551 2.58276 28.8462 3.63576 28.8462Z" fill="#29358F"/>
<path d="M7.89351 23.1355C8.99306 23.1355 9.88443 22.2438 9.88443 21.1439C9.88443 20.044 8.99306 19.1523 7.89351 19.1523C6.79395 19.1523 5.90259 20.044 5.90259 21.1439C5.90259 22.2438 6.79395 23.1355 7.89351 23.1355Z" fill="#29358F"/>
<path d="M15.0241 37.0717C15.0241 35.9721 14.1324 35.0806 13.0336 35.0806C11.9335 35.0806 11.0422 35.9726 11.0422 37.0717C11.0422 37.5375 11.2088 37.9606 11.4772 38.2997C12.097 38.573 12.7328 38.817 13.3842 39.0277C14.315 38.8615 15.0241 38.0517 15.0241 37.0717Z" fill="#29358F"/>
<path d="M3.33004 21.3373C4.75375 21.3373 5.90789 20.1828 5.90789 18.7586C5.90789 17.3344 4.75375 16.1799 3.33004 16.1799C1.90634 16.1799 0.752197 17.3344 0.752197 18.7586C0.752197 20.1828 1.90634 21.3373 3.33004 21.3373Z" fill="#29358F"/>
<path d="M9.23839 14.6108C11.104 14.6108 12.6164 13.0979 12.6164 11.2317C12.6164 9.36542 11.104 7.85254 9.23839 7.85254C7.37275 7.85254 5.86035 9.36542 5.86035 11.2317C5.86035 13.0979 7.37275 14.6108 9.23839 14.6108Z" fill="#29358F"/>
<path d="M25.1551 29.6271C25.1409 26.0186 22.2036 23.1035 18.5963 23.1177C14.9877 23.1319 12.0739 26.0688 12.089 29.6777C12.1024 33.288 15.0392 36.2017 18.647 36.1875C22.2551 36.1737 25.1693 33.2368 25.1551 29.6271Z" fill="#29358F"/>
<path d="M33.5631 5.67114C32.1093 7.05514 31.2012 9.00714 31.2092 11.1738C31.226 15.3511 34.6241 18.7245 38.8001 18.708C39.0444 18.7076 39.287 18.692 39.5256 18.6689C39.1982 13.5867 36.9798 9.02181 33.5631 5.67114Z" fill="#29358F"/>
<path d="M28.7374 16.5808C27.6422 16.5853 26.759 17.4764 26.763 18.5719C26.7674 19.6662 27.6582 20.551 28.7534 20.5475C29.8477 20.5426 30.731 19.6506 30.727 18.555C30.7239 17.4604 29.8322 16.5768 28.7374 16.5808Z" fill="#29358F"/>
<path d="M8.06406 17.6706C8.71261 17.6706 9.23835 17.1447 9.23835 16.496C9.23835 15.8472 8.71261 15.3213 8.06406 15.3213C7.41552 15.3213 6.88977 15.8472 6.88977 16.496C6.88977 17.1447 7.41552 17.6706 8.06406 17.6706Z" fill="#29358F"/>
<path d="M14.1022 22.4392C16.422 22.4392 18.3026 20.558 18.3026 18.2374C18.3026 15.9168 16.422 14.0356 14.1022 14.0356C11.7823 14.0356 9.90173 15.9168 9.90173 18.2374C9.90173 20.558 11.7823 22.4392 14.1022 22.4392Z" fill="#29358F"/>
<path d="M11.0893 2.69589C11.0884 2.40878 11.0582 2.12789 11.0022 1.85767C8.66651 2.96255 6.57917 4.50522 4.84595 6.38122C5.45597 6.72167 6.15753 6.91722 6.90529 6.91411C9.22544 6.90478 11.0986 5.01544 11.0893 2.69589Z" fill="#29358F"/>
<path d="M11.6949 32.7626C11.6851 30.4426 9.79728 28.5692 7.47802 28.5777C5.4942 28.5861 3.8414 29.9697 3.4082 31.8186C4.85308 33.7852 6.64895 35.4754 8.70296 36.8026C10.4388 36.2808 11.7016 34.6688 11.6949 32.7626Z" fill="#29358F"/>
<path d="M22.1347 22.8334C24.0004 22.8334 25.5128 21.3205 25.5128 19.4543C25.5128 17.5881 24.0004 16.0752 22.1347 16.0752C20.2691 16.0752 18.7567 17.5881 18.7567 19.4543C18.7567 21.3205 20.2691 22.8334 22.1347 22.8334Z" fill="#29358F"/>
<path d="M19.1126 36.7871C17.4194 36.7942 16.0212 38.0218 15.7341 39.6325C16.9702 39.8707 18.2453 40 19.5502 40C20.5633 40 21.5585 39.9231 22.5315 39.7778C22.3027 38.0862 20.8654 36.7809 19.1126 36.7871Z" fill="#29358F"/>
</svg>
