<svg width="40" height="40" viewBox="0 0 40 40" fill="none" xmlns="http://www.w3.org/2000/svg">
<g clip-path="url(#clip0_7_885)">
<path d="M19.9094 20.8156L23.6594 23.6281C23.9356 23.8353 24.3272 23.7794 24.5344 23.5031C24.7416 23.2269 24.6856 22.8353 24.4094 22.6281L20.9375 20V14.6875C20.9375 14.3422 20.6578 14.0625 20.3125 14.0625C19.9672 14.0625 19.6875 14.3422 19.6875 14.6875V20.3125C19.6875 20.52 19.7744 20.7069 19.9094 20.8156Z" fill="#20276D"/>
<path d="M20.625 10.625C16.0503 10.625 12.1438 13.9269 11.3813 18.4375L11.1438 18.0844C10.9503 17.7978 10.5616 17.7222 10.275 17.9156C9.98844 18.1091 9.91282 18.4978 10.1063 18.7844L11.3563 20.6594C11.4591 20.8156 11.6266 20.9178 11.8125 20.9375H11.875C12.0406 20.9369 12.1991 20.8706 12.3156 20.7531L13.8781 19.1906C14.1222 18.9466 14.1222 18.5503 13.8781 18.3063C13.6341 18.0622 13.2378 18.0622 12.9938 18.3063L12.6063 18.6969C13.3259 14.2675 17.5 11.2606 21.9291 11.9803C26.3581 12.7 29.3656 16.8737 28.6459 21.3031C28.0069 25.2362 24.6097 28.1256 20.625 28.125C18.1119 28.1706 15.735 26.985 14.2594 24.95C14.0591 24.6687 13.6688 24.6028 13.3875 24.8031C13.1063 25.0034 13.0403 25.3938 13.2406 25.675C14.9494 28.0413 17.7069 29.4228 20.625 29.375C25.8028 29.375 30 25.1778 30 20C30 14.8222 25.8028 10.625 20.625 10.625Z" fill="#20276D"/>
</g>
<defs>
<clipPath id="clip0_7_885">
<rect width="20" height="20" fill="white" transform="translate(10 10)"/>
</clipPath>
</defs>
</svg>
