<svg width="16" height="16" viewBox="0 0 16 16" fill="none" xmlns="http://www.w3.org/2000/svg">
<path d="M8 5.5C7.50555 5.5 7.0222 5.64662 6.61108 5.92133C6.19995 6.19603 5.87952 6.58648 5.6903 7.04329C5.50108 7.50011 5.45157 8.00277 5.54804 8.48773C5.6445 8.97268 5.8826 9.41814 6.23223 9.76777C6.58187 10.1174 7.02732 10.3555 7.51228 10.452C7.99723 10.5484 8.4999 10.4989 8.95671 10.3097C9.41353 10.1205 9.80397 9.80005 10.0787 9.38893C10.3534 8.9778 10.5 8.49445 10.5 8C10.4992 7.3372 10.2356 6.70178 9.76689 6.23311C9.29822 5.76444 8.6628 5.50079 8 5.5ZM8 9.5C7.70333 9.5 7.41332 9.41203 7.16665 9.2472C6.91997 9.08238 6.72771 8.84811 6.61418 8.57403C6.50065 8.29994 6.47095 7.99834 6.52882 7.70736C6.5867 7.41639 6.72956 7.14912 6.93934 6.93934C7.14912 6.72956 7.41639 6.5867 7.70737 6.52882C7.99834 6.47094 8.29994 6.50065 8.57403 6.61418C8.84812 6.72771 9.08238 6.91997 9.24721 7.16664C9.41203 7.41332 9.5 7.70333 9.5 8C9.5 8.39782 9.34197 8.77936 9.06066 9.06066C8.77936 9.34196 8.39783 9.5 8 9.5Z" fill="#20276D"/>
<path d="M14 6H13.123C13.0955 5.9305 13.067 5.8615 13.036 5.7925L13.6565 5.1715C13.844 4.98397 13.9493 4.72966 13.9493 4.4645C13.9493 4.19934 13.844 3.94503 13.6565 3.7575L12.2425 2.3435C12.055 2.15603 11.8007 2.05071 11.5355 2.05071C11.2703 2.05071 11.016 2.15603 10.8285 2.3435L10.208 2.964C10.1385 2.9335 10.0695 2.9045 10 2.8765V2C10 1.73478 9.89464 1.48043 9.70711 1.29289C9.51957 1.10536 9.26522 1 9 1H7C6.73478 1 6.48043 1.10536 6.29289 1.29289C6.10536 1.48043 6 1.73478 6 2V2.8765C5.9305 2.9045 5.8615 2.9335 5.792 2.964L5.1715 2.3435C4.98397 2.15603 4.72966 2.05071 4.4645 2.05071C4.19934 2.05071 3.94503 2.15603 3.7575 2.3435L2.3435 3.7575C2.15603 3.94503 2.05071 4.19934 2.05071 4.4645C2.05071 4.72966 2.15603 4.98397 2.3435 5.1715L2.964 5.7925C2.933 5.8615 2.9045 5.9305 2.877 6H2C1.73478 6 1.48043 6.10536 1.29289 6.29289C1.10536 6.48043 1 6.73478 1 7V9C1 9.26522 1.10536 9.51957 1.29289 9.70711C1.48043 9.89464 1.73478 10 2 10H2.877C2.9045 10.0695 2.933 10.1385 2.964 10.2075L2.3435 10.8285C2.15603 11.016 2.05071 11.2703 2.05071 11.5355C2.05071 11.8007 2.15603 12.055 2.3435 12.2425L3.7575 13.6565C3.94503 13.844 4.19934 13.9493 4.4645 13.9493C4.72966 13.9493 4.98397 13.844 5.1715 13.6565L5.792 13.036C5.8615 13.0665 5.9305 13.0955 6 13.1235V14C6 14.2652 6.10536 14.5196 6.29289 14.7071C6.48043 14.8946 6.73478 15 7 15H9C9.26522 15 9.51957 14.8946 9.70711 14.7071C9.89464 14.5196 10 14.2652 10 14V13.1235C10.0695 13.0955 10.1385 13.0665 10.208 13.036L10.8285 13.6565C11.016 13.844 11.2703 13.9493 11.5355 13.9493C11.8007 13.9493 12.055 13.844 12.2425 13.6565L13.6565 12.2425C13.844 12.055 13.9493 11.8007 13.9493 11.5355C13.9493 11.2703 13.844 11.016 13.6565 10.8285L13.036 10.2075C13.067 10.1385 13.0955 10.0695 13.123 10H14C14.2652 10 14.5196 9.89464 14.7071 9.70711C14.8946 9.51957 15 9.26522 15 9V7C15 6.73478 14.8946 6.48043 14.7071 6.29289C14.5196 6.10536 14.2652 6 14 6ZM14 9H12.7705C12.6641 8.99999 12.5605 9.03393 12.4747 9.09688C12.3889 9.15982 12.3254 9.2485 12.2935 9.35C12.2132 9.60141 12.1112 9.84533 11.9885 10.079C11.9392 10.1733 11.9213 10.2809 11.9374 10.3862C11.9535 10.4914 12.0028 10.5887 12.078 10.664L12.95 11.5355L11.5355 12.95L10.664 12.0785C10.5887 12.0033 10.4914 11.954 10.3862 11.9379C10.2809 11.9218 10.1733 11.9397 10.079 11.989C9.84531 12.112 9.60119 12.214 9.3495 12.294C9.248 12.3259 9.15932 12.3894 9.09638 12.4752C9.03343 12.561 8.99949 12.6646 8.9995 12.771V14H7V12.7705C7.00001 12.6641 6.96607 12.5605 6.90312 12.4747C6.84018 12.3889 6.7515 12.3254 6.65 12.2935C6.39831 12.2135 6.15419 12.1115 5.9205 11.9885C5.82616 11.9392 5.71855 11.9213 5.61334 11.9374C5.50812 11.9535 5.41079 12.0028 5.3355 12.078L4.4645 12.95L3.05 11.5355L3.9215 10.664C3.99674 10.5887 4.046 10.4914 4.06209 10.3862C4.07819 10.2809 4.06029 10.1733 4.011 10.079C3.88833 9.84533 3.78628 9.60141 3.706 9.35C3.67408 9.2485 3.61061 9.15982 3.52482 9.09688C3.43903 9.03393 3.3354 8.99999 3.229 9H2V7H3.2295C3.3359 7.00001 3.43953 6.96607 3.52532 6.90312C3.61111 6.84018 3.67458 6.7515 3.7065 6.65C3.78678 6.3986 3.88883 6.15467 4.0115 5.921C4.06079 5.82666 4.07869 5.71905 4.06259 5.61384C4.0465 5.50862 3.99724 5.41129 3.922 5.336L3.05 4.4645L4.4645 3.05L5.336 3.9215C5.41129 3.99674 5.50862 4.046 5.61384 4.06209C5.71905 4.07819 5.82666 4.06029 5.921 4.011C6.15469 3.88802 6.39881 3.78595 6.6505 3.706C6.752 3.67408 6.84067 3.61061 6.90362 3.52482C6.96657 3.43903 7.00051 3.3354 7.0005 3.229V2H9.0005V3.2295C9.00049 3.3359 9.03443 3.43953 9.09738 3.52532C9.16032 3.61111 9.249 3.67458 9.3505 3.7065C9.60219 3.78645 9.84631 3.88851 10.08 4.0115C10.1743 4.06079 10.2819 4.07869 10.3872 4.06259C10.4924 4.0465 10.5897 3.99724 10.665 3.922L11.5355 3.05L12.95 4.4645L12.0785 5.336C12.0033 5.41129 11.954 5.50862 11.9379 5.61384C11.9218 5.71905 11.9397 5.82666 11.989 5.921C12.1117 6.15467 12.2137 6.3986 12.294 6.65C12.3259 6.7515 12.3894 6.84018 12.4752 6.90312C12.561 6.96607 12.6646 7.00001 12.771 7H14V9Z" fill="#20276D"/>
</svg>
