<svg width="16" height="16" viewBox="0 0 16 16" fill="none" xmlns="http://www.w3.org/2000/svg">
<g clip-path="url(#clip0_7_958)">
<path d="M2.375 4.71875H3.86188C4.05538 5.26431 4.57641 5.65625 5.1875 5.65625H6.125C6.73609 5.65625 7.25712 5.26431 7.45062 4.71875H13.625C13.8839 4.71875 14.0938 4.50888 14.0938 4.25C14.0938 3.99112 13.8839 3.78125 13.625 3.78125H7.45062C7.25712 3.23569 6.73609 2.84375 6.125 2.84375H5.1875C4.57641 2.84375 4.05538 3.23569 3.86188 3.78125H2.375C2.11612 3.78125 1.90625 3.99112 1.90625 4.25C1.90625 4.50888 2.11612 4.71875 2.375 4.71875ZM5.1875 3.78125H6.125C6.38347 3.78125 6.59375 3.99153 6.59375 4.25C6.59375 4.50847 6.38347 4.71875 6.125 4.71875H5.1875C4.92903 4.71875 4.71875 4.50847 4.71875 4.25C4.71875 3.99153 4.92903 3.78125 5.1875 3.78125Z" fill="#20276D"/>
<path d="M2.375 8.46875H8.54937C8.74287 9.01431 9.26391 9.40625 9.875 9.40625H10.8125C11.4236 9.40625 11.9446 9.01431 12.1381 8.46875H13.625C13.8839 8.46875 14.0938 8.25888 14.0938 8C14.0938 7.74112 13.8839 7.53125 13.625 7.53125H12.1381C11.9446 6.98569 11.4236 6.59375 10.8125 6.59375H9.875C9.26391 6.59375 8.74287 6.98569 8.54937 7.53125H2.375C2.11612 7.53125 1.90625 7.74112 1.90625 8C1.90625 8.25888 2.11612 8.46875 2.375 8.46875ZM9.875 7.53125H10.8125C11.071 7.53125 11.2812 7.74153 11.2812 8C11.2812 8.25847 11.071 8.46875 10.8125 8.46875H9.875C9.61653 8.46875 9.40625 8.25847 9.40625 8C9.40625 7.74153 9.61653 7.53125 9.875 7.53125Z" fill="#20276D"/>
<path d="M2.375 12.2188H5.73688C5.93038 12.7643 6.45141 13.1562 7.0625 13.1562H8C8.61109 13.1562 9.13213 12.7643 9.32563 12.2188H13.625C13.8839 12.2188 14.0938 12.0089 14.0938 11.75C14.0938 11.4911 13.8839 11.2812 13.625 11.2812H9.32563C9.13213 10.7357 8.61109 10.3438 8 10.3438H7.0625C6.45141 10.3438 5.93038 10.7357 5.73688 11.2812H2.375C2.11612 11.2812 1.90625 11.4911 1.90625 11.75C1.90625 12.0089 2.11612 12.2188 2.375 12.2188ZM7.0625 11.2812H8C8.25847 11.2812 8.46875 11.4915 8.46875 11.75C8.46875 12.0085 8.25847 12.2188 8 12.2188H7.0625C6.80403 12.2188 6.59375 12.0085 6.59375 11.75C6.59375 11.4915 6.80403 11.2812 7.0625 11.2812Z" fill="#20276D"/>
<path d="M15.5312 0.96875H0.46875C0.209875 0.96875 0 1.17862 0 1.4375V14.5625C0 14.8214 0.209875 15.0312 0.46875 15.0312H15.5312C15.7901 15.0312 16 14.8214 16 14.5625V1.4375C16 1.17862 15.7901 0.96875 15.5312 0.96875ZM15.0625 14.0938H0.9375V1.90625H15.0625V14.0938Z" fill="#20276D"/>
</g>
<defs>
<clipPath id="clip0_7_958">
<rect width="16" height="16" fill="white"/>
</clipPath>
</defs>
</svg>
