<svg width="16" height="16" viewBox="0 0 16 16" fill="none" xmlns="http://www.w3.org/2000/svg">
<g clip-path="url(#clip0_7_987)">
<path d="M13.1551 5.74406C13.1556 5.71481 13.1562 5.68563 13.1562 5.65625C13.1562 2.81309 10.8432 0.5 8 0.5C5.15684 0.5 2.84375 2.81309 2.84375 5.65625C2.84375 5.68559 2.84438 5.71481 2.84488 5.74406C1.15831 6.59616 0 8.33794 0 10.3438C0 13.1869 2.32709 15.5 5.1875 15.5C6.22441 15.5 7.19059 15.1921 8 14.6633C8.80941 15.1921 9.77559 15.5 10.8125 15.5C13.6729 15.5 16 13.1869 16 10.3438C16 8.33794 14.8417 6.59616 13.1551 5.74406ZM8 13.4853C7.20172 12.7699 6.67684 11.7555 6.60303 10.6201C7.0475 10.7453 7.51603 10.8125 8 10.8125C8.48397 10.8125 8.9525 10.7453 9.39697 10.6201C9.32316 11.7556 8.79828 12.7699 8 13.4853ZM8 9.875C7.52828 9.875 7.07441 9.79716 6.6505 9.65366C6.81031 8.68656 7.30003 7.82944 8 7.20216C8.69997 7.82944 9.18969 8.68656 9.3495 9.65366C8.92559 9.79716 8.47172 9.875 8 9.875ZM5.77572 9.23941C4.76459 8.60944 4.03828 7.56381 3.8375 6.34328C4.26181 6.20181 4.71578 6.125 5.1875 6.125C5.92419 6.125 6.61722 6.315 7.22059 6.64828C6.50875 7.34034 5.99563 8.23556 5.77572 9.23941ZM8.77941 6.64828C9.38278 6.315 10.0758 6.125 10.8125 6.125C11.2842 6.125 11.7382 6.20181 12.1625 6.34328C11.9617 7.56381 11.2354 8.60947 10.2243 9.23941C10.0044 8.23556 9.49125 7.34034 8.77941 6.64828ZM8 1.4375C10.2326 1.4375 12.0653 3.18078 12.2093 5.37759C11.7647 5.25387 11.2963 5.1875 10.8125 5.1875C9.77559 5.1875 8.80941 5.49544 8 6.02422C7.19059 5.49544 6.22441 5.1875 5.1875 5.1875C4.70372 5.1875 4.23528 5.25387 3.79069 5.37759C3.93466 3.18078 5.76741 1.4375 8 1.4375ZM5.1875 14.5625C2.84403 14.5625 0.9375 12.67 0.9375 10.3438C0.9375 8.82725 1.74791 7.49528 2.96125 6.75159C3.29281 8.27819 4.30216 9.55488 5.65747 10.249C5.65688 10.2805 5.65625 10.3121 5.65625 10.3438C5.65625 11.7916 6.25634 13.1018 7.22059 14.0392C6.61722 14.3725 5.92419 14.5625 5.1875 14.5625ZM10.8125 14.5625C10.0758 14.5625 9.38278 14.3725 8.77941 14.0392C9.74366 13.1018 10.3438 11.7916 10.3438 10.3438C10.3438 10.3121 10.3431 10.2805 10.3425 10.249C11.6978 9.55488 12.7072 8.27819 13.0387 6.75159C14.2521 7.49528 15.0625 8.82725 15.0625 10.3438C15.0625 12.67 13.1559 14.5625 10.8125 14.5625Z" fill="#20276D"/>
</g>
<defs>
<clipPath id="clip0_7_987">
<rect width="16" height="16" fill="white"/>
</clipPath>
</defs>
</svg>
