<svg width="16" height="16" viewBox="0 0 16 16" fill="none" xmlns="http://www.w3.org/2000/svg">
<path d="M6 4.5H11C11.1326 4.5 11.2598 4.55268 11.3536 4.64645C11.4473 4.74021 11.5 4.86739 11.5 5V10C11.5 10.1326 11.5527 10.2598 11.6464 10.3536C11.7402 10.4473 11.8674 10.5 12 10.5C12.1326 10.5 12.2598 10.4473 12.3536 10.3536C12.4473 10.2598 12.5 10.1326 12.5 10V5C12.5 4.60218 12.342 4.22064 12.0607 3.93934C11.7794 3.65804 11.3978 3.5 11 3.5H6C5.86739 3.5 5.74021 3.55268 5.64645 3.64645C5.55268 3.74021 5.5 3.86739 5.5 4C5.5 4.13261 5.55268 4.25979 5.64645 4.35355C5.74021 4.44732 5.86739 4.5 6 4.5Z" fill="#20276D"/>
<path d="M14.5 11.5H5C4.86739 11.5 4.74021 11.4473 4.64645 11.3536C4.55268 11.2598 4.5 11.1326 4.5 11V1.5C4.5 1.36739 4.44732 1.24021 4.35355 1.14645C4.25979 1.05268 4.13261 1 4 1C3.86739 1 3.74021 1.05268 3.64645 1.14645C3.55268 1.24021 3.5 1.36739 3.5 1.5V3.5H1.5C1.36739 3.5 1.24021 3.55268 1.14645 3.64645C1.05268 3.74021 1 3.86739 1 4C1 4.13261 1.05268 4.25979 1.14645 4.35355C1.24021 4.44732 1.36739 4.5 1.5 4.5H3.5V11C3.5 11.3978 3.65804 11.7794 3.93934 12.0607C4.22064 12.342 4.60218 12.5 5 12.5H11.5V14.5C11.5 14.6326 11.5527 14.7598 11.6464 14.8536C11.7402 14.9473 11.8674 15 12 15C12.1326 15 12.2598 14.9473 12.3536 14.8536C12.4473 14.7598 12.5 14.6326 12.5 14.5V12.5H14.5C14.6326 12.5 14.7598 12.4473 14.8536 12.3536C14.9473 12.2598 15 12.1326 15 12C15 11.8674 14.9473 11.7402 14.8536 11.6464C14.7598 11.5527 14.6326 11.5 14.5 11.5Z" fill="#20276D"/>
</svg>
