<svg width="16" height="16" viewBox="0 0 16 16" fill="none" xmlns="http://www.w3.org/2000/svg">
<path d="M10.8242 2.82422C9.78294 2.82422 8.81269 3.13359 8 3.66481C7.18731 3.13356 6.21706 2.82422 5.17578 2.82422C2.32184 2.82422 0 5.14606 0 8C0 10.8539 2.32184 13.1758 5.17578 13.1758C6.21706 13.1758 7.18731 12.8664 8 12.3352C8.81269 12.8664 9.78294 13.1758 10.8242 13.1758C13.6782 13.1758 16 10.8539 16 8C16 5.14606 13.6782 2.82422 10.8242 2.82422ZM5.17578 12.2383C2.83878 12.2383 0.9375 10.337 0.9375 8C0.9375 5.663 2.83878 3.76172 5.17578 3.76172C5.91681 3.76172 6.61387 3.95309 7.22056 4.28869C6.25159 5.22981 5.64844 6.54572 5.64844 8C5.64844 9.45428 6.25159 10.7702 7.22056 11.7113C6.61387 12.0469 5.91681 12.2383 5.17578 12.2383ZM8.70009 5.64844H7.29991C7.49888 5.35125 7.73441 5.08056 8 4.84272C8.26559 5.08056 8.50113 5.35125 8.70009 5.64844ZM8 11.1573C7.73441 10.9195 7.49888 10.6488 7.29991 10.3516H8.70009C8.50113 10.6487 8.26559 10.9194 8 11.1573ZM9.17119 9.41406H6.82881C6.72194 9.11303 6.64822 8.79647 6.612 8.46875H9.38803C9.35178 8.79647 9.27803 9.11303 9.17119 9.41406ZM6.612 7.53125C6.64822 7.20353 6.72197 6.88697 6.82881 6.58594H9.17119C9.27803 6.88697 9.35178 7.20353 9.388 7.53125H6.612ZM10.8242 12.2383C10.0832 12.2383 9.38609 12.0469 8.77944 11.7113C9.74841 10.7702 10.3516 9.45428 10.3516 8C10.3516 6.54572 9.74841 5.22981 8.77944 4.28869C9.38612 3.95309 10.0832 3.76172 10.8242 3.76172C13.1612 3.76172 15.0625 5.663 15.0625 8C15.0625 10.337 13.1612 12.2383 10.8242 12.2383Z" fill="#20276D"/>
</svg>
