<svg width="50" height="50" viewBox="0 0 50 50" fill="none" xmlns="http://www.w3.org/2000/svg">
<rect width="50" height="50" rx="10" fill="#F2F2F2"/>
<path d="M32.2825 15.7825C32.3866 15.677 32.4571 15.5431 32.4851 15.3976C32.5131 15.2521 32.4975 15.1016 32.44 14.965C32.3838 14.828 32.2882 14.7108 32.1654 14.628C32.0426 14.5453 31.8981 14.5007 31.75 14.5L18.25 14.5C18.1019 14.5007 17.9574 14.5453 17.8346 14.628C17.7118 14.7108 17.6163 14.828 17.56 14.965C17.518 15.054 17.4975 15.1516 17.5 15.25C17.4994 15.3487 17.5184 15.4466 17.5557 15.5379C17.593 15.6293 17.648 15.7124 17.7175 15.7825L24.4675 22.5325C24.5372 22.6028 24.6202 22.6586 24.7116 22.6967C24.803 22.7347 24.901 22.7543 25 22.7543C25.099 22.7543 25.1971 22.7347 25.2884 22.6967C25.3798 22.6586 25.4628 22.6028 25.5325 22.5325L32.2825 15.7825ZM20.0575 16L29.9425 16L25 20.9425L20.0575 16Z" fill="#3643BD"/>
<path d="M32.44 35.035C32.4975 34.8984 32.5131 34.7479 32.4851 34.6024C32.4571 34.4569 32.3866 34.323 32.2825 34.2175L25.5325 27.4675C25.4628 27.3972 25.3798 27.3414 25.2885 27.3033C25.1971 27.2652 25.099 27.2456 25 27.2456C24.901 27.2456 24.803 27.2652 24.7116 27.3033C24.6202 27.3414 24.5372 27.3972 24.4675 27.4675L17.7175 34.2175C17.648 34.2876 17.593 34.3707 17.5557 34.4621C17.5184 34.5534 17.4994 34.6513 17.5 34.75C17.4975 34.8484 17.518 34.946 17.56 35.035C17.6163 35.1719 17.7118 35.2892 17.8346 35.3719C17.9574 35.4547 18.1019 35.4992 18.25 35.5L31.75 35.5C31.8981 35.4992 32.0426 35.4547 32.1654 35.3719C32.2882 35.2892 32.3838 35.1719 32.44 35.035ZM20.0575 34L25 29.0575L29.9425 34L20.0575 34Z" fill="#3643BD"/>
<path d="M35.5 25C35.5 24.8011 35.421 24.6103 35.2803 24.4697C35.1397 24.329 34.9489 24.25 34.75 24.25L33.25 24.25C33.0511 24.25 32.8603 24.329 32.7197 24.4697C32.579 24.6103 32.5 24.8011 32.5 25C32.5 25.1989 32.579 25.3897 32.7197 25.5303C32.8603 25.671 33.0511 25.75 33.25 25.75L34.75 25.75C34.9489 25.75 35.1397 25.671 35.2803 25.5303C35.421 25.3897 35.5 25.1989 35.5 25Z" fill="#3643BD"/>
<path d="M31 25C31 24.8011 30.921 24.6103 30.7803 24.4697C30.6397 24.329 30.4489 24.25 30.25 24.25L28.75 24.25C28.5511 24.25 28.3603 24.329 28.2197 24.4697C28.079 24.6103 28 24.8011 28 25C28 25.1989 28.079 25.3897 28.2197 25.5303C28.3603 25.671 28.5511 25.75 28.75 25.75L30.25 25.75C30.4489 25.75 30.6397 25.671 30.7803 25.5303C30.921 25.3897 31 25.1989 31 25Z" fill="#3643BD"/>
<path d="M26.5 25C26.5 24.8011 26.421 24.6103 26.2803 24.4697C26.1397 24.329 25.9489 24.25 25.75 24.25L24.25 24.25C24.0511 24.25 23.8603 24.329 23.7197 24.4697C23.579 24.6103 23.5 24.8011 23.5 25C23.5 25.1989 23.579 25.3897 23.7197 25.5303C23.8603 25.671 24.0511 25.75 24.25 25.75L25.75 25.75C25.9489 25.75 26.1397 25.671 26.2803 25.5303C26.421 25.3897 26.5 25.1989 26.5 25Z" fill="#3643BD"/>
<path d="M22 25C22 24.8011 21.921 24.6103 21.7803 24.4697C21.6397 24.329 21.4489 24.25 21.25 24.25L19.75 24.25C19.5511 24.25 19.3603 24.329 19.2197 24.4697C19.079 24.6103 19 24.8011 19 25C19 25.1989 19.079 25.3897 19.2197 25.5303C19.3603 25.671 19.5511 25.75 19.75 25.75L21.25 25.75C21.4489 25.75 21.6397 25.671 21.7803 25.5303C21.921 25.3897 22 25.1989 22 25Z" fill="#3643BD"/>
<path d="M17.5 25C17.5 24.8011 17.421 24.6103 17.2803 24.4697C17.1397 24.329 16.9489 24.25 16.75 24.25L15.25 24.25C15.0511 24.25 14.8603 24.329 14.7197 24.4697C14.579 24.6103 14.5 24.8011 14.5 25C14.5 25.1989 14.579 25.3897 14.7197 25.5303C14.8603 25.671 15.0511 25.75 15.25 25.75L16.75 25.75C16.9489 25.75 17.1397 25.671 17.2803 25.5303C17.421 25.3897 17.5 25.1989 17.5 25Z" fill="#3643BD"/>
</svg>
