<svg width="50" height="50" viewBox="0 0 50 50" fill="none" xmlns="http://www.w3.org/2000/svg">
<rect width="50" height="50" rx="10" fill="#F2F2F2"/>
<path d="M15.7825 17.7175C15.677 17.6134 15.5431 17.5429 15.3976 17.5149C15.2521 17.4869 15.1016 17.5026 14.965 17.56C14.828 17.6163 14.7108 17.7118 14.628 17.8346C14.5453 17.9574 14.5007 18.1019 14.5 18.25V31.75C14.5007 31.8981 14.5453 32.0426 14.628 32.1654C14.7108 32.2882 14.828 32.3837 14.965 32.44C15.054 32.482 15.1516 32.5025 15.25 32.5C15.3487 32.5006 15.4466 32.4817 15.5379 32.4443C15.6293 32.407 15.7124 32.352 15.7825 32.2825L22.5325 25.5325C22.6028 25.4628 22.6586 25.3798 22.6967 25.2884C22.7347 25.1971 22.7543 25.099 22.7543 25C22.7543 24.901 22.7347 24.803 22.6967 24.7116C22.6586 24.6202 22.6028 24.5372 22.5325 24.4675L15.7825 17.7175ZM16 29.9425V20.0575L20.9425 25L16 29.9425Z" fill="#3643BD"/>
<path d="M35.035 17.56C34.8984 17.5026 34.7478 17.4869 34.6023 17.5149C34.4569 17.5429 34.3229 17.6134 34.2175 17.7175L27.4675 24.4675C27.3972 24.5372 27.3414 24.6202 27.3033 24.7116C27.2652 24.803 27.2456 24.901 27.2456 25C27.2456 25.099 27.2652 25.1971 27.3033 25.2884C27.3414 25.3798 27.3972 25.4628 27.4675 25.5325L34.2175 32.2825C34.2875 32.352 34.3706 32.407 34.462 32.4443C34.5534 32.4817 34.6512 32.5006 34.75 32.5C34.8483 32.5025 34.9459 32.482 35.035 32.44C35.1719 32.3837 35.2892 32.2882 35.3719 32.1654C35.4547 32.0426 35.4992 31.8981 35.5 31.75V18.25C35.4992 18.1019 35.4547 17.9574 35.3719 17.8346C35.2892 17.7118 35.1719 17.6163 35.035 17.56ZM34 29.9425L29.0575 25L34 20.0575V29.9425Z" fill="#3643BD"/>
<path d="M25 14.5C24.8011 14.5 24.6103 14.579 24.4697 14.7197C24.329 14.8603 24.25 15.0511 24.25 15.25V16.75C24.25 16.9489 24.329 17.1397 24.4697 17.2803C24.6103 17.421 24.8011 17.5 25 17.5C25.1989 17.5 25.3897 17.421 25.5303 17.2803C25.671 17.1397 25.75 16.9489 25.75 16.75V15.25C25.75 15.0511 25.671 14.8603 25.5303 14.7197C25.3897 14.579 25.1989 14.5 25 14.5Z" fill="#3643BD"/>
<path d="M25 19C24.8011 19 24.6103 19.079 24.4697 19.2197C24.329 19.3603 24.25 19.5511 24.25 19.75V21.25C24.25 21.4489 24.329 21.6397 24.4697 21.7803C24.6103 21.921 24.8011 22 25 22C25.1989 22 25.3897 21.921 25.5303 21.7803C25.671 21.6397 25.75 21.4489 25.75 21.25V19.75C25.75 19.5511 25.671 19.3603 25.5303 19.2197C25.3897 19.079 25.1989 19 25 19Z" fill="#3643BD"/>
<path d="M25 23.5C24.8011 23.5 24.6103 23.579 24.4697 23.7197C24.329 23.8603 24.25 24.0511 24.25 24.25V25.75C24.25 25.9489 24.329 26.1397 24.4697 26.2803C24.6103 26.421 24.8011 26.5 25 26.5C25.1989 26.5 25.3897 26.421 25.5303 26.2803C25.671 26.1397 25.75 25.9489 25.75 25.75V24.25C25.75 24.0511 25.671 23.8603 25.5303 23.7197C25.3897 23.579 25.1989 23.5 25 23.5Z" fill="#3643BD"/>
<path d="M25 28C24.8011 28 24.6103 28.079 24.4697 28.2197C24.329 28.3603 24.25 28.5511 24.25 28.75V30.25C24.25 30.4489 24.329 30.6397 24.4697 30.7803C24.6103 30.921 24.8011 31 25 31C25.1989 31 25.3897 30.921 25.5303 30.7803C25.671 30.6397 25.75 30.4489 25.75 30.25V28.75C25.75 28.5511 25.671 28.3603 25.5303 28.2197C25.3897 28.079 25.1989 28 25 28Z" fill="#3643BD"/>
<path d="M25 32.5C24.8011 32.5 24.6103 32.579 24.4697 32.7197C24.329 32.8603 24.25 33.0511 24.25 33.25V34.75C24.25 34.9489 24.329 35.1397 24.4697 35.2803C24.6103 35.421 24.8011 35.5 25 35.5C25.1989 35.5 25.3897 35.421 25.5303 35.2803C25.671 35.1397 25.75 34.9489 25.75 34.75V33.25C25.75 33.0511 25.671 32.8603 25.5303 32.7197C25.3897 32.579 25.1989 32.5 25 32.5Z" fill="#3643BD"/>
</svg>
