<svg width="16" height="16" viewBox="0 0 16 16" fill="none" xmlns="http://www.w3.org/2000/svg">
<path d="M8 3C8.13261 3 8.25979 2.94732 8.35355 2.85355C8.44732 2.75979 8.5 2.63261 8.5 2.5V1.5C8.5 1.36739 8.44732 1.24021 8.35355 1.14645C8.25979 1.05268 8.13261 1 8 1C7.86739 1 7.74021 1.05268 7.64645 1.14645C7.55268 1.24021 7.5 1.36739 7.5 1.5V2.5C7.5 2.63261 7.55268 2.75979 7.64645 2.85355C7.74021 2.94732 7.86739 3 8 3Z" fill="#20276D"/>
<path d="M8 13C7.86739 13 7.74021 13.0527 7.64645 13.1464C7.55268 13.2402 7.5 13.3674 7.5 13.5V14.5C7.5 14.6326 7.55268 14.7598 7.64645 14.8536C7.74021 14.9473 7.86739 15 8 15C8.13261 15 8.25979 14.9473 8.35355 14.8536C8.44732 14.7598 8.5 14.6326 8.5 14.5V13.5C8.5 13.3674 8.44732 13.2402 8.35355 13.1464C8.25979 13.0527 8.13261 13 8 13Z" fill="#20276D"/>
<path d="M14.5 7.5H13.5C13.3674 7.5 13.2402 7.55268 13.1464 7.64645C13.0527 7.74021 13 7.86739 13 8C13 8.13261 13.0527 8.25979 13.1464 8.35355C13.2402 8.44732 13.3674 8.5 13.5 8.5H14.5C14.6326 8.5 14.7598 8.44732 14.8536 8.35355C14.9473 8.25979 15 8.13261 15 8C15 7.86739 14.9473 7.74021 14.8536 7.64645C14.7598 7.55268 14.6326 7.5 14.5 7.5Z" fill="#20276D"/>
<path d="M2.5 7.5H1.5C1.36739 7.5 1.24021 7.55268 1.14645 7.64645C1.05268 7.74021 1 7.86739 1 8C1 8.13261 1.05268 8.25979 1.14645 8.35355C1.24021 8.44732 1.36739 8.5 1.5 8.5H2.5C2.63261 8.5 2.75979 8.44732 2.85355 8.35355C2.94732 8.25979 3 8.13261 3 8C3 7.86739 2.94732 7.74021 2.85355 7.64645C2.75979 7.55268 2.63261 7.5 2.5 7.5Z" fill="#20276D"/>
<path d="M11.89 4.61C11.9558 4.61038 12.021 4.59777 12.0819 4.57289C12.1429 4.548 12.1983 4.51134 12.245 4.465L12.95 3.755C13.0023 3.71018 13.0448 3.65502 13.0748 3.59299C13.1049 3.53095 13.1217 3.46339 13.1244 3.39453C13.127 3.32567 13.1154 3.257 13.0903 3.19284C13.0652 3.12868 13.027 3.0704 12.9783 3.02168C12.9296 2.97295 12.8713 2.93482 12.8071 2.90968C12.743 2.88454 12.6743 2.87294 12.6055 2.8756C12.5366 2.87826 12.469 2.89513 12.407 2.92514C12.345 2.95515 12.2898 2.99766 12.245 3.05L11.535 3.755C11.4881 3.80148 11.4509 3.85678 11.4255 3.91771C11.4002 3.97864 11.3871 4.04399 11.3871 4.11C11.3871 4.17601 11.4002 4.24136 11.4255 4.30229C11.4509 4.36322 11.4881 4.41852 11.535 4.465C11.5817 4.51134 11.6371 4.548 11.698 4.57289C11.7589 4.59777 11.8242 4.61038 11.89 4.61Z" fill="#20276D"/>
<path d="M3.75506 11.535L3.05006 12.245C2.95693 12.3387 2.90466 12.4654 2.90466 12.5975C2.90466 12.7296 2.95693 12.8563 3.05006 12.95C3.09678 12.9963 3.15219 13.033 3.21311 13.0579C3.27402 13.0828 3.33926 13.0954 3.40506 13.095C3.53623 13.0944 3.66193 13.0424 3.75506 12.95L4.46506 12.245C4.55921 12.1508 4.61211 12.0232 4.61211 11.89C4.61211 11.7569 4.55921 11.6292 4.46506 11.535C4.37091 11.4408 4.24321 11.388 4.11006 11.388C3.97691 11.388 3.84921 11.4408 3.75506 11.535Z" fill="#20276D"/>
<path d="M12.245 11.535C12.1508 11.4408 12.0231 11.388 11.89 11.388C11.7568 11.388 11.6291 11.4408 11.535 11.535C11.4408 11.6292 11.3879 11.7569 11.3879 11.89C11.3879 12.0232 11.4408 12.1508 11.535 12.245L12.245 12.95C12.3381 13.0424 12.4638 13.0944 12.595 13.095C12.6608 13.0954 12.726 13.0828 12.7869 13.0579C12.8479 13.033 12.9033 12.9963 12.95 12.95C13.0431 12.8563 13.0954 12.7296 13.0954 12.5975C13.0954 12.4654 13.0431 12.3387 12.95 12.245L12.245 11.535Z" fill="#20276D"/>
<path d="M3.75504 4.46501C3.80176 4.51135 3.85717 4.54801 3.91808 4.57289C3.979 4.59778 4.04424 4.61039 4.11004 4.61001C4.17584 4.61039 4.24107 4.59778 4.30199 4.57289C4.36291 4.54801 4.41832 4.51135 4.46504 4.46501C4.5119 4.41853 4.5491 4.36323 4.57448 4.3023C4.59987 4.24137 4.61294 4.17601 4.61294 4.11001C4.61294 4.044 4.59987 3.97865 4.57448 3.91772C4.5491 3.85679 4.5119 3.80149 4.46504 3.75501L3.75504 3.05001C3.65939 2.96809 3.53635 2.92529 3.41051 2.93015C3.28467 2.93501 3.1653 2.98718 3.07626 3.07623C2.98721 3.16527 2.93504 3.28464 2.93018 3.41048C2.92532 3.53632 2.96812 3.65936 3.05004 3.75501L3.75504 4.46501Z" fill="#20276D"/>
<path d="M8 4C7.20888 4 6.43552 4.2346 5.77772 4.67412C5.11992 5.11365 4.60723 5.73836 4.30448 6.46927C4.00173 7.20017 3.92252 8.00444 4.07686 8.78036C4.2312 9.55629 4.61216 10.269 5.17157 10.8284C5.73098 11.3878 6.44372 11.7688 7.21964 11.9231C7.99556 12.0775 8.79983 11.9983 9.53074 11.6955C10.2616 11.3928 10.8864 10.8801 11.3259 10.2223C11.7654 9.56448 12 8.79113 12 8C12 6.93913 11.5786 5.92172 10.8284 5.17157C10.0783 4.42143 9.06087 4 8 4ZM8 11C7.40666 11 6.82664 10.8241 6.33329 10.4944C5.83994 10.1648 5.45543 9.69623 5.22836 9.14805C5.0013 8.59987 4.94189 7.99667 5.05765 7.41473C5.1734 6.83279 5.45912 6.29824 5.87868 5.87868C6.29824 5.45912 6.83279 5.1734 7.41473 5.05764C7.99667 4.94189 8.59987 5.0013 9.14805 5.22836C9.69623 5.45542 10.1648 5.83994 10.4944 6.33329C10.8241 6.82664 11 7.40666 11 8C11 8.79565 10.6839 9.55871 10.1213 10.1213C9.55871 10.6839 8.79565 11 8 11Z" fill="#20276D"/>
</svg>
