<svg width="16" height="16" viewBox="0 0 16 16" fill="none" xmlns="http://www.w3.org/2000/svg">
<path d="M11.545 4.45501C11.251 4.16372 10.8539 4.00031 10.44 4.00031C10.0262 4.00031 9.62904 4.16372 9.33504 4.45501L1.45504 12.335C1.18765 12.633 1.04467 13.0222 1.05551 13.4225C1.06635 13.8227 1.23018 14.2036 1.51331 14.4867C1.79644 14.7699 2.17731 14.9337 2.57756 14.9445C2.97782 14.9554 3.367 14.8124 3.66504 14.545L11.545 6.66501C11.8363 6.37101 11.9997 5.97388 11.9997 5.56001C11.9997 5.14614 11.8363 4.74902 11.545 4.45501ZM2.95504 13.835C2.90465 13.893 2.84285 13.9401 2.77349 13.9732C2.70414 14.0063 2.6287 14.0248 2.55189 14.0275C2.47509 14.0302 2.39854 14.0171 2.32703 13.9889C2.25552 13.9608 2.19056 13.9182 2.13622 13.8638C2.08187 13.8095 2.03929 13.7445 2.01114 13.673C1.98298 13.6015 1.96984 13.525 1.97254 13.4482C1.97525 13.3713 1.99373 13.2959 2.02685 13.2266C2.05997 13.1572 2.107 13.0954 2.16504 13.045L8.00004 7.20501L8.79504 8.00001L2.95504 13.835ZM10.835 5.95501L9.50004 7.29501L8.70504 6.50001L10.045 5.16501C10.0963 5.11227 10.1578 5.07047 10.2257 5.04211C10.2935 5.01375 10.3665 4.99943 10.44 5.00001C10.5505 5.0004 10.6584 5.03345 10.7501 5.09501C10.8419 5.15657 10.9133 5.24389 10.9556 5.34597C10.9978 5.44806 11.0089 5.56035 10.9874 5.66873C10.966 5.7771 10.913 5.8767 10.835 5.95501Z" fill="#20276D"/>
<path d="M14.5 5H13.5C13.3674 5 13.2402 5.05268 13.1464 5.14645C13.0527 5.24021 13 5.36739 13 5.5C13 5.63261 13.0527 5.75979 13.1464 5.85355C13.2402 5.94732 13.3674 6 13.5 6H14.5C14.6326 6 14.7598 5.94732 14.8536 5.85355C14.9473 5.75979 15 5.63261 15 5.5C15 5.36739 14.9473 5.24021 14.8536 5.14645C14.7598 5.05268 14.6326 5 14.5 5Z" fill="#20276D"/>
<path d="M13.0001 7.27C12.9064 7.17687 12.7796 7.1246 12.6476 7.1246C12.5155 7.1246 12.3887 7.17687 12.2951 7.27C12.2019 7.36368 12.1497 7.49041 12.1497 7.6225C12.1497 7.75459 12.2019 7.88132 12.2951 7.975L13.0001 8.68C13.0464 8.72724 13.1016 8.76483 13.1625 8.79058C13.2235 8.81633 13.2889 8.82972 13.3551 8.83C13.4869 8.82812 13.6127 8.77421 13.7051 8.68C13.7982 8.58632 13.8505 8.45959 13.8505 8.3275C13.8505 8.19541 13.7982 8.06868 13.7051 7.975L13.0001 7.27Z" fill="#20276D"/>
<path d="M8.02506 3.73C8.07136 3.77724 8.12659 3.81483 8.18753 3.84057C8.24846 3.86632 8.3139 3.87972 8.38006 3.88C8.47894 3.87958 8.57549 3.84985 8.65748 3.79457C8.73947 3.73929 8.80323 3.66094 8.84069 3.56942C8.87815 3.47791 8.88764 3.37734 8.86795 3.28043C8.84825 3.18352 8.80027 3.09463 8.73006 3.025L8.02506 2.32C7.92941 2.23808 7.80637 2.19528 7.68053 2.20014C7.55469 2.205 7.43532 2.25717 7.34628 2.34622C7.25723 2.43526 7.20506 2.55463 7.2002 2.68047C7.19534 2.80631 7.23814 2.92935 7.32006 3.025L8.02506 3.73Z" fill="#20276D"/>
<path d="M10.5 3C10.6326 3 10.7598 2.94732 10.8536 2.85355C10.9473 2.75979 11 2.63261 11 2.5V1.5C11 1.36739 10.9473 1.24021 10.8536 1.14645C10.7598 1.05268 10.6326 1 10.5 1C10.3674 1 10.2402 1.05268 10.1464 1.14645C10.0527 1.24021 10 1.36739 10 1.5V2.5C10 2.63261 10.0527 2.75979 10.1464 2.85355C10.2402 2.94732 10.3674 3 10.5 3Z" fill="#20276D"/>
<path d="M12.6201 3.87999C12.6863 3.87972 12.7517 3.86632 12.8126 3.84057C12.8736 3.81482 12.9288 3.77723 12.9751 3.72999L13.6801 3.02499C13.7428 2.98529 13.7959 2.93213 13.8355 2.86937C13.875 2.80662 13.9002 2.73583 13.909 2.66216C13.9179 2.58848 13.9102 2.51376 13.8866 2.44342C13.863 2.37307 13.824 2.30886 13.7725 2.25545C13.7209 2.20205 13.6582 2.16077 13.5887 2.13463C13.5193 2.10849 13.4449 2.09813 13.371 2.10431C13.297 2.11048 13.2254 2.13305 13.1612 2.17035C13.0971 2.20766 13.042 2.25877 13.0001 2.31999L12.2701 3.02499C12.1999 3.09463 12.1519 3.18352 12.1322 3.28042C12.1125 3.37733 12.122 3.4779 12.1595 3.56942C12.1969 3.66093 12.2607 3.73928 12.3427 3.79457C12.4247 3.84985 12.5212 3.87958 12.6201 3.87999Z" fill="#20276D"/>
</svg>
