<svg width="16" height="16" viewBox="0 0 16 16" fill="none" xmlns="http://www.w3.org/2000/svg">
<path d="M12 3.50001H9.5C9.36739 3.50001 9.24021 3.55269 9.14645 3.64646C9.05268 3.74022 9 3.8674 9 4.00001C9 4.13262 9.05268 4.25979 9.14645 4.35356C9.24021 4.44733 9.36739 4.50001 9.5 4.50001H10.795L8.145 7.14501C7.94392 7.04799 7.72326 6.99839 7.5 7.00001H2.5C2.10218 7.00001 1.72064 7.15804 1.43934 7.43935C1.15804 7.72065 1 8.10218 1 8.50001V13.5C1 13.8978 1.15804 14.2794 1.43934 14.5607C1.72064 14.842 2.10218 15 2.5 15H7.5C7.89782 15 8.27936 14.842 8.56066 14.5607C8.84196 14.2794 9 13.8978 9 13.5V8.50001C8.99929 8.27049 8.94447 8.04437 8.84 7.84001L11.5 5.20501V6.50001C11.5 6.63262 11.5527 6.75979 11.6464 6.85356C11.7402 6.94733 11.8674 7.00001 12 7.00001C12.1326 7.00001 12.2598 6.94733 12.3536 6.85356C12.4473 6.75979 12.5 6.63262 12.5 6.50001V4.00001C12.4982 3.86762 12.4464 3.74083 12.355 3.64501C12.3083 3.59867 12.2529 3.56201 12.192 3.53712C12.131 3.51224 12.0658 3.49963 12 3.50001ZM8 13.5C8 13.6326 7.94732 13.7598 7.85355 13.8536C7.75979 13.9473 7.63261 14 7.5 14H2.5C2.36739 14 2.24021 13.9473 2.14645 13.8536C2.05268 13.7598 2 13.6326 2 13.5V8.50001C2 8.3674 2.05268 8.24022 2.14645 8.14645C2.24021 8.05269 2.36739 8.00001 2.5 8.00001H7.5C7.63261 8.00001 7.75979 8.05269 7.85355 8.14645C7.94732 8.24022 8 8.3674 8 8.50001V13.5Z" fill="#20276D"/>
<path d="M1.5 6C1.63261 6 1.75979 5.94732 1.85355 5.85355C1.94732 5.75979 2 5.63261 2 5.5V4.5C2 4.36739 1.94732 4.24021 1.85355 4.14645C1.75979 4.05268 1.63261 4 1.5 4C1.36739 4 1.24021 4.05268 1.14645 4.14645C1.05268 4.24021 1 4.36739 1 4.5V5.5C1 5.63261 1.05268 5.75979 1.14645 5.85355C1.24021 5.94732 1.36739 6 1.5 6Z" fill="#20276D"/>
<path d="M14.5 4C14.3674 4 14.2402 4.05268 14.1464 4.14645C14.0527 4.24021 14 4.36739 14 4.5V5.5C14 5.63261 14.0527 5.75979 14.1464 5.85355C14.2402 5.94732 14.3674 6 14.5 6C14.6326 6 14.7598 5.94732 14.8536 5.85355C14.9473 5.75979 15 5.63261 15 5.5V4.5C15 4.36739 14.9473 4.24021 14.8536 4.14645C14.7598 4.05268 14.6326 4 14.5 4Z" fill="#20276D"/>
<path d="M14.5 10C14.3674 10 14.2402 10.0527 14.1464 10.1464C14.0527 10.2402 14 10.3674 14 10.5V11.5C14 11.6326 14.0527 11.7598 14.1464 11.8536C14.2402 11.9473 14.3674 12 14.5 12C14.6326 12 14.7598 11.9473 14.8536 11.8536C14.9473 11.7598 15 11.6326 15 11.5V10.5C15 10.3674 14.9473 10.2402 14.8536 10.1464C14.7598 10.0527 14.6326 10 14.5 10Z" fill="#20276D"/>
<path d="M14.5 7C14.3674 7 14.2402 7.05268 14.1464 7.14645C14.0527 7.24021 14 7.36739 14 7.5V8.5C14 8.63261 14.0527 8.75979 14.1464 8.85355C14.2402 8.94732 14.3674 9 14.5 9C14.6326 9 14.7598 8.94732 14.8536 8.85355C14.9473 8.75979 15 8.63261 15 8.5V7.5C15 7.36739 14.9473 7.24021 14.8536 7.14645C14.7598 7.05268 14.6326 7 14.5 7Z" fill="#20276D"/>
<path d="M10.5 2H11.5C11.6326 2 11.7598 1.94732 11.8536 1.85355C11.9473 1.75979 12 1.63261 12 1.5C12 1.36739 11.9473 1.24021 11.8536 1.14645C11.7598 1.05268 11.6326 1 11.5 1H10.5C10.3674 1 10.2402 1.05268 10.1464 1.14645C10.0527 1.24021 10 1.36739 10 1.5C10 1.63261 10.0527 1.75979 10.1464 1.85355C10.2402 1.94732 10.3674 2 10.5 2Z" fill="#20276D"/>
<path d="M4.5 2H5.5C5.63261 2 5.75979 1.94732 5.85355 1.85355C5.94732 1.75979 6 1.63261 6 1.5C6 1.36739 5.94732 1.24021 5.85355 1.14645C5.75979 1.05268 5.63261 1 5.5 1H4.5C4.36739 1 4.24021 1.05268 4.14645 1.14645C4.05268 1.24021 4 1.36739 4 1.5C4 1.63261 4.05268 1.75979 4.14645 1.85355C4.24021 1.94732 4.36739 2 4.5 2Z" fill="#20276D"/>
<path d="M7.5 2H8.5C8.63261 2 8.75979 1.94732 8.85355 1.85355C8.94732 1.75979 9 1.63261 9 1.5C9 1.36739 8.94732 1.24021 8.85355 1.14645C8.75979 1.05268 8.63261 1 8.5 1H7.5C7.36739 1 7.24021 1.05268 7.14645 1.14645C7.05268 1.24021 7 1.36739 7 1.5C7 1.63261 7.05268 1.75979 7.14645 1.85355C7.24021 1.94732 7.36739 2 7.5 2Z" fill="#20276D"/>
<path d="M11.5 14H10.5C10.3674 14 10.2402 14.0527 10.1464 14.1464C10.0527 14.2402 10 14.3674 10 14.5C10 14.6326 10.0527 14.7598 10.1464 14.8536C10.2402 14.9473 10.3674 15 10.5 15H11.5C11.6326 15 11.7598 14.9473 11.8536 14.8536C11.9473 14.7598 12 14.6326 12 14.5C12 14.3674 11.9473 14.2402 11.8536 14.1464C11.7598 14.0527 11.6326 14 11.5 14Z" fill="#20276D"/>
<path d="M14.5 13C14.3674 13 14.2402 13.0527 14.1464 13.1464C14.0527 13.2402 14 13.3674 14 13.5C14 13.6326 13.9473 13.7598 13.8536 13.8536C13.7598 13.9473 13.6326 14 13.5 14C13.3674 14 13.2402 14.0527 13.1464 14.1464C13.0527 14.2402 13 14.3674 13 14.5C13 14.6326 13.0527 14.7598 13.1464 14.8536C13.2402 14.9473 13.3674 15 13.5 15C13.8978 15 14.2794 14.842 14.5607 14.5607C14.842 14.2794 15 13.8978 15 13.5C15 13.3674 14.9473 13.2402 14.8536 13.1464C14.7598 13.0527 14.6326 13 14.5 13Z" fill="#20276D"/>
<path d="M13.5 2C13.6326 2 13.7598 2.05268 13.8536 2.14645C13.9473 2.24021 14 2.36739 14 2.5C14 2.63261 14.0527 2.75979 14.1464 2.85355C14.2402 2.94732 14.3674 3 14.5 3C14.6326 3 14.7598 2.94732 14.8536 2.85355C14.9473 2.75979 15 2.63261 15 2.5C15 2.10218 14.842 1.72064 14.5607 1.43934C14.2794 1.15804 13.8978 1 13.5 1C13.3674 1 13.2402 1.05268 13.1464 1.14645C13.0527 1.24021 13 1.36739 13 1.5C13 1.63261 13.0527 1.75979 13.1464 1.85355C13.2402 1.94732 13.3674 2 13.5 2Z" fill="#20276D"/>
<path d="M1.5 3C1.63261 3 1.75979 2.94732 1.85355 2.85355C1.94732 2.75979 2 2.63261 2 2.5C2 2.36739 2.05268 2.24021 2.14645 2.14645C2.24021 2.05268 2.36739 2 2.5 2C2.63261 2 2.75979 1.94732 2.85355 1.85355C2.94732 1.75979 3 1.63261 3 1.5C3 1.36739 2.94732 1.24021 2.85355 1.14645C2.75979 1.05268 2.63261 1 2.5 1C2.10218 1 1.72064 1.15804 1.43934 1.43934C1.15804 1.72064 1 2.10218 1 2.5C1 2.63261 1.05268 2.75979 1.14645 2.85355C1.24021 2.94732 1.36739 3 1.5 3Z" fill="#20276D"/>
</svg>
