<svg width="16" height="16" viewBox="0 0 16 16" fill="none" xmlns="http://www.w3.org/2000/svg">
<path d="M14.5 7.5C14.3674 7.5 14.2402 7.55268 14.1464 7.64645C14.0526 7.74021 14 7.86739 14 8C14.0071 9.41017 13.5198 10.7783 12.6228 11.8664C11.7258 12.9545 10.4758 13.6938 9.09015 13.9557C7.70451 14.2177 6.27088 13.9857 5.03856 13.3001C3.80623 12.6146 2.85315 11.5188 2.34505 10.2033C1.83695 8.88786 1.80597 7.43592 2.25749 6.09997C2.70901 4.76402 3.61447 3.62857 4.81643 2.89106C6.01839 2.15356 7.44081 1.86063 8.83637 2.06324C10.2319 2.26584 11.5123 2.95115 12.455 4H10.5C10.3674 4 10.2402 4.05268 10.1464 4.14645C10.0526 4.24021 9.99996 4.36739 9.99996 4.5C9.99996 4.63261 10.0526 4.75979 10.1464 4.85355C10.2402 4.94732 10.3674 5 10.5 5H13.5C13.6326 5 13.7597 4.94732 13.8535 4.85355C13.9473 4.75979 14 4.63261 14 4.5V1.5C14 1.36739 13.9473 1.24021 13.8535 1.14645C13.7597 1.05268 13.6326 1 13.5 1C13.3674 1 13.2402 1.05268 13.1464 1.14645C13.0526 1.24021 13 1.36739 13 1.5V3.125C11.8637 1.96531 10.3596 1.23666 8.74526 1.06381C7.13091 0.890951 5.50667 1.28464 4.15061 2.17746C2.79456 3.07029 1.79104 4.40673 1.31184 5.95799C0.832644 7.50924 0.90758 9.17883 1.52382 10.6809C2.14006 12.183 3.25928 13.4242 4.68986 14.1919C6.12045 14.9597 7.77343 15.2063 9.3658 14.8895C10.9582 14.5727 12.3909 13.7122 13.4187 12.4554C14.4466 11.1986 15.0055 9.62357 15 8C15 7.86739 14.9473 7.74021 14.8535 7.64645C14.7597 7.55268 14.6326 7.5 14.5 7.5Z" fill="#20276D"/>
</svg>
