<svg width="50" height="50" viewBox="0 0 50 50" fill="none" xmlns="http://www.w3.org/2000/svg">
<rect width="50" height="50" rx="10" fill="#F2F2F2"/>
<path d="M15.2501 24.25C15.449 24.25 15.6397 24.329 15.7804 24.4697C15.921 24.6103 16.0001 24.8011 16.0001 25C15.9893 27.1153 16.7202 29.1674 18.0658 30.7995C19.4113 32.4317 21.2863 33.5407 23.3648 33.9336C25.4432 34.3265 27.5937 33.9786 29.4422 32.9502C31.2907 31.9219 32.7203 30.2782 33.4824 28.305C34.2446 26.3318 34.2911 24.1539 33.6138 22.15C32.9365 20.146 31.5783 18.4429 29.7754 17.3366C27.9724 16.2303 25.8388 15.791 23.7454 16.0949C21.6521 16.3988 19.7315 17.4267 18.3176 19H21.2501C21.449 19 21.6397 19.079 21.7804 19.2197C21.921 19.3603 22.0001 19.5511 22.0001 19.75C22.0001 19.9489 21.921 20.1397 21.7804 20.2803C21.6397 20.421 21.449 20.5 21.2501 20.5H16.7501C16.5511 20.5 16.3604 20.421 16.2197 20.2803C16.0791 20.1397 16.0001 19.9489 16.0001 19.75V15.25C16.0001 15.0511 16.0791 14.8603 16.2197 14.7197C16.3604 14.579 16.5511 14.5 16.7501 14.5C16.949 14.5 17.1397 14.579 17.2804 14.7197C17.421 14.8603 17.5001 15.0511 17.5001 15.25V17.6875C19.2045 15.948 21.4606 14.855 23.8821 14.5957C26.3036 14.3364 28.74 14.927 30.7741 16.2662C32.8082 17.6054 34.3134 19.6101 35.0322 21.937C35.751 24.2639 35.6386 26.7682 34.7143 29.0214C33.7899 31.2745 32.1111 33.1363 29.9652 34.2879C27.8193 35.4395 25.3399 35.8094 22.9513 35.3342C20.5627 34.8591 18.4136 33.5684 16.8719 31.6831C15.3302 29.7979 14.4917 27.4354 14.5001 25C14.5001 24.8011 14.5791 24.6103 14.7197 24.4697C14.8604 24.329 15.0511 24.25 15.2501 24.25Z" fill="#3643BD"/>
</svg>
