<svg width="50" height="50" viewBox="0 0 50 50" fill="none" xmlns="http://www.w3.org/2000/svg">
<rect width="50" height="50" rx="10" fill="#F2F2F2"/>
<path d="M34.7499 24.25C34.551 24.25 34.3603 24.329 34.2196 24.4697C34.079 24.6103 33.9999 24.8011 33.9999 25C34.0107 27.1153 33.2798 29.1674 31.9342 30.7995C30.5887 32.4317 28.7137 33.5407 26.6352 33.9336C24.5568 34.3265 22.4063 33.9786 20.5578 32.9502C18.7093 31.9219 17.2797 30.2782 16.5176 28.305C15.7554 26.3318 15.7089 24.1539 16.3862 22.15C17.0635 20.146 18.4217 18.4429 20.2246 17.3366C22.0276 16.2303 24.1612 15.791 26.2546 16.0949C28.3479 16.3988 30.2685 17.4267 31.6824 19H28.7499C28.551 19 28.3603 19.079 28.2196 19.2197C28.079 19.3603 27.9999 19.5511 27.9999 19.75C27.9999 19.9489 28.079 20.1397 28.2196 20.2803C28.3603 20.421 28.551 20.5 28.7499 20.5H33.2499C33.4489 20.5 33.6396 20.421 33.7803 20.2803C33.9209 20.1397 33.9999 19.9489 33.9999 19.75V15.25C33.9999 15.0511 33.9209 14.8603 33.7803 14.7197C33.6396 14.579 33.4489 14.5 33.2499 14.5C33.051 14.5 32.8603 14.579 32.7196 14.7197C32.579 14.8603 32.4999 15.0511 32.4999 15.25V17.6875C30.7955 15.948 28.5394 14.855 26.1179 14.5957C23.6964 14.3364 21.26 14.927 19.2259 16.2662C17.1918 17.6054 15.6866 19.6101 14.9678 21.937C14.249 24.2639 14.3614 26.7682 15.2857 29.0214C16.2101 31.2745 17.8889 33.1363 20.0348 34.2879C22.1807 35.4395 24.6601 35.8094 27.0487 35.3342C29.4373 34.8591 31.5864 33.5684 33.1281 31.6831C34.6698 29.7979 35.5083 27.4354 35.4999 25C35.4999 24.8011 35.4209 24.6103 35.2803 24.4697C35.1396 24.329 34.9489 24.25 34.7499 24.25Z" fill="#3643BD"/>
</svg>
