<svg width="16" height="16" viewBox="0 0 16 16" fill="none" xmlns="http://www.w3.org/2000/svg">
<path d="M2.66667 6H11.3333L10.2667 6.8C10 7 9.93333 7.46667 10.1333 7.73333C10.2667 7.93333 10.4667 8 10.6667 8C10.8 8 10.9333 7.93333 11.0667 7.86667L13.7333 5.86667C14 5.66667 14.0667 5.2 13.8667 4.93333C13.8 4.86667 13.8 4.86667 13.7333 4.8L11.1333 2.8C10.8667 2.6 10.4 2.6 10.2 2.93333C10 3.26667 10 3.66667 10.3333 3.86667L11.4 4.66667H2.66667C2.26667 4.66667 2 4.93333 2 5.33333C2 5.73333 2.26667 6 2.66667 6Z" fill="#20276D"/>
<path d="M13.3334 10.6667H4.66671L5.73338 9.86667C6.00005 9.66667 6.06671 9.2 5.86671 8.93333C5.66671 8.66667 5.20005 8.6 4.93338 8.8L2.26671 10.8C2.00005 11 1.93338 11.4667 2.13338 11.7333C2.20005 11.8 2.20005 11.8 2.26671 11.8667L4.86671 13.8667C4.93338 13.9333 5.06671 14 5.26671 14C5.46671 14 5.66671 13.9333 5.80005 13.7333C6.00005 13.4667 6.00005 13 5.66671 12.8L4.60005 12H13.3334C13.7334 12 14 11.7333 14 11.3333C14 10.9333 13.7334 10.6667 13.3334 10.6667Z" fill="#20276D"/>
</svg>
