<svg width="26" height="26" viewBox="0 0 26 26" fill="none" xmlns="http://www.w3.org/2000/svg">
<rect width="26" height="26" rx="3" fill="#F2F2F2"/>
<path fill-rule="evenodd" clip-rule="evenodd" d="M8.21995 11.22C8.36058 11.0795 8.5512 11.0006 8.74995 11.0006C8.9487 11.0006 9.13933 11.0795 9.27995 11.22L13 14.94L16.72 11.22C16.7886 11.1463 16.8714 11.0872 16.9634 11.0462C17.0554 11.0052 17.1547 10.9832 17.2554 10.9814C17.3561 10.9796 17.4562 10.9981 17.5495 11.0358C17.6429 11.0736 17.7278 11.1297 17.799 11.2009C17.8702 11.2722 17.9264 11.357 17.9641 11.4504C18.0018 11.5438 18.0203 11.6438 18.0185 11.7445C18.0168 11.8452 17.9947 11.9445 17.9537 12.0365C17.9127 12.1285 17.8536 12.2113 17.78 12.28L13.53 16.53C13.3893 16.6704 13.1987 16.7493 13 16.7493C12.8012 16.7493 12.6106 16.6704 12.47 16.53L8.21995 12.28C8.0795 12.1393 8.00061 11.9487 8.00061 11.75C8.00061 11.5512 8.0795 11.3606 8.21995 11.22Z" fill="#3643BD"/>
</svg>
