<svg width="26" height="26" viewBox="0 0 26 26" fill="none" xmlns="http://www.w3.org/2000/svg">
<rect width="26" height="26" rx="3" transform="matrix(1 0 0 -1 0 26)" fill="#F2F2F2"/>
<path fill-rule="evenodd" clip-rule="evenodd" d="M8.21995 14.78C8.36058 14.9204 8.5512 14.9993 8.74995 14.9993C8.9487 14.9993 9.13933 14.9204 9.27995 14.78L13 11.06L16.72 14.78C16.7886 14.8537 16.8714 14.9128 16.9634 14.9538C17.0554 14.9948 17.1547 15.0168 17.2554 15.0186C17.3561 15.0204 17.4562 15.0018 17.5495 14.9641C17.6429 14.9264 17.7278 14.8703 17.799 14.799C17.8702 14.7278 17.9264 14.643 17.9641 14.5496C18.0018 14.4562 18.0203 14.3562 18.0185 14.2555C18.0168 14.1548 17.9947 14.0555 17.9537 13.9635C17.9127 13.8715 17.8536 13.7887 17.78 13.72L13.53 9.47C13.3893 9.32955 13.1987 9.25066 13 9.25066C12.8012 9.25066 12.6106 9.32955 12.47 9.47L8.21995 13.72C8.0795 13.8606 8.00061 14.0512 8.00061 14.25C8.00061 14.4487 8.0795 14.6394 8.21995 14.78Z" fill="#3643BD"/>
</svg>
